<?xml version="1.0" encoding="UTF-8"?>
<svg xmlns="http://www.w3.org/2000/svg" xmlns:xlink="http://www.w3.org/1999/xlink" width="927px" height="1000px" viewBox="0 0 927 1002" version="1.1">
<g id="surface1">
<path style=" stroke:none;fill-rule:evenodd;fill:#fff;fill-opacity:1;" d="M 253.371094 202.527344 C 248.5625 206.875 245.273438 212.730469 234.367188 210.96875 C 230.742188 207.554688 229.121094 202.144531 230.140625 194.09375 C 239.363281 185.699219 251.585938 188.335938 253.371094 202.527344 Z M 242.804688 206.75 C 246.917969 202.683594 245.019531 193.839844 236.476562 196.203125 C 234.8125 203.488281 238.449219 205.480469 242.804688 206.75 Z M 242.804688 206.75 "/>
<path style=" stroke:none;fill-rule:evenodd;fill:#fff;fill-opacity:1;" d="M 430.710938 580.097656 C 508.761719 560.640625 505.242188 673.734375 449.714844 679.234375 C 412.671875 682.902344 380.425781 642.589844 399.035156 603.296875 C 402.621094 595.710938 417.445312 583.390625 430.691406 580.082031 Z M 405.375 645.5 C 406.476562 648.4375 421.007812 663.613281 422.265625 664.480469 C 453.980469 686.507812 488.671875 650.382812 483.5 618.082031 C 480.863281 601.691406 466.859375 595.089844 453.941406 586.4375 C 412.808594 580.398438 395.035156 617.972656 405.363281 645.5 Z M 405.375 645.5 "/>
<path style=" stroke:none;fill-rule:evenodd;fill:#fff;fill-opacity:1;" d="M 538.40625 584.3125 C 568.601562 578.25 592.410156 593.871094 593.304688 626.492188 C 593.863281 646.765625 581.003906 670.289062 567.96875 677.121094 C 549.308594 686.890625 523.152344 680.949219 510.960938 668.6875 C 482.191406 639.734375 501.785156 591.660156 538.421875 584.316406 Z M 572.1875 662.371094 C 587.449219 647.878906 586.191406 627.378906 582.753906 609.640625 C 568.605469 582.421875 512.410156 585.878906 508.851562 620.183594 C 512.578125 624.160156 515.390625 617.304688 517.296875 624.40625 C 513.5625 628.367188 511.136719 621.894531 506.738281 626.511719 C 504.035156 671.671875 550.453125 683.050781 572.203125 662.414062 Z M 572.1875 662.371094 "/>
<path style=" stroke:none;fill-rule:evenodd;fill:#fff;fill-opacity:1;" d="M 344.164062 592.75 L 348.386719 592.75 L 348.386719 596.964844 L 344.164062 596.964844 L 344.164062 592.746094 Z M 344.164062 592.75 "/>
<path style=" stroke:none;fill-rule:evenodd;fill:#fff;fill-opacity:1;" d="M 437.0625 592.75 C 437.371094 598.679688 431.890625 598.832031 426.503906 599.078125 C 429.664062 596.648438 431.636719 593.007812 437.046875 592.761719 Z M 437.0625 592.75 "/>
<path style=" stroke:none;fill-rule:evenodd;fill:#fff;fill-opacity:1;" d="M 339.941406 594.875 C 339.019531 597.472656 337.234375 599.210938 333.601562 599.09375 C 334.542969 596.484375 336.304688 594.753906 339.949219 594.875 Z M 339.941406 594.875 "/>
<path style=" stroke:none;fill-rule:evenodd;fill:#fff;fill-opacity:1;" d="M 458.175781 594.875 C 461.585938 594.285156 461.804688 596.867188 464.503906 596.980469 C 465.355469 601.078125 454.90625 600.074219 458.1875 594.886719 Z M 458.175781 594.875 "/>
<path style=" stroke:none;fill-rule:evenodd;fill:#fff;fill-opacity:1;" d="M 323.050781 596.96875 C 327.4375 598.15625 327.527344 600.261719 325.164062 603.304688 L 320.941406 603.304688 C 322.035156 601.605469 323.128906 599.875 323.035156 596.960938 Z M 323.050781 596.96875 "/>
<path style=" stroke:none;fill-rule:evenodd;fill:#fff;fill-opacity:1;" d="M 542.628906 601.1875 L 542.628906 605.402344 C 532.328125 607.523438 538.738281 594.171875 542.628906 601.183594 Z M 542.628906 601.1875 "/>
<path style=" stroke:none;fill-rule:evenodd;fill:#fff;fill-opacity:1;" d="M 358.925781 609.625 C 367.441406 627.042969 360.4375 653.136719 337.808594 651.8125 C 301.210938 649.65625 321.984375 580.824219 358.921875 609.625 Z M 327.273438 639.15625 C 340.28125 644.558594 350.886719 630.828125 356.832031 622.285156 C 348.871094 609.234375 330.15625 627.503906 327.273438 639.160156 Z M 327.273438 639.15625 "/>
<path style=" stroke:none;fill-rule:evenodd;fill:#fff;fill-opacity:1;" d="M 462.398438 609.625 C 470.941406 634.667969 457.765625 655.0625 443.394531 653.917969 C 405.269531 650.914062 422.859375 581.261719 462.382812 609.636719 Z M 432.839844 618.0625 L 432.839844 628.609375 C 443.261719 628.738281 447.757812 634.804688 458.179688 634.933594 C 460.605469 629.03125 460.605469 623.972656 458.179688 618.0625 C 449.734375 618.367188 439.800781 612.660156 432.84375 618.0625 Z M 453.953125 639.15625 C 453.230469 637.445312 448.347656 636.613281 447.613281 639.15625 C 446.21875 644.042969 455.878906 643.707031 453.964844 639.15625 Z M 453.953125 639.15625 "/>
<path style=" stroke:none;fill-rule:evenodd;fill:#fff;fill-opacity:1;" d="M 415.949219 605.40625 L 424.394531 605.40625 C 422.558594 608.5 421.230469 612.09375 415.949219 611.742188 L 415.949219 605.398438 Z M 415.949219 605.40625 "/>
<path style=" stroke:none;fill-rule:evenodd;fill:#fff;fill-opacity:1;" d="M 466.621094 605.40625 C 471.230469 605.03125 473.335938 607.136719 472.957031 611.742188 C 468.339844 612.105469 466.210938 610.011719 466.609375 605.398438 Z M 466.621094 605.40625 "/>
<path style=" stroke:none;fill-rule:evenodd;fill:#fff;fill-opacity:1;" d="M 523.609375 607.53125 C 530.367188 611.089844 515.535156 621.6875 517.28125 609.648438 C 520.289062 609.796875 523.265625 609.980469 523.597656 607.523438 Z M 523.609375 607.53125 "/>
<path style=" stroke:none;fill-rule:evenodd;fill:#fff;fill-opacity:1;" d="M 557.390625 653.933594 C 542.097656 655.867188 533.636719 650.960938 525.726562 645.5 C 510.371094 606.570312 564.730469 595.78125 570.0625 624.410156 C 572.28125 636.425781 562.378906 643.769531 557.363281 653.9375 Z M 534.183594 637.0625 L 561.632812 637.0625 C 560.765625 631.976562 565.492188 632.472656 563.746094 626.507812 C 555.269531 623.714844 528.6875 619.105469 534.15625 637.070312 Z M 534.183594 637.0625 "/>
<path style=" stroke:none;fill-rule:evenodd;fill:#fff;fill-opacity:1;" d="M 310.382812 611.75 C 318.871094 610.523438 309.328125 617.996094 312.488281 624.402344 C 301.277344 623.734375 309.542969 617.332031 310.394531 611.746094 Z M 310.382812 611.75 "/>
<path style=" stroke:none;fill-rule:evenodd;fill:#fff;fill-opacity:1;" d="M 367.371094 613.84375 C 371.085938 614.347656 372.179688 617.476562 371.589844 622.28125 C 368.761719 620.914062 367.667969 617.789062 367.367188 613.84375 Z M 367.371094 613.84375 "/>
<path style=" stroke:none;fill-rule:evenodd;fill:#fff;fill-opacity:1;" d="M 413.820312 615.96875 C 416.425781 616.890625 418.160156 618.671875 418.046875 622.300781 C 410.726562 624.125 410.816406 619.023438 413.824219 615.960938 Z M 413.820312 615.96875 "/>
<path style=" stroke:none;fill-rule:evenodd;fill:#fff;fill-opacity:1;" d="M 472.9375 615.96875 C 476.652344 616.480469 477.75 619.601562 477.164062 624.410156 C 470.816406 626.53125 473.429688 619.703125 472.941406 615.972656 Z M 472.9375 615.96875 "/>
<path style=" stroke:none;fill-rule:evenodd;fill:#fff;fill-opacity:1;" d="M 705.214844 639.15625 C 738.027344 643.5 685.003906 703.320312 677.773438 668.691406 C 674.3125 652.273438 691.261719 637.308594 705.207031 639.160156 Z M 690.421875 651.8125 C 692 660.890625 698.773438 664.109375 705.199219 658.132812 C 705.671875 654.152344 702.820312 653.488281 703.09375 649.703125 C 697.898438 649.457031 692.945312 649.398438 690.425781 651.824219 Z M 690.421875 651.8125 "/>
<path style=" stroke:none;fill-rule:evenodd;fill:#fff;fill-opacity:1;" d="M 320.921875 653.933594 C 318.960938 658.4375 305.570312 656.824219 308.25 649.71875 C 313.902344 644.015625 316.300781 652.390625 320.917969 653.9375 Z M 320.921875 653.933594 "/>
<path style=" stroke:none;fill-rule:evenodd;fill:#fff;fill-opacity:1;" d="M 466.621094 651.8125 C 469.214844 661.429688 459.214844 658.46875 458.175781 664.460938 C 454.167969 661.699219 460.851562 651.804688 466.621094 651.804688 Z M 466.621094 651.8125 "/>
<path style=" stroke:none;fill-rule:evenodd;fill:#fff;fill-opacity:1;" d="M 361.054688 653.933594 C 360.660156 659.871094 357.378906 662.925781 350.496094 662.375 C 353.199219 658.765625 354.839844 654.058594 361.039062 653.9375 Z M 361.054688 653.933594 "/>
<path style=" stroke:none;fill-rule:evenodd;fill:#fff;fill-opacity:1;" d="M 434.933594 658.152344 L 434.933594 662.378906 C 424.636719 664.472656 431.046875 651.148438 434.933594 658.160156 Z M 434.933594 658.152344 "/>
<path style=" stroke:none;fill-rule:evenodd;fill:#fff;fill-opacity:1;" d="M 325.144531 658.152344 C 328.554688 657.566406 328.777344 660.148438 331.476562 660.269531 C 331.074219 661.972656 329.355469 662.367188 329.371094 664.480469 L 325.144531 664.480469 L 325.144531 658.136719 Z M 325.144531 658.152344 "/>
<path style=" stroke:none;fill-rule:evenodd;fill:#fff;fill-opacity:1;" d="M 337.8125 658.152344 C 342.199219 659.335938 342.289062 661.449219 339.929688 664.480469 L 335.703125 664.480469 C 335.09375 661.050781 337.675781 660.839844 337.796875 658.136719 Z M 337.8125 658.152344 "/>
<path style=" stroke:none;fill-rule:evenodd;fill:#fff;fill-opacity:1;" d="M 555.296875 658.152344 L 559.523438 658.152344 L 559.523438 662.378906 L 555.296875 662.378906 Z M 555.296875 658.152344 "/>
<path style=" stroke:none;fill-rule:evenodd;fill:#fff;fill-opacity:1;" d="M 551.074219 660.246094 C 550.570312 663.957031 547.441406 665.050781 542.628906 664.460938 C 540.5 658.117188 547.335938 660.726562 551.074219 660.242188 Z M 551.074219 660.246094 "/>
<path style=" stroke:none;fill-rule:evenodd;fill:#fff;fill-opacity:1;" d="M 441.285156 662.371094 L 445.507812 662.371094 L 445.507812 666.589844 L 441.285156 666.589844 Z M 441.285156 662.371094 "/>
<path style=" stroke:none;fill-rule:evenodd;fill:#fff;fill-opacity:1;" d="M 713.660156 670.808594 L 717.890625 670.808594 L 717.890625 675.03125 L 713.660156 675.03125 Z M 713.660156 670.808594 "/>
<path style=" stroke:none;fill-rule:evenodd;fill:#fff;fill-opacity:1;" d="M 643.972656 734.085938 C 648.449219 724.5 658.148438 720.136719 667.195312 715.101562 C 667.972656 723.617188 660.183594 723.570312 658.753906 729.867188 C 665.34375 728.871094 671.925781 720.886719 677.757812 725.648438 C 669.253906 734.03125 656.183594 737.851562 646.082031 744.628906 C 657.9375 799.675781 681.183594 839.121094 713.644531 875.414062 C 723.988281 886.972656 736.542969 897.597656 747.425781 909.164062 C 769.640625 932.761719 787.902344 959.113281 793.878906 1001.96875 C 782.675781 998.128906 786.105469 987.867188 783.324219 980.878906 C 763.941406 932.253906 725.996094 904.273438 692.53125 869.078125 C 548.578125 866.402344 363.773438 870.550781 204.800781 862.753906 C 196.8125 862.359375 190.507812 864.855469 183.679688 862.753906 C 168.011719 857.929688 156.992188 841.359375 143.566406 831.109375 C 142.5 797.191406 143.769531 772.3125 143.566406 736.199219 C 89.21875 738.308594 50.96875 743.511719 -0.0078125 748.847656 C 0.703125 562.609375 2.753906 383.78125 6.320312 210.972656 C 54.710938 195.710938 100.46875 230.207031 147.789062 236.285156 C 152.21875 219.515625 143.195312 200.554688 147.789062 185.65625 C 153.695312 166.457031 182.289062 163.105469 187.902344 145.582031 C 194.359375 144.050781 194.113281 149.21875 200.574219 147.6875 C 210.429688 141.367188 213.015625 127.78125 232.242188 130.8125 C 234.46875 122 227.796875 116.519531 232.242188 111.828125 C 248.535156 104.898438 273.863281 107 285.023438 94.953125 C 268.007812 89.933594 254.367188 106.492188 234.355469 105.503906 C 224.785156 90.039062 234.058594 84.65625 247.015625 75.96875 C 254.609375 70.886719 255.402344 67.988281 259.6875 67.53125 C 275.011719 65.90625 286.277344 79.105469 295.585938 86.515625 C 292.058594 101.96875 290.335938 114.082031 293.46875 128.703125 C 306.007812 130.242188 311.480469 138.832031 318.804688 145.578125 C 320.507812 135.324219 329.640625 132.5 337.808594 128.703125 C 338.015625 102.144531 349.53125 79.320312 373.703125 82.296875 C 385.175781 83.707031 388.203125 94.050781 399.035156 99.171875 C 395.386719 112.035156 396.707031 114.113281 399.035156 128.703125 C 412.78125 131.847656 408.363281 153.136719 428.59375 149.792969 C 436.074219 142.503906 444.539062 136.183594 451.824219 128.703125 C 453.035156 86.320312 454.875 44.566406 453.9375 0.0351562 L 468.714844 0.0351562 C 474.941406 28.976562 465.035156 64.550781 466.601562 107.613281 C 466.898438 115.695312 461.707031 131.820312 472.9375 135.03125 C 481.613281 127.378906 474.917969 113.65625 475.050781 101.285156 C 475.363281 70.214844 478.109375 31.207031 479.273438 0.0351562 L 504.605469 0.0351562 C 500.050781 40.476562 503.644531 89.0625 502.5 132.921875 C 516.554688 135.054688 513.976562 153.800781 534.167969 149.796875 C 538.230469 141.898438 535.050781 126.773438 540.503906 120.265625 C 571.058594 120.386719 625.25 117.980469 675.632812 120.265625 C 696.183594 121.203125 735.035156 116.726562 747.417969 122.375 C 759.070312 127.691406 760.65625 142.613281 760.09375 154.015625 C 780.179688 153.636719 799.296875 154.226562 814.984375 158.238281 C 805.695312 292.335938 814.585938 465.066406 804.425781 596.964844 C 826.203125 597.53125 841.390625 596.027344 852.988281 605.402344 C 863.230469 613.675781 863.394531 633.050781 878.328125 637.046875 C 895.804688 671.617188 905.378906 714.070312 926.886719 744.617188 C 927.136719 766.660156 927.222656 788.546875 922.664062 805.785156 C 919.234375 794.089844 925.050781 764.964844 916.332031 744.617188 C 914.625 740.628906 910.007812 736.015625 905.769531 729.855469 C 889.429688 706.0625 873.859375 677.214844 861.429688 647.59375 C 855.617188 633.746094 852.9375 616.863281 846.652344 611.738281 C 836.757812 603.664062 814.539062 605.796875 800.199219 605.402344 C 808.183594 616.695312 822.585938 618.082031 831.875 628.609375 C 838.925781 636.601562 843.007812 649.550781 848.761719 660.25 C 863.582031 687.785156 887.964844 717.589844 903.660156 746.730469 C 896.398438 753.648438 887.667969 735.105469 882.542969 727.746094 C 866.972656 705.394531 847.292969 679.761719 833.984375 653.917969 C 831.25 648.601562 830.695312 641.390625 827.652344 637.046875 C 816.035156 620.445312 793.261719 614.988281 772.753906 609.625 C 759.304688 598.695312 745.0625 586.363281 726.308594 586.421875 C 710.113281 586.472656 694.691406 605.566406 673.523438 592.753906 C 670.871094 602.097656 682.691406 611.613281 692.527344 618.066406 C 706.699219 627.359375 726.175781 633.988281 745.308594 632.828125 C 744.910156 638.757812 741.632812 641.808594 734.753906 641.265625 C 743.710938 662.136719 769.921875 673.636719 791.757812 675.015625 C 794.082031 685.0625 779.179688 677.917969 779.089844 685.5625 C 780.359375 719.449219 807.644531 727.347656 806.542969 763.605469 C 800.15625 769.730469 800.644531 757.101562 795.976562 755.171875 C 791.09375 763.644531 796.855469 782.765625 791.753906 791.027344 C 786.03125 796.125 780.03125 788.710938 770.644531 791.027344 C 763.414062 797.820312 781.445312 805.664062 774.867188 812.125 C 766.90625 807.03125 760.582031 803.066406 753.75 795.242188 C 748.792969 789.558594 745.851562 778.386719 738.96875 772.039062 C 729.347656 763.171875 711.859375 758.304688 703.082031 744.617188 C 685.78125 717.652344 673.78125 680.40625 654.523438 664.460938 C 645.976562 657.402344 621.625 651.730469 612.292969 664.460938 C 646.652344 656.648438 675.140625 707.578125 629.183594 715.089844 C 634.367188 723.269531 637.800781 733.203125 643.96875 740.398438 C 656.089844 736.242188 660.527344 725.984375 644.058594 734.027344 Z M 285.046875 86.527344 C 267.425781 81.160156 250.808594 92.390625 238.597656 99.183594 C 250.503906 99.449219 273.6875 93.734375 285.046875 86.527344 Z M 481.394531 99.183594 C 484.519531 95.816406 481.875 86.3125 479.289062 82.308594 C 480.5625 87.351562 476.644531 97.613281 481.382812 99.183594 Z M 251.265625 86.527344 C 237.738281 84.089844 246.628906 92.96875 251.265625 86.527344 Z M 352.617188 101.292969 C 357.863281 101.609375 361.378906 100.199219 363.179688 97.070312 C 361.175781 94.882812 352.273438 95.144531 352.609375 101.292969 Z M 348.394531 111.835938 C 358.394531 112.238281 381.582031 108.769531 388.507812 99.179688 C 372.773438 101.019531 356.367188 102.226562 348.410156 111.835938 Z M 274.488281 107.621094 C 279.578125 106.757812 279.078125 111.472656 285.046875 109.726562 L 285.046875 105.511719 C 283.699219 100.359375 275.179688 105.191406 274.488281 107.621094 Z M 375.828125 113.949219 C 382.121094 113.90625 388.691406 114.144531 388.496094 107.625 C 383.121094 108.554688 378.808594 110.578125 375.828125 113.949219 Z M 259.710938 113.949219 C 254.230469 114.25 239.363281 112.433594 238.597656 124.5 C 247.054688 133.628906 271.863281 126.417969 287.160156 128.714844 L 287.160156 116.058594 C 276.964844 117.503906 268.003906 113.488281 259.710938 113.949219 Z M 344.171875 122.386719 L 344.171875 130.820312 C 359.621094 125.542969 381.636719 137.789062 390.621094 124.496094 C 383.359375 116.578125 354.804688 120.027344 344.171875 122.386719 Z M 551.082031 149.804688 C 549.507812 143.3125 556.875 145.753906 555.304688 139.261719 C 553.171875 133.660156 551.828125 127.261719 544.75 126.605469 C 541.042969 132.921875 540.3125 151.246094 551.066406 149.804688 Z M 563.75 149.804688 C 566.183594 144.5 564.75 135.339844 572.191406 135.042969 C 574.976562 141.578125 565.929688 146.742188 572.191406 149.804688 C 574.054688 144.632812 574.089844 137.644531 580.636719 137.152344 L 580.636719 149.804688 C 591.691406 153.109375 581.988281 135.683594 591.199219 137.152344 C 591.484375 143.898438 589.117188 153.289062 597.53125 151.914062 C 598.714844 139.878906 600.714844 133.253906 593.308594 126.605469 L 561.636719 126.605469 C 566.527344 132.542969 557.140625 143.320312 563.730469 149.804688 Z M 605.976562 151.914062 C 635.214844 151.660156 674.421875 152.265625 696.765625 151.914062 C 699.078125 143.332031 698.6875 137.601562 694.652344 130.820312 C 670.089844 125.125 632.839844 132.105469 608.089844 126.605469 C 605.871094 133.109375 608.910156 142.089844 605.992188 151.914062 Z M 703.097656 151.914062 C 714.902344 155.273438 703.925781 135.863281 713.652344 137.152344 C 719.34375 139.644531 713.644531 148.152344 713.652344 151.914062 C 722.867188 152.675781 713.707031 135.097656 724.210938 137.152344 C 726.417969 143.125 726.417969 145.941406 724.210938 151.914062 C 734.277344 154.945312 722.59375 136.234375 732.65625 139.261719 C 738.636719 138.914062 730.902344 152.265625 736.882812 151.914062 C 741.6875 150.386719 734.9375 137.316406 743.214844 139.261719 C 749.894531 142.527344 740.578125 151.925781 745.328125 154.023438 C 759.015625 151.855469 748.367188 133.59375 745.328125 128.714844 L 705.207031 128.714844 C 706.511719 138.765625 707.304688 143.734375 703.109375 151.914062 Z M 261.816406 147.695312 C 261.453125 141.730469 263.632812 133.226562 257.597656 132.933594 C 252.785156 135.925781 249.902344 150.347656 261.816406 147.695312 Z M 272.378906 145.589844 C 276.910156 141.089844 273.160156 134.097656 268.15625 132.933594 C 267.71875 138.992188 268.6875 143.644531 272.378906 145.589844 Z M 363.15625 145.589844 C 359.878906 145.5 367.710938 130.613281 356.820312 132.933594 C 351.046875 137.082031 356.515625 154.339844 363.167969 145.589844 Z M 371.601562 147.695312 C 374.738281 145.902344 376.144531 142.390625 375.824219 137.152344 C 372.8125 136.648438 372.261719 133.675781 369.492188 132.933594 C 365.359375 135.585938 364.144531 146.019531 371.589844 147.695312 Z M 244.925781 147.695312 C 246.800781 143.949219 250.824219 142.335938 249.148438 135.042969 L 242.8125 135.042969 C 241.898438 139.730469 237.964844 146.476562 244.925781 147.695312 Z M 278.707031 147.695312 C 285.960938 151.003906 288.726562 133.574219 280.816406 135.042969 C 278.386719 137.535156 278.429688 142.496094 278.707031 147.695312 Z M 346.265625 147.695312 C 352.675781 148.472656 350.644531 140.828125 352.597656 137.152344 C 349.902344 137.03125 349.671875 134.445312 346.265625 135.042969 Z M 384.269531 147.695312 C 388.933594 147.4375 385.164062 138.75 386.382812 135.042969 L 380.042969 135.042969 C 381.320312 139.390625 376.640625 149.695312 384.265625 147.695312 Z M 335.722656 147.695312 C 342.265625 148.511719 344.324219 137.539062 337.832031 137.152344 C 338.710938 142.234375 334.003906 141.738281 335.734375 147.695312 Z M 390.617188 147.695312 C 399.273438 149.878906 401.890625 135.191406 392.730469 137.152344 C 390.941406 139.597656 389.9375 142.804688 390.605469 147.695312 Z M 236.480469 147.695312 L 236.480469 139.261719 C 228.144531 137.800781 229.566406 148.144531 236.480469 147.695312 Z M 289.265625 141.367188 C 288.628906 146.925781 292.1875 148.292969 297.710938 147.695312 L 297.710938 139.261719 C 294.03125 139.097656 291.144531 139.730469 289.265625 141.367188 Z M 447.609375 147.695312 C 453.726562 149.390625 472.445312 153.515625 475.0625 145.589844 C 468.042969 143.648438 450.363281 143.445312 447.601562 147.695312 Z M 287.15625 154.023438 C 260.609375 154.023438 224.710938 152.054688 209.03125 158.246094 L 194.25 158.246094 C 186.421875 182.0625 191.417969 218.691406 190.027344 248.949219 C 216.992188 257.167969 246.632812 262.710938 270.265625 274.257812 C 273.527344 295.144531 260.214844 321.804688 276.601562 331.210938 C 281.152344 319.585938 276.894531 299.164062 280.820312 286.917969 C 306.511719 264.46875 346.570312 273.777344 384.28125 274.257812 C 461.902344 275.25 539.566406 278.476562 612.3125 278.476562 C 651.195312 278.476562 695.101562 272.621094 719.988281 297.460938 C 728.785156 379.890625 714.527344 494.679688 717.882812 571.675781 C 744.902344 581.960938 765.34375 596.695312 798.117188 596.984375 C 795.085938 440.273438 806.410156 317.855469 802.339844 162.476562 C 627.480469 160.660156 454.925781 154.03125 287.144531 154.03125 Z M 183.695312 168.789062 C 183.230469 167.148438 181.925781 166.339844 179.472656 166.679688 C 175.730469 177.003906 160.355469 175.710938 156.246094 185.664062 C 155.03125 202.03125 158.796875 223.371094 154.136719 236.292969 C 161.3125 241.773438 171.902344 243.855469 181.582031 246.839844 C 183.6875 211.859375 182.703125 204.675781 183.695312 168.789062 Z M 12.671875 219.410156 C 7.816406 348.921875 14.015625 533.34375 8.449219 681.355469 C 7.578125 704.503906 0.589844 729.378906 14.785156 738.308594 C 25.519531 729.84375 21.050781 713.792969 21.117188 702.449219 C 22.058594 527 24.496094 371.277344 21.117188 213.097656 L 14.785156 213.097656 C 14.664062 215.789062 12.078125 216.011719 12.671875 219.417969 Z M 29.566406 736.195312 C 104.410156 725.003906 187.464844 729.230469 255.484375 715.097656 C 260.296875 699.066406 258.878906 676.835938 257.597656 664.46875 C 254.789062 660.613281 248.160156 669.097656 242.8125 664.46875 C 236.863281 660.886719 241.683594 655.664062 236.480469 649.710938 C 231.175781 643.632812 223.714844 647.609375 221.703125 639.160156 C 217.996094 623.640625 230.324219 618.277344 240.703125 607.515625 C 251.378906 605.996094 255.910156 610.609375 259.707031 615.953125 C 258.164062 534.957031 262.082031 459.425781 261.816406 379.710938 C 255.882812 383.101562 248.160156 392.984375 238.59375 386.039062 C 235.011719 372.738281 227.378906 363.484375 223.8125 350.179688 C 231.503906 340.992188 229.207031 321.820312 244.925781 320.652344 C 248.878906 323.03125 255.097656 323.144531 253.375 331.195312 C 247.074219 331.667969 246.195312 323.414062 240.703125 329.085938 C 243.355469 342.285156 233.9375 343.425781 232.253906 352.292969 C 231.882812 359.699219 239.390625 359.230469 240.703125 364.949219 C 245.980469 366.707031 238.28125 381.433594 247.035156 379.710938 C 253.703125 380.746094 254.492188 375.910156 261.816406 377.605469 L 261.816406 276.355469 C 183.097656 258.25 106.332031 233.4375 33.789062 215.273438 C 30.386719 395.964844 30.296875 557.765625 29.566406 736.277344 Z M 504.628906 284.8125 C 446.441406 284.8125 371.097656 280.890625 327.273438 280.59375 C 284.5625 280.308594 284.417969 296.472656 282.929688 343.875 C 280.097656 433.972656 282.929688 532.980469 282.929688 620.195312 C 282.929688 659.585938 280.996094 694.441406 291.375 719.335938 C 345.726562 727.019531 403.46875 727.144531 458.175781 727.773438 C 509.957031 728.375 567.257812 727.042969 624.980469 727.773438 C 621.484375 712.121094 602.0625 717.457031 591.195312 717.226562 C 510.871094 715.554688 449.304688 715.117188 375.828125 715.117188 C 351.714844 715.117188 305.027344 719.484375 295.601562 706.683594 C 284.253906 691.277344 293.460938 632.953125 293.484375 607.539062 C 293.574219 529.648438 293.484375 478.761719 293.484375 396.609375 C 293.484375 368.742188 286.339844 310.644531 301.933594 297.46875 C 313.535156 287.667969 349.722656 291.992188 377.945312 293.25 C 494.070312 298.433594 590.042969 292.691406 690.421875 303.800781 C 706.457031 315.441406 705.617188 337.816406 705.199219 360.753906 C 704.199219 416.148438 701.523438 489.574219 700.976562 542.15625 C 700.878906 551.800781 692.75 568.441406 705.199219 573.796875 C 713.488281 550.234375 708.140625 522.785156 709.421875 493.640625 C 710.914062 459.792969 713.644531 422.648438 713.644531 388.175781 C 713.644531 352.960938 722.820312 315.566406 703.09375 293.257812 C 645.859375 283.105469 577.445312 284.773438 504.597656 284.773438 Z M 544.761719 305.910156 C 500.550781 303.902344 435.910156 301.753906 386.40625 299.578125 C 352.726562 298.101562 316.175781 297.011719 304.058594 305.910156 C 295.800781 396.46875 302.039062 511.796875 297.726562 599.105469 C 312.746094 586.019531 324.671875 577.039062 344.179688 578.011719 C 396.898438 580.632812 403.265625 672.894531 348.402344 679.261719 C 323.105469 682.195312 313.011719 669.320312 295.621094 660.277344 C 296.9375 677.230469 298.839844 693.613281 306.171875 704.574219 C 399.710938 713.472656 512.851562 704.984375 605.996094 710.902344 C 603.257812 700.390625 593.25 695.222656 593.324219 681.371094 C 593.386719 669.742188 598.519531 663.9375 605.996094 656.058594 C 589.285156 635.226562 597.703125 600.832031 622.882812 596.996094 C 638.890625 594.558594 647.925781 607.164062 665.113281 601.222656 C 671.71875 593.199219 651.503906 584.816406 660.886719 573.796875 C 671.792969 573.441406 684.722656 575.101562 692.5625 571.6875 C 689.613281 493.5625 701.007812 393.453125 692.5625 316.457031 C 649.699219 299.535156 599.058594 308.414062 544.769531 305.957031 Z M 276.601562 367.0625 C 280.84375 360.761719 277.792969 347.164062 278.707031 337.535156 L 270.261719 337.535156 C 272.378906 350.949219 262.242188 364.789062 276.601562 367.066406 Z M 268.15625 379.71875 C 272.773438 431.726562 265.824219 516.816406 268.15625 592.761719 C 268.4375 602.082031 263.109375 619.414062 276.601562 622.289062 C 276.246094 541.351562 277.085938 440.558594 276.601562 373.386719 L 270.261719 373.386719 C 270.148438 376.089844 267.554688 376.300781 268.15625 379.699219 Z M 671.433594 580.113281 C 672.617188 591.710938 710.949219 593.78125 711.554688 580.113281 C 701.863281 577.292969 680.902344 576.289062 671.425781 580.113281 Z M 301.9375 651.828125 C 329.878906 692.796875 400.808594 658.75 373.722656 603.316406 C 342.859375 572.300781 283.761719 597.945312 301.933594 651.8125 Z M 643.972656 620.207031 C 649.792969 612.328125 640.601562 604.859375 633.410156 603.335938 C 634.683594 611.226562 639.425781 615.59375 643.980469 620.207031 Z M 631.304688 634.953125 C 644.945312 630.679688 634.640625 604.429688 618.636719 609.648438 C 622.097656 618.871094 635.679688 617.933594 631.304688 634.957031 Z M 230.152344 639.171875 C 244.386719 639.015625 243.707031 653.757812 251.265625 660.273438 C 263 657.886719 261.25 630.917969 257.601562 620.191406 C 250.433594 628.566406 253.628906 608.828125 244.929688 611.757812 C 243.832031 624.75 226.9375 621.925781 230.152344 639.195312 Z M 648.195312 641.296875 C 647.597656 626.882812 665.253906 620.984375 662.972656 611.769531 C 648.9375 610.980469 633.960938 633.773438 648.179688 641.300781 Z M 658.765625 647.609375 C 656.332031 630.417969 672.007812 631.320312 675.652344 620.1875 C 661.253906 618.304688 643.269531 640.035156 658.761719 647.621094 Z M 263.933594 723.542969 C 242.796875 731.253906 209.34375 726.660156 187.921875 734.09375 C 188.015625 782.933594 188.554688 813.820312 190.027344 854.320312 C 361.238281 854.824219 524.957031 859.84375 686.207031 862.757812 C 661.863281 825.90625 648.554688 778.03125 631.3125 734.089844 C 528.730469 737.867188 408.484375 733.519531 291.375 731.980469 C 266.257812 716.285156 280.121094 661.664062 276.59375 624.40625 L 270.257812 624.40625 C 262.992188 654.816406 279.238281 695.664062 263.933594 723.585938 Z M 665.085938 645.515625 C 660.089844 667.078125 674.65625 684.605469 690.421875 696.144531 C 715.378906 692.246094 729.460938 677.492188 734.765625 653.957031 C 720.425781 633.105469 673.371094 609.675781 665.074219 645.519531 Z M 878.34375 664.484375 C 884.21875 665.742188 877.460938 646.640625 872.007812 645.5 C 866.90625 652.148438 878.902344 655.789062 878.355469 664.46875 Z M 696.769531 704.574219 C 696.984375 713.5 702.453125 717.175781 709.433594 719.339844 C 723.769531 709.414062 762.648438 687.351562 738.992188 666.605469 C 731.394531 685.785156 717.058594 698.167969 696.765625 704.601562 Z M 605.96875 683.484375 C 614.375 691.960938 622.34375 700.875 633.414062 706.691406 C 667.710938 694.671875 617.492188 649.664062 605.980469 683.472656 Z M 717.882812 727.761719 C 739.574219 744.84375 758.207031 718.34375 768.558594 704.558594 C 767.191406 696.082031 766.28125 687.144531 762.21875 681.351562 L 755.886719 681.351562 C 751.726562 705.359375 729.183594 710.972656 717.882812 727.785156 Z M 741.09375 742.542969 C 743.898438 744.65625 747.464844 746.015625 749.539062 748.867188 C 761.695312 742.039062 774.964844 736.3125 781.207031 723.554688 C 778.382812 721.453125 777.066406 717.855469 772.761719 717.230469 C 765.285156 728.703125 751.980469 734.410156 741.105469 742.542969 Z M 152.015625 734.105469 C 151.089844 763.664062 154.144531 805.203125 149.90625 824.808594 C 160.347656 831.949219 166.367188 843.519531 179.464844 848.007812 C 180.960938 806.914062 174.542969 772.210938 179.464844 734.109375 C 171.636719 728.34375 161.800781 735.171875 152.015625 734.109375 Z M 764.332031 753.074219 C 772.261719 756.601562 788.699219 752.746094 789.667969 742.527344 C 786.519531 740.054688 787.179688 733.757812 781.222656 734.089844 C 776.300781 741.160156 770.347656 747.171875 764.332031 753.089844 Z M 760.109375 782.601562 C 769.589844 781.570312 775.933594 783.675781 783.339844 784.710938 C 787.828125 778.652344 783.394531 763.671875 787.5625 757.289062 C 777.734375 756.617188 773.472656 761.5 764.332031 761.511719 C 757.714844 756.871094 746.621094 756.710938 734.777344 757.289062 C 727.609375 756.011719 730.808594 744.378906 722.105469 744.632812 L 717.882812 744.632812 C 724.960938 764.332031 749.660156 766.363281 760.109375 782.628906 Z M 760.109375 782.601562 "/>
<path style=" stroke:none;fill-rule:evenodd;fill:#fff;fill-opacity:1;" d="M 755.886719 210.96875 C 747.554688 217.125 737.882812 214.003906 732.660156 206.75 C 733.691406 191.042969 759.605469 189.96875 755.898438 210.96875 Z M 755.886719 210.96875 "/>
<path style=" stroke:none;fill-rule:evenodd;fill:#fff;fill-opacity:1;" d="M 679.878906 343.859375 C 688.335938 374.894531 679.117188 412.554688 677.773438 447.214844 C 676.257812 486.011719 682.199219 525.113281 673.550781 561.121094 C 627.644531 568.523438 566.957031 558.808594 521.527344 561.121094 C 511.90625 561.605469 503.332031 561.503906 496.191406 567.445312 C 496.917969 500.949219 501.007812 437.296875 502.523438 369.167969 C 502.699219 361.390625 498.636719 349.320312 506.746094 343.859375 C 561.734375 340.734375 635.734375 343.980469 679.875 343.859375 Z M 570.089844 352.296875 C 557.386719 348.503906 524.160156 358.332031 513.082031 354.40625 C 505.953125 369.082031 509.777344 394.695312 508.859375 415.574219 C 516.4375 417.320312 519.070312 410.820312 523.636719 415.574219 C 519.582031 426.988281 522.3125 445.1875 521.527344 459.867188 C 514.980469 460.585938 511.441406 454.988281 506.746094 459.867188 C 506.742188 491.507812 507.5 523.902344 504.632812 552.679688 L 574.316406 552.679688 C 580.445312 538.59375 586.238281 517.101562 582.761719 499.945312 L 559.535156 499.945312 C 542.375 474.921875 557.949219 448.4375 553.195312 407.136719 C 559.710938 400.867188 575.378906 402.671875 584.871094 405.027344 C 590.09375 380.351562 588.394531 357.773438 570.136719 352.3125 Z M 612.316406 352.296875 C 598.375 358.757812 605.195312 385.957031 601.761719 402.917969 C 608.269531 409.546875 625.011719 400.417969 629.203125 405.03125 C 627.417969 428.933594 633.667969 478.113281 624.988281 502.058594 L 601.761719 502.058594 C 600.386719 519.929688 597.101562 535.699219 603.867188 554.792969 C 625.488281 552.847656 649.085938 557.894531 665.097656 554.792969 C 675.417969 530.652344 664.546875 485.335938 671.429688 457.761719 C 669.964844 453.601562 659.652344 458.28125 658.765625 453.546875 C 660.550781 445.996094 657.640625 430.941406 658.765625 417.6875 C 661.460938 414.761719 668.734375 416.394531 671.429688 413.46875 C 673.289062 393.53125 667.128906 365.578125 675.652344 352.296875 C 653.871094 352.902344 630.449219 352.839844 612.34375 352.296875 Z M 561.644531 413.449219 C 558.136719 430.0625 560.035156 463.488281 559.535156 489.386719 C 564.699219 494.285156 577.382812 494.917969 584.871094 491.496094 C 582.875 465.753906 585.839844 436.359375 586.988281 413.449219 C 582.097656 410.171875 566.449219 410.171875 561.621094 413.449219 Z M 603.871094 413.449219 C 598.542969 440.175781 602.074219 463.886719 601.765625 493.601562 L 618.652344 493.601562 C 623.464844 471.6875 619.449219 440.957031 620.769531 415.558594 C 617.640625 412.28125 609.921875 413.707031 603.847656 413.433594 Z M 513.070312 449.320312 C 515.746094 444.441406 519.304688 420.664062 508.847656 421.898438 C 506.660156 427.269531 502.253906 450.214844 513.070312 449.332031 Z M 671.433594 447.195312 C 669.222656 439.5625 676.226562 422.726562 667.210938 421.886719 C 664.902344 426.800781 660.863281 448.472656 671.433594 447.195312 Z M 595.425781 489.414062 C 595.996094 486.539062 594.117188 481.175781 593.316406 485.195312 C 592.710938 488.046875 594.59375 493.417969 595.414062 489.414062 Z M 595.425781 512.597656 C 595.703125 509.835938 595.75 497.347656 593.316406 504.167969 C 593.015625 506.929688 592.953125 519.433594 595.414062 512.605469 Z M 595.425781 512.597656 "/>
<path style=" stroke:none;fill-rule:evenodd;fill:#fff;fill-opacity:1;" d="M 487.734375 343.859375 C 495.214844 357.132812 490.472656 371.699219 489.839844 386.042969 C 487.234375 445.386719 487.988281 509.308594 487.734375 559.007812 C 429.714844 563.195312 356.28125 561.667969 306.152344 556.902344 C 307.328125 485.660156 306.980469 412.890625 310.375 343.863281 C 311.921875 341.890625 314.214844 340.664062 316.710938 339.644531 C 365.984375 343.074219 433.273438 339.398438 487.710938 343.863281 Z M 318.828125 350.171875 C 312.890625 364.632812 320.398438 392.523438 314.601562 407.125 C 317.453125 411.3125 329.339844 406.460938 329.386719 413.453125 C 330.976562 426.292969 326.007812 432.582031 327.273438 445.089844 C 323.851562 448.707031 314.015625 445.910156 314.601562 453.53125 L 314.601562 548.445312 C 334.203125 544.082031 359.59375 554.539062 380.054688 548.445312 C 389.671875 536.953125 390.03125 516.222656 390.613281 495.714844 C 382.695312 490.972656 364.519531 496.472656 356.832031 491.496094 C 356.0625 461.554688 360.359375 426.578125 358.945312 402.902344 C 367.519531 396.957031 377.554688 404.527344 388.503906 402.902344 C 396.871094 380.875 382.636719 363.992188 375.832031 350.171875 C 357.390625 350.746094 330.539062 349.441406 318.8125 350.203125 Z M 401.152344 362.828125 C 399.578125 356.335938 406.949219 358.773438 405.375 352.277344 L 399.039062 352.277344 C 400.222656 355.371094 396.578125 363.203125 401.164062 362.839844 Z M 415.949219 354.390625 C 409.140625 365.871094 405.71875 380.734375 407.5 400.792969 C 416.6875 402.15625 431.367188 398.042969 437.058594 402.902344 C 435.664062 433.855469 440.613281 471.140625 432.832031 495.714844 C 423.191406 496.632812 409.589844 493.585938 403.277344 497.824219 C 404.511719 517.394531 403.699219 541.257812 418.054688 552.667969 L 477.179688 552.667969 C 482.492188 526.34375 476.457031 488.667969 481.394531 461.96875 C 477.730469 457.898438 466.738281 461.144531 466.621094 453.535156 L 466.621094 417.675781 C 469.699219 413.714844 480.4375 417.417969 483.515625 413.453125 C 482.253906 394.324219 486.125 370.0625 481.398438 354.394531 C 458.949219 351.332031 433.550781 353.878906 415.933594 354.425781 Z M 407.503906 409.261719 C 407.308594 444.625 405.507812 456.792969 405.394531 489.414062 C 410.949219 485.832031 423.480469 489.207031 428.617188 485.195312 C 428.015625 458.367188 425.460938 437.226562 428.617188 411.371094 C 422.875 409.519531 411.664062 406.148438 407.503906 409.277344 Z M 367.371094 411.355469 C 369.011719 438.308594 364.339844 458.957031 365.257812 485.183594 C 371.59375 487.988281 381.414062 487.328125 390.59375 487.292969 C 391.945312 464.996094 389.769531 436.996094 390.59375 409.246094 C 382.847656 409.914062 371.941406 407.425781 367.382812 411.339844 Z M 318.828125 436.664062 C 316.929688 430.828125 323.160156 416.863281 314.601562 417.683594 C 316.484375 423.507812 310.257812 437.46875 318.824219 436.652344 Z M 479.289062 447.195312 C 486.800781 444.613281 485.578125 421.789062 475.066406 423.992188 C 471.996094 429.152344 470.175781 447.605469 479.289062 447.210938 Z M 399.058594 525.253906 C 398.28125 519.582031 400.996094 499.578125 396.949219 504.160156 C 399.652344 513.414062 391.542969 523.917969 399.046875 525.253906 Z M 399.058594 525.253906 "/>
<path style=" stroke:none;fill-rule:evenodd;fill:#fff;fill-opacity:1;" d="M 240.699219 812.113281 C 238.292969 818.847656 232.289062 821.992188 223.808594 822.660156 C 205.394531 811.949219 236.574219 790.066406 240.699219 812.097656 Z M 240.699219 812.113281 "/>
</g>
</svg>
