<?xml version="1.0" encoding="utf-8"?>
<!-- Generator: Adobe Illustrator 26.1.0, SVG Export Plug-In . SVG Version: 6.00 Build 0)  -->
<svg version="1.1" id="Layer_1" xmlns="http://www.w3.org/2000/svg" xmlns:xlink="http://www.w3.org/1999/xlink" x="0px" y="0px"
	 viewBox="0 0 2000 974" style="enable-background:new 0 0 2000 974;" xml:space="preserve">
<style type="text/css">
	.st0{fill:#2583D1;stroke:#2583D1;}
	.st1{fill:#999999;stroke:#999999;}
	.st2{fill:#2583D1;}
</style>
<path class="st0" d="M891.9,129.9c-8.6,1.9-21.7,9.5-27.7,16.1c-2.8,3.1-6.8,8.9-8.9,13l-3.8,7.4l-0.4,82c-0.4,76.4-0.2,82.1,2,83.7
	c1.3,0.9,4.3,1.7,6.6,1.7c2.3,0,18.9,3.9,36.8,8.6c70.9,18.8,79.6,20.8,124.4,28.6c40.5,7.1,63.7,10.1,88.1,11.6
	c19.2,1.2,20.7,0.7,23.4-7.8c1.9-5.9,2.2-20.8,2.2-106.3c0-63.5-0.5-101.2-1.4-104.3c-2.5-8.4-11.9-20.2-20.8-26
	c-14.6-9.6-7.7-9-116.2-9.3C935.8,128.7,895.6,129.1,891.9,129.9"/>
<path class="st0" d="M890.2,20.2c-2.5,1.2-6,4.3-7.8,7c-3,4.5-3.2,6.8-3.9,32.1l-0.7,27.3l-4.9,1.1c-2.7,0.6-7.7,1.7-11.1,2.4
	c-7.6,1.5-27.2,12.6-36.6,20.6c-3.9,3.3-10.8,11.2-15.5,17.7c-8.1,11.2-12.7,22.6-16.6,40.7l-0.8,3.7h-26.1
	c-30.1,0-33.5,0.8-40.1,9.4c-7.4,9.7-5.6,20.4,4.8,29l5.1,4.2h28.2h28.2v21.3v21.3l-24.4,0c-13.4,0-26.9,0.7-30,1.5
	c-10,2.6-16.3,10.4-16.3,20.1c0,8.2,4,14.5,11.3,18c5.8,2.8,8,3,32.7,3h26.5l0.4,15l0.4,15l14.1,3c7.8,1.6,15.9,3,18,3l3.9,0.1l0-81
	c0-62.7,0.5-82.9,1.9-89.4c3.1-13.5,13.9-27.3,28.6-36.6c16.8-10.5,6.7-9.8,133.2-9.8h113.7l6.8,3c18.2,8,33.7,23.4,40.4,40.5
	c2.9,7.4,3,8.6,2.6,119l-0.4,111.5h18h18v-4v-4h28c26.8,0,28.3-0.1,32.7-3c7.7-5,10.5-9.5,10.5-17.4c0-8.7-4.6-16.4-11.4-19.1
	c-3.4-1.4-11.9-1.8-31.6-1.8h-26.9v-22v-22h24.5c13.5,0,26.6-0.4,29.1-0.9c2.5-0.5,7-3,9.9-5.7c10.9-9.8,8.1-26.5-5.7-33.6
	c-2.5-1.3-11.1-2-30.7-2.3l-27.2-0.5v-21.2v-21.2h27.6c32,0,33.4-0.4,39.4-10.7c4.9-8.5,4.4-15.1-1.7-23.2c-6-7.9-9.6-8.6-40-8.7
	l-26.3-0.1l-1.8-10.3c-2.4-13.5-5.3-20.3-13.8-32.4c-8.1-11.5-20.1-22.8-32.2-30.2c-12-7.4-15.9-8.8-34.8-13l-3.8-0.8l-0.5-28.6
	c-0.5-28.4-0.5-28.6-4-32.1c-5.9-5.9-10.8-7.7-20.1-7c-7.3,0.5-9,1.2-13.3,5.3c-6.5,6.1-7.4,10.8-7.5,38.7l-0.1,22.3h-22.6h-22.6
	V59.6c0-14.1-0.6-26.8-1.5-29c-0.8-2.1-4.3-5.9-7.8-8.4c-5.9-4.2-6.9-4.5-14.8-3.9c-6.8,0.5-9.5,1.4-13.8,4.6
	c-7.8,5.9-8.7,9.8-8.8,37.5l-0.1,24.3h-22.6h-22.6V59.5c0-14.3-0.6-26.8-1.5-28.9c-1.7-4.1-6.2-8.7-10.8-11
	C907,17.4,895.5,17.7,890.2,20.2"/>
<path class="st1" d="M572.8,351.5c57-33.3,126.9-35.1,191.9-32.9c100.8,3.5,177.7,28.3,264.8,49.5c60.1,14.6,147.4,24.8,177.6,25.6
	c30.1,0.8,86.4-1.6,136.2-15c24.4-6.6,69.6-29.1,69.6-29.1s-25.1,56.2-64.6,79.8c-33.3,19.9-72.2,33-111.3,37.5
	c-59.8,6.9-121.9-1.7-179.9-16.9c-44.9-11.8-87.1-28.2-144.6-49.6c-23.1-8.6-72.7-21.2-109.9-31.1
	C668,333.5,566.3,355.3,572.8,351.5z"/>
<path class="st1" d="M683,439.1c0,0,62-29.3,108.4-29.4c39.4,0,63.8,4.5,95.7,15.3c35.4,12,69.8,23.6,105.4,32.5
	c36.4,9,63.7,14.1,96.1,19c42.2,6.4,65.9,8.3,99.1,8.3c24.2,0,48.6-2.2,72.4-6.1c14.1-2.4,47-13.9,41.6-10.4
	c-24.4,15.8-51.8,27.2-79.6,36.8c-26.8,9.3-54.8,16.6-83.2,19.6c-31.5,3.4-63.7,2.6-95.2-1.5c-27.5-3.6-54.1-12.3-80.6-20.2
	c-35.5-10.6-66-26.6-104.9-36.5c-33.6-8.6-67.2-18.1-101.7-23C732.4,439.9,683,439.1,683,439.1z"/>
<path class="st2" d="M455.8,734.3c-9.3,4.6-27.8,9.3-51.5,9.3c-55,0-96.4-34.7-96.4-98.7c0-61.1,41.4-102.5,101.9-102.5
	c24.3,0,39.7,5.2,46.3,8.7l-6.1,20.6c-9.6-4.6-23.2-8.1-39.4-8.1c-45.7,0-76.1,29.2-76.1,80.5c0,47.8,27.5,78.4,75,78.4
	c15.3,0,31-3.2,41.1-8.1L455.8,734.3z"/>
<path class="st2" d="M487.4,548.2c12.7-2.6,31-4.1,48.3-4.1c26.9,0,44.3,4.9,56.4,15.9c9.8,8.7,15.3,22,15.3,37.1
	c0,25.8-16.2,42.8-36.8,49.8v0.9c15.1,5.2,24,19.1,28.7,39.4c6.4,27.2,11,46,15.1,53.6h-26.1c-3.2-5.5-7.5-22.3-13-46.6
	c-5.8-26.9-16.2-37.1-39.1-37.9h-23.7v84.5h-25.2V548.2z M512.6,637h25.8c26.9,0,44-14.8,44-37.1c0-25.2-18.2-36.2-44.9-36.5
	c-12.2,0-20.8,1.2-24.9,2.3V637z"/>
<path class="st2" d="M744.1,649.2h-75.8v70.3h84.5v21.1H643.1V545.6h105.4v21.1h-80.2v61.7h75.8V649.2z"/>
<path class="st2" d="M886.6,649.2h-75.8v70.3h84.5v21.1H785.5V545.6h105.4v21.1h-80.2v61.7h75.8V649.2z"/>
<path class="st2" d="M928,545.6h25.2v94.1h0.9c5.2-7.5,10.4-14.5,15.3-20.8l59.6-73.2h31.3l-70.6,82.8l76.1,112.3h-29.8l-64.3-95.8
	l-18.5,21.4v74.4H928V545.6z"/>
<path class="st2" d="M1132,740.7l-63.7-195.1h27.2l30.4,96.1c8.4,26.3,15.6,50.1,20.8,72.9h0.6c5.5-22.6,13.6-47.2,22.3-72.7
	l33-96.4h26.9l-69.8,195.1H1132z"/>
<path class="st2" d="M1275.9,545.6v195.1h-25.2V545.6H1275.9z"/>
<path class="st2" d="M1420.9,649.2h-75.8v70.3h84.5v21.1h-109.7V545.6h105.4v21.1h-80.2v61.7h75.8V649.2z"/>
<path class="st2" d="M1496.8,740.7l-49.5-195.1h26.6l23.2,98.7c5.8,24.3,11,48.6,14.5,67.4h0.6c3.2-19.4,9.3-42.6,15.9-67.7
	l26.1-98.4h26.3l23.7,99c5.5,23.2,10.7,46.3,13.6,66.9h0.6c4.1-21.4,9.6-43.1,15.6-67.4l25.8-98.4h25.8l-55.3,195.1h-26.3
	l-24.6-101.6c-6.1-24.9-10.1-44-12.7-63.7h-0.6c-3.5,19.4-7.8,38.5-15.1,63.7l-27.8,101.6H1496.8z"/>
<path class="st2" d="M856.7,867.6h-75.8v70.3h84.5v21.1H755.7V764h105.4v21.1h-80.2v61.7h75.8V867.6z"/>
<path class="st2" d="M1062.6,873.4c-1.4-27.2-3.2-59.9-2.9-84.2h-0.9c-6.7,22.9-14.8,47.2-24.6,74.1l-34.4,94.7h-19.1L949.1,865
	c-9.3-27.5-17.1-52.7-22.6-75.8h-0.6c-0.6,24.3-2,57-3.8,86.3l-5.2,83.7h-24L906.5,764h32.1l33.3,94.4c8.1,24,14.8,45.4,19.7,65.7
	h0.9c4.9-19.7,11.9-41.1,20.6-65.7l34.7-94.4h32.1l12.2,195.1h-24.6L1062.6,873.4z"/>
<path class="st2" d="M1127.4,928.4c11.3,6.9,27.8,12.7,45.2,12.7c25.8,0,40.8-13.6,40.8-33.3c0-18.2-10.4-28.7-36.8-38.8
	c-31.8-11.3-51.5-27.8-51.5-55.3c0-30.4,25.2-53,63.1-53c20,0,34.4,4.6,43.1,9.6l-6.9,20.6c-6.4-3.5-19.4-9.3-37.1-9.3
	c-26.6,0-36.8,15.9-36.8,29.2c0,18.2,11.9,27.2,38.8,37.6c33,12.7,49.8,28.7,49.8,57.3c0,30.1-22.3,56.2-68.3,56.2
	c-18.8,0-39.4-5.5-49.8-12.4L1127.4,928.4z"/>
</svg>
