<?xml version="1.0" encoding="UTF-8" standalone="no" ?>
<!DOCTYPE svg PUBLIC "-//W3C//DTD SVG 1.1//EN" "http://www.w3.org/Graphics/SVG/1.1/DTD/svg11.dtd">
<svg xmlns="http://www.w3.org/2000/svg" xmlns:xlink="http://www.w3.org/1999/xlink" version="1.1" width="1080" height="1080" viewBox="0 0 1080 1080" xml:space="preserve">
<desc>Created with Fabric.js 5.2.4</desc>
<defs>
</defs>
<g transform="matrix(1 0 0 1 540 540)" id="5e3bc5ae-b1a2-4110-9469-2bdcad4797b6"  >
<rect style="stroke: none; stroke-width: 1; stroke-dasharray: none; stroke-linecap: butt; stroke-dashoffset: 0; stroke-linejoin: miter; stroke-miterlimit: 4; fill: rgb(255,255,255); fill-rule: nonzero; opacity: 1; visibility: hidden;" vector-effect="non-scaling-stroke"  x="-540" y="-540" rx="0" ry="0" width="1080" height="1080" />
</g>
<g transform="matrix(1 0 0 1 540 540)" id="954bf5bd-7539-44d3-83f4-920fa45974c0"  >
</g>
<g transform="matrix(1.41 0 0 1.33 560.59 305.1)"  >
<path style="stroke: rgb(37,131,209); stroke-width: 1; stroke-dasharray: none; stroke-linecap: butt; stroke-dashoffset: 0; stroke-linejoin: miter; stroke-miterlimit: 4; fill: rgb(37,131,209); fill-rule: nonzero; opacity: 1;" vector-effect="non-scaling-stroke"  transform=" translate(-956.55, -277.66)" d="M 885.179 183.161 C 879.085 184.55 869.789 190.26 865.54 195.224 C 863.556 197.542 860.71 201.928 859.216 204.97 L 856.5 210.5 L 856.213 271.986 C 855.946 329.287 856.044 333.559 857.654 334.736 C 858.605 335.431 860.721 336 862.356 336 C 863.992 336 875.719 338.91 888.415 342.467 C 938.641 356.538 944.797 358.036 976.5 363.902 C 1005.141 369.201 1021.588 371.504 1038.893 372.638 C 1052.503 373.53 1053.581 373.151 1055.464 366.808 C 1056.786 362.359 1056.999 351.223 1056.994 287.068 C 1056.991 239.422 1056.62 211.173 1055.968 208.824 C 1054.228 202.56 1047.517 193.649 1041.276 189.317 C 1030.919 182.126 1035.808 182.541 959 182.349 C 916.293 182.242 887.834 182.555 885.179 183.161" stroke-linecap="round" />
</g>
<g transform="matrix(1.41 0 0 1.33 560.47 243.74)"  >
<path style="stroke: rgb(37,131,209); stroke-width: 0; stroke-dasharray: none; stroke-linecap: butt; stroke-dashoffset: 0; stroke-linejoin: miter; stroke-miterlimit: 4; fill: rgb(37,131,209); fill-rule: nonzero; opacity: 1;" vector-effect="non-scaling-stroke"  transform=" translate(-956.82, -232.02)" d="M 884.256 92.645 C 882.472 93.524 879.997 95.876 878.756 97.872 C 876.658 101.245 876.465 102.936 876 121.961 L 875.5 142.422 L 872 143.262 C 870.075 143.724 866.548 144.522 864.162 145.037 C 858.815 146.19 844.921 154.467 838.221 160.491 C 835.481 162.955 830.541 168.915 827.243 173.735 C 821.506 182.123 818.223 190.662 815.511 204.25 L 814.962 207 L 796.449 207 C 775.134 207 772.757 207.592 768.062 214.073 C 762.817 221.314 764.08 229.351 771.484 235.852 L 775.07 239 L 795.035 239 L 815 239 L 815 255 L 815 271 L 797.75 271.006 C 788.263 271.009 778.713 271.507 776.529 272.114 C 769.421 274.087 765 279.878 765 287.216 C 765 293.35 767.799 298.065 773.036 300.75 C 777.126 302.847 778.696 303 796.179 303 L 814.934 303 L 815.217 314.232 L 815.5 325.465 L 825.5 327.679 C 831 328.897 836.738 329.917 838.25 329.947 L 841 330 L 841.035 269.25 C 841.062 222.244 841.375 207.082 842.415 202.23 C 844.592 192.083 852.244 181.731 862.68 174.814 C 874.546 166.949 867.44 167.5 957 167.5 L 1037.5 167.5 L 1042.331 169.729 C 1055.252 175.693 1066.159 187.274 1070.949 200.118 C 1073.023 205.678 1073.042 206.584 1072.772 289.368 L 1072.5 373 L 1085.25 373 L 1098 373 L 1098 370 L 1098 367 L 1117.852 367 C 1136.793 367 1137.856 366.897 1141.01 364.75 C 1146.486 361.023 1148.429 357.603 1148.429 351.689 C 1148.429 345.171 1145.175 339.389 1140.38 337.385 C 1137.949 336.37 1131.987 336 1118.032 336 L 1099 336 L 1099 319.5 L 1099 303 L 1116.375 303 C 1125.931 303 1135.207 302.709 1136.988 302.352 C 1138.769 301.996 1141.931 300.083 1144.015 298.101 C 1151.737 290.755 1149.747 278.259 1140 272.895 C 1138.195 271.902 1132.15 271.422 1118.25 271.168 L 1099 270.816 L 1099 254.908 L 1099 239 L 1118.55 239 C 1141.242 239 1142.199 238.724 1146.416 230.977 C 1149.894 224.587 1149.547 219.655 1145.195 213.608 C 1140.958 207.721 1138.368 207.122 1116.891 207.056 L 1098.283 207 L 1096.991 199.25 C 1095.299 189.104 1093.273 184.063 1087.238 174.986 C 1081.515 166.377 1072.977 157.905 1064.436 152.359 C 1055.923 146.831 1053.166 145.741 1039.821 142.623 L 1037.142 141.998 L 1036.821 120.577 C 1036.502 99.311 1036.482 99.138 1034 96.483 C 1029.847 92.042 1026.328 90.736 1019.789 91.209 C 1014.647 91.581 1013.446 92.087 1010.337 95.196 C 1005.73 99.804 1005.098 103.27 1005.044 124.25 L 1005 141 L 989 141 L 973 141 L 973 122.149 C 973 111.609 972.541 102.02 971.959 100.399 C 971.386 98.805 968.909 95.984 966.455 94.13 C 962.307 90.998 961.57 90.791 956.011 91.193 C 951.228 91.539 949.277 92.233 946.265 94.658 C 940.766 99.086 940.121 102.005 940.056 122.75 L 940 141 L 924 141 L 908 141 L 908 122.065 C 908 111.333 907.548 101.941 906.956 100.385 C 905.787 97.309 902.599 93.872 899.316 92.147 C 896.188 90.504 888.053 90.773 884.256 92.645" stroke-linecap="round" />
</g>
<g transform="matrix(1.41 0 0 1.33 494.29 444.84)"  >
<path style="stroke: rgb(153,153,153); stroke-width: 1; stroke-dasharray: none; stroke-linecap: butt; stroke-dashoffset: 0; stroke-linejoin: miter; stroke-miterlimit: 4; fill: rgb(153,153,153); fill-rule: nonzero; opacity: 1;" vector-effect="non-scaling-stroke"  transform=" translate(-909.61, -382.46)" d="M 612.322 350.823 C 652.698 325.877 702.18 324.499 748.171 326.187 C 819.547 328.807 873.966 347.405 935.659 363.304 C 978.189 374.265 1040.053 381.923 1061.399 382.498 C 1082.745 383.073 1122.586 381.296 1157.831 371.236 C 1175.104 366.306 1207.102 349.415 1207.102 349.415 C 1207.102 349.415 1189.298 391.568 1161.35 409.245 C 1137.767 424.161 1110.212 434.006 1082.515 437.401 C 1040.155 442.593 996.233 436.154 955.113 424.731 C 923.353 415.908 893.414 403.612 852.732 387.548 C 836.383 381.092 801.24 371.624 774.919 364.197 C 679.751 337.342 607.734 353.658 612.322 350.823 Z" stroke-linecap="round" />
</g>
<g transform="matrix(1.41 0 0 1.33 511.37 540)"  >
<path style="stroke: rgb(153,153,153); stroke-width: 1; stroke-dasharray: none; stroke-linecap: butt; stroke-dashoffset: 0; stroke-linejoin: miter; stroke-miterlimit: 4; fill: rgb(153,153,153); fill-rule: nonzero; opacity: 1;" vector-effect="non-scaling-stroke"  transform=" translate(-921.7, -441.34)" d="M 702.437 419.483 C 702.437 419.483 746.306 397.481 779.218 397.447 C 807.095 397.418 824.377 400.821 846.959 408.94 C 872.02 417.951 896.395 426.653 921.605 433.281 C 947.363 440.053 966.721 443.88 989.678 447.54 C 1019.554 452.303 1036.348 453.762 1059.82 453.749 C 1076.984 453.739 1094.202 452.13 1111.105 449.15 C 1121.103 447.387 1144.348 438.719 1140.542 441.331 C 1123.298 453.163 1103.842 461.753 1084.198 468.928 C 1065.197 475.868 1045.421 481.346 1025.324 483.646 C 1003.005 486.2 980.19 485.599 957.941 482.496 C 938.456 479.778 919.662 473.255 900.906 467.318 C 875.748 459.355 854.179 447.37 826.624 439.951 C 802.799 433.536 779.044 426.35 754.642 422.702 C 737.399 420.124 702.437 419.483 702.437 419.483 Z" stroke-linecap="round" />
</g>
<g transform="matrix(1.95 0 0 2.84 556.67 834.83)" style="filter: url(#SVGID_40);" id="a3e4beee-bdca-4462-a458-4a990436e079"  >
<filter id="SVGID_40" y="-23%" height="146%" x="-21%" width="142%" >
	<feGaussianBlur in="SourceAlpha" stdDeviation="0"></feGaussianBlur>
	<feOffset dx="5" dy="5" result="oBlur" ></feOffset>
	<feFlood flood-color="rgb(0,0,0)" flood-opacity="1"/>
	<feComposite in2="oBlur" operator="in" />
	<feMerge>
		<feMergeNode></feMergeNode>
		<feMergeNode in="SourceGraphic"></feMergeNode>
	</feMerge>
</filter>
		<text xml:space="preserve" font-family="Raleway" font-size="73" font-style="normal" font-weight="900" style="stroke: none; stroke-width: 1; stroke-dasharray: none; stroke-linecap: butt; stroke-dashoffset: 0; stroke-linejoin: miter; stroke-miterlimit: 4; fill: rgb(37,131,209); fill-rule: nonzero; opacity: 1; white-space: pre;" ><tspan x="-215.09" y="-18.31" >CREEKVIEW</tspan><tspan x="-75.48" y="64.18" >EMS</tspan></text>
</g>
</svg>