<?xml version="1.0" encoding="utf-8"?>
<!-- Generator: Adobe Illustrator 19.0.0, SVG Export Plug-In . SVG Version: 6.00 Build 0)  -->
<svg version="1.1"
	 id="svg11269" xmlns:inkscape="http://www.inkscape.org/namespaces/inkscape" xmlns:rdf="http://www.w3.org/1999/02/22-rdf-syntax-ns#" xmlns:svg="http://www.w3.org/2000/svg" xmlns:sodipodi="http://sodipodi.sourceforge.net/DTD/sodipodi-0.dtd" xmlns:cc="http://creativecommons.org/ns#" xmlns:dc="http://purl.org/dc/elements/1.1/" sodipodi:docname="halftone-vector [Converted].svg" inkscape:version="0.92.4 (5da689c313, 2019-01-14)"
	 xmlns="http://www.w3.org/2000/svg" xmlns:xlink="http://www.w3.org/1999/xlink" x="0px" y="0px" viewBox="102 -132 816 1056"
	 style="enable-background:new 102 -132 816 1056;" xml:space="preserve">
<style type="text/css">
	.st0{clip-path:url(#SVGID_2_);}
	.st1{fill:#231F20;}
</style>
<sodipodi:namedview  id="namedview11271" inkscape:cy="530.23729" inkscape:zoom="0.68995868" showgrid="false" guidetolerance="10" gridtolerance="10" borderopacity="1" objecttolerance="10" bordercolor="#666666" pagecolor="#ffffff" inkscape:cx="373.93544" inkscape:pageopacity="0" inkscape:pageshadow="2" inkscape:window-width="1920" inkscape:window-height="1018" inkscape:window-x="-8" inkscape:window-y="-8" inkscape:window-maximized="1" inkscape:current-layer="g11277">
	</sodipodi:namedview>
<g id="g11277" transform="matrix(1.3333333,0,0,-1.3333333,0,1056)" inkscape:label="halftone-vector [Converted]" inkscape:groupmode="layer">
	<g id="g11279">
		<g>
			<defs>
				<polygon id="SVGID_1_" points="797.9,101.4 80.7,96.6 73.4,888.6 790.6,893.4 				"/>
			</defs>
			<clipPath id="SVGID_2_">
				<use xlink:href="#SVGID_1_"  style="overflow:visible;"/>
			</clipPath>
			<g id="g11281" class="st0">
				<path id="path11287" inkscape:connector-curvature="0" class="st1" d="M535.2,762.4c1.5,2.6,2.9-2.2,0.9-2.9
					C535.6,759.8,535,761.6,535.2,762.4"/>
				<path id="path11289" inkscape:connector-curvature="0" class="st1" d="M571.1,459.9c0.8,2.9,0.6-3-0.1-2.4
					C571,458.1,571,459.1,571.1,459.9"/>
				<path id="path11291" inkscape:connector-curvature="0" class="st1" d="M559,242.4c0-3.8,0.9,0.6,0.3,1.4
					C559,244.1,559,243.1,559,242.4"/>
				<path id="path11293" inkscape:connector-curvature="0" class="st1" d="M545.4,717.3c1.3-3.3,0.4-6-0.9-6.3
					C541.8,710.4,542.3,720.4,545.4,717.3"/>
				<path id="path11295" inkscape:connector-curvature="0" class="st1" d="M569.7,427.4c-0.1-1.9-0.3-2.2-0.4-2.5
					c-0.4-0.7-0.3,4.2,0.3,4.4C569.8,429.3,569.8,428.5,569.7,427.4"/>
				<path id="path11297" inkscape:connector-curvature="0" class="st1" d="M567.7,395.5c-0.5-5.6-0.7,1-0.1,2.3
					C567.8,398.2,567.9,397.6,567.7,395.5"/>
				<path id="path11299" inkscape:connector-curvature="0" class="st1" d="M552.3,670.9c0-6.9-5.6-1.4-2.7,2.8
					C550.8,675.5,552.2,674.7,552.3,670.9"/>
				<path id="path11301" inkscape:connector-curvature="0" class="st1" d="M559.5,212.9c-0.3-1.3,0-3.3,0.4-3.1
					C560.3,210.1,560.1,213.7,559.5,212.9"/>
				<path id="path11303" inkscape:connector-curvature="0" class="st1" d="M565.8,365c-0.1-2-0.2-2.5-0.2-2.8c-0.2-1.2,0,4.1,0.2,5
					C566,367.6,565.9,366.5,565.8,365"/>
				<path id="path11305" inkscape:connector-curvature="0" class="st1" d="M557.1,630.8c0.2-5.2-2.9-5.3-3.5-2
					C552.9,633.1,556.9,638.1,557.1,630.8"/>
				<path id="path11307" inkscape:connector-curvature="0" class="st1" d="M564.2,334c-0.2-4.4-0.1-3.7,0.1,0.3
					c0.1,4.1,0.1,2.8,0,1.5C564.3,335.2,564.3,334.9,564.2,334"/>
				<path id="path11309" inkscape:connector-curvature="0" class="st1" d="M561.4,182.3c-0.8-3.9,1.6-4.7,0.5-0.3
					C561.7,182.1,561.5,182.2,561.4,182.3"/>
				<path id="path11311" inkscape:connector-curvature="0" class="st1" d="M560.5,593.2c0.1-2.4-0.2-3.8-1-4.7
					c-2.8-3.4-3.5,7.3-0.6,8.2C559.6,596.9,560.4,596,560.5,593.2"/>
				<path id="path11313" inkscape:connector-curvature="0" class="st1" d="M477,850.6c1.4-3.3,1.3-6.2,0.6-7.5
					c-4.6-8.5-12.6,7.8-5.8,11.4C473.2,855.3,475.4,854.4,477,850.6"/>
				<path id="path11315" inkscape:connector-curvature="0" class="st1" d="M562.8,556c-0.1-4.7-2.7-6-3.2-1.9
					C559,559.2,562.9,563.5,562.8,556"/>
				<path id="path11317" inkscape:connector-curvature="0" class="st1" d="M563.1,303.5c-0.1-4.5,0.3-4.1,0.4,0
					C563.6,307.2,563.2,308.6,563.1,303.5"/>
				<path id="path11319" inkscape:connector-curvature="0" class="st1" d="M564.2,522c0-5.4-2.5-7-2.9-2.8
					C560.7,524.4,564.2,529.3,564.2,522"/>
				<path id="path11321" inkscape:connector-curvature="0" class="st1" d="M564.8,150.7c-0.3-1.2,0.2-3.1,0.6-3
					C566,147.8,565.5,151.3,564.8,150.7"/>
				<path id="path11323" inkscape:connector-curvature="0" class="st1" d="M495.3,796.4c0.8-2.7,0.5-5.5-0.1-6.6
					c-4-7.3-11.4,3-8.2,9.7C489,803.8,493.3,803.7,495.3,796.4"/>
				<path id="path11325" inkscape:connector-curvature="0" class="st1" d="M562.7,273.2c0.1-4.3,0.8-4.6,0.8-0.6
					C563.5,277,562.6,279.6,562.7,273.2"/>
				<path id="path11327" inkscape:connector-curvature="0" class="st1" d="M565,489c0.1-6.7-2.7-7.9-2.7-1.6
					C562.3,491.9,564.9,494.7,565,489"/>
				<path id="path11329" inkscape:connector-curvature="0" class="st1" d="M565.2,455.7c-0.2-5.3-1.9-7.5-2.3-2.7
					C562.5,459.4,565.5,463.7,565.2,455.7"/>
				<path id="path11331" inkscape:connector-curvature="0" class="st1" d="M509.4,748.2c1.1-3.9,0.8-7.2-1.7-9.3
					c-4.5-3.6-9.6,7.8-5.5,12.9C504.8,755,507.9,753.9,509.4,748.2"/>
				<path id="path11333" inkscape:connector-curvature="0" class="st1" d="M563,243.2c0.2-4.8,1.5-5.5,1.3-0.8
					C564.3,247.2,562.8,249.5,563,243.2"/>
				<path id="path11335" inkscape:connector-curvature="0" class="st1" d="M565,424.8c-0.1-6.9-1.8-7.8-1.8-1.6
					C563.2,428.5,565.1,431,565,424.8"/>
				<path id="path11337" inkscape:connector-curvature="0" class="st1" d="M520.9,703.1c2-8.7-5.1-13.3-7.8-5.7
					C510.2,705.7,518.4,714.4,520.9,703.1"/>
				<path id="path11339" inkscape:connector-curvature="0" class="st1" d="M564.5,213c0.3-4.7,1.8-6.2,1.9-2.4
					C566.5,216.7,564.1,219.8,564.5,213"/>
				<path id="path11341" inkscape:connector-curvature="0" class="st1" d="M564.7,394.1c0-2.6-0.2-4.7-0.4-5.5
					c-0.8-3.7-1.2,2.8-0.8,6.6C563.9,399.5,564.7,398.7,564.7,394.1"/>
				<path id="path11343" inkscape:connector-curvature="0" class="st1" d="M530.2,662.3c1.3-5.1,0.3-8.5-1.9-10.2
					c-4.7-3.7-9,9.8-3.8,14.2C526.9,668.4,529.2,666.3,530.2,662.3"/>
				<path id="path11345" inkscape:connector-curvature="0" class="st1" d="M564.3,362.3c-0.1-5.6-0.6-6.8-0.7-2.3
					c-0.2,5.5,0.6,10.5,0.8,5.4C564.3,364.4,564.4,363.1,564.3,362.3"/>
				<path id="path11347" inkscape:connector-curvature="0" class="st1" d="M567.4,182.4c0.2-2,0.7-3.5,1-3.9c2.3-3.3,1.3,7.6-0.4,8
					C567.4,186.7,567.1,185.4,567.4,182.4"/>
				<path id="path11349" inkscape:connector-curvature="0" class="st1" d="M537.9,622.1c0.6-3.8,0.1-6.9-1.9-8.8
					c-5.5-5.3-8.5,13.6-2.2,14.5C535.3,628,537.2,626.9,537.9,622.1"/>
				<path id="path11351" inkscape:connector-curvature="0" class="st1" d="M564.2,332.6c0-7.7-0.1-7.4-0.2,0
					C563.9,338.5,564.2,340.4,564.2,332.6"/>
				<path id="path11353" inkscape:connector-curvature="0" class="st1" d="M417.1,882.4c5.2-11.9-5.4-18.6-11.8-10.7
					C395.5,883.8,407.9,901.4,417.1,882.4"/>
				<path id="path11355" inkscape:connector-curvature="0" class="st1" d="M544,584.5c0.7-7.4-4.1-12.3-6.3-6.6
					C534,587.8,542.8,597.3,544,584.5"/>
				<path id="path11357" inkscape:connector-curvature="0" class="st1" d="M564.4,302.9c0.1-7.4,0.7-8.2,0.5-1.4
					C564.7,308.2,564.3,311.2,564.4,302.9"/>
				<path id="path11359" inkscape:connector-curvature="0" class="st1" d="M548.8,549.9c0.9-9.1-4.6-12.9-6.2-5.2
					C540.7,553.4,547.6,561.2,548.8,549.9"/>
				<path id="path11361" inkscape:connector-curvature="0" class="st1" d="M572,151.6c0.3-2,0.8-3.1,1.1-3.4
					c2.3-2.6,1.3,7.6-0.8,7.2C571.7,155.3,571.6,153.6,572,151.6"/>
				<path id="path11363" inkscape:connector-curvature="0" class="st1" d="M442.1,828c5.2-12.5-6.4-20.8-13.2-9.7
					C420.6,831.9,435.3,844.3,442.1,828"/>
				<path id="path11365" inkscape:connector-curvature="0" class="st1" d="M565.2,274c0.1-4,0.5-6.6,0.9-7.4
					c0.9-1.9,0.3,9.3-0.4,11.7C565.3,279.6,565.1,277.4,565.2,274"/>
				<path id="path11367" inkscape:connector-curvature="0" class="st1" d="M552.5,515.9c0.5-7.8-3.9-13.2-5.4-5.2
					C545.2,520,551.7,527,552.5,515.9"/>
				<path id="path11369" inkscape:connector-curvature="0" class="st1" d="M555.3,483.9c0.3-3.7-0.2-6.4-0.6-7.8
					c-2.6-7.8-5.8,4.5-3.7,10.6C552.7,491.8,554.9,488.7,555.3,483.9"/>
				<path id="path11371" inkscape:connector-curvature="0" class="st1" d="M462.6,778.9c2.6-5.8,1.9-10.7,0.3-13.3
					c-7.6-11.9-22.5,10.3-12.1,19C454.7,787.9,459.7,785.4,462.6,778.9"/>
				<path id="path11373" inkscape:connector-curvature="0" class="st1" d="M566.9,243c0.3-3.8,1.1-7.2,1.8-6.6c0.8,0.8,0,9.4-0.9,12
					C566.9,250.8,566.5,247.8,566.9,243"/>
				<path id="path11375" inkscape:connector-curvature="0" class="st1" d="M578.4,120.7c0.4-2.1,1-2.7,1.3-2.9
					c1.9-1.3,0.8,5.5-0.8,5.9C578.2,123.9,578.1,122.5,578.4,120.7"/>
				<path id="path11377" inkscape:connector-curvature="0" class="st1" d="M557.6,450.8c0.1-3.1-0.3-6.3-1.3-7.8
					c-2.2-3.4-4.3,9.1-1.8,13.7C556,459.2,557.5,456.3,557.6,450.8"/>
				<path id="path11379" inkscape:connector-curvature="0" class="st1" d="M480.5,731.7c5.3-15.7-11.5-21.6-15-4.9
					C462.7,739.5,475.9,745.2,480.5,731.7"/>
				<path id="path11381" inkscape:connector-curvature="0" class="st1" d="M559.4,420.5c0.1-3.9-0.2-7.1-1-8.6
					c-2.2-3.9-3.4,12.6-0.9,14.9C558.4,427.6,559.2,424.8,559.4,420.5"/>
				<path id="path11383" inkscape:connector-curvature="0" class="st1" d="M569.5,213.6c0.4-3.8,1.4-7.6,2.5-7.2
					c1.5,0.6-0.5,13.6-2,12.9C569.5,219.2,569.2,217.6,569.5,213.6"/>
				<path id="path11385" inkscape:connector-curvature="0" class="st1" d="M560.8,390.4c0.3-7.4-1-12.4-2-7.2
					c-1,5.2-0.5,12.8,0.7,13.2C560.1,396.7,560.6,394.2,560.8,390.4"/>
				<path id="path11387" inkscape:connector-curvature="0" class="st1" d="M495.2,688.3c1.2-4.7,0.8-10.1-2.5-13.1
					c-7.4-6.8-17.5,12.3-9,20.2C487.6,699,493.2,695.9,495.2,688.3"/>
				<path id="path11389" inkscape:connector-curvature="0" class="st1" d="M562.1,359.8c0.1-1.5,0.1-3,0.1-4.2
					c-0.1-5.7-1-6.2-1.6,1.3C559.8,366.6,561.7,371,562.1,359.8"/>
				<path id="path11391" inkscape:connector-curvature="0" class="st1" d="M573.5,183.9c0.5-3.7,1.4-6.5,2.6-7.2
					c2.4-1.4,0.7,9.9-1.3,12.2C573.6,190.3,573,188.1,573.5,183.9"/>
				<path id="path11393" inkscape:connector-curvature="0" class="st1" d="M507.3,649.3c1.2-4.2,0.6-8.8-0.2-10.7
					c-5-12.4-17.6,2.4-12.5,13.9C497.8,659.8,504.9,657.7,507.3,649.3"/>
				<path id="path11395" inkscape:connector-curvature="0" class="st1" d="M563.5,330.5c0.3-5.2,0.4-9.4,0.2-9.2
					c-0.3,0.3-1.5,12.7-1,15.6C563,338.3,563.3,335.7,563.5,330.5"/>
				<path id="path11397" inkscape:connector-curvature="0" class="st1" d="M517.1,613c2.1-6.7,0.8-12.7-2.3-15.4
					c-7.4-6.5-14.9,15.6-6,21.2C512.3,620.9,515.8,617.3,517.1,613"/>
				<path id="path11399" inkscape:connector-curvature="0" class="st1" d="M565.3,300.6c0.6-8.4,1.4-12.4,0.6-4.9
					c-0.3,2.9-0.8,7.7-1,10.6C564.6,310.9,564.9,306.2,565.3,300.6"/>
				<path id="path11401" inkscape:connector-curvature="0" class="st1" d="M378.1,856.9c4.4-7.3,4.8-13.5,0.6-18.7
					c-5.2-6.3-15.4-3.4-21,7.1c-3.6,6.9-2.5,15.7,2.4,19.4C365.1,868.5,373.1,865.1,378.1,856.9"/>
				<path id="path11403" inkscape:connector-curvature="0" class="st1" d="M526.4,574.7c2.3-13.8-9.9-19.5-11.8-3.8
					C512.9,583.9,524,588.5,526.4,574.7"/>
				<path id="path11405" inkscape:connector-curvature="0" class="st1" d="M579.1,153.8c1.3-8,5.4-9,3.8-1.3
					C581.6,159.3,578,160.9,579.1,153.8"/>
				<path id="path11407" inkscape:connector-curvature="0" class="st1" d="M533.2,542.5c1.3-5.7,0.7-10.8-1.8-13.7
					c-5.3-6.3-11.3,8.6-7.1,17C527.3,551.7,531.7,549,533.2,542.5"/>
				<path id="path11409" inkscape:connector-curvature="0" class="st1" d="M567.6,271.2c0.3-3.8,1-7.8,1.5-8.8
					c0.8-1.4,0,6.3-0.8,11.6c-1,6.8-1.3,5.7-1.1,1.5C567.3,274.5,567.5,271.9,567.6,271.2"/>
				<path id="path11411" inkscape:connector-curvature="0" class="st1" d="M405.8,806.5c6.1-10.1,4.1-18.3-1.8-22.2
					c-9.5-6.4-22.9,9.9-20.2,21.9C386.7,818.7,400.1,815.9,405.8,806.5"/>
				<path id="path11413" inkscape:connector-curvature="0" class="st1" d="M539.6,507.6c0.5-4.2-0.3-8-0.6-8.9
					c-1.1-3.2-2.4-3.7-3.2-3.9c-4.3-0.8-7.4,13.5-3.9,19.1c1.8,2.9,4.3,2.2,5.1,1.3C538.1,514,539.2,511.2,539.6,507.6"/>
				<path id="path11415" inkscape:connector-curvature="0" class="st1" d="M570.5,241.8c1.2-9.8,3.9-12.4,2.6-3.1
					C571.7,250,569,254.6,570.5,241.8"/>
				<path id="path11417" inkscape:connector-curvature="0" class="st1" d="M544.6,477.1c0.8-5.8,0-11.3-2.3-13.3
					c-2.4-2.1-5.6,3.3-5.7,10.5C536.4,484.6,543,488.5,544.6,477.1"/>
				<path id="path11419" inkscape:connector-curvature="0" class="st1" d="M587.1,122c1.8-5.9,4.9-4.9,3.3,0.9
					C588.9,128.3,585,129.2,587.1,122"/>
				<path id="path11421" inkscape:connector-curvature="0" class="st1" d="M430.3,758.2c1.3-2.7,2.1-5.9,2.3-8
					c0.6-9-7.3-18.4-16.6-11.9c-10,7-12.1,25.1-0.8,29.1C420.3,769.2,426.7,765.7,430.3,758.2"/>
				<path id="path11423" inkscape:connector-curvature="0" class="st1" d="M548.9,446.2c0.4-3,0.4-4.6,0.2-6.5
					c-0.6-7.5-4.2-9.3-6.1-1.9c-1.2,4.9-1.3,12,1,14.9C546.1,455.1,548.3,451.7,548.9,446.2"/>
				<path id="path11425" inkscape:connector-curvature="0" class="st1" d="M574.4,213.4c0.6-4,1.6-7.5,2.5-9
					c3.4-5.2,0.9,11.7-1.7,15.6C574.2,221.7,573.6,219,574.4,213.4"/>
				<path id="path11427" inkscape:connector-curvature="0" class="st1" d="M552.8,415.1c0.4-4.5,0.2-8.7-0.8-11
					c-2.4-5.9-6.4,8.8-4.2,16.4C549.3,425.2,552.1,423.3,552.8,415.1"/>
				<path id="path11429" inkscape:connector-curvature="0" class="st1" d="M450.8,713.6c1.6-3.8,1.9-7.3,1.7-9.9
					c-0.2-2.1-0.8-6.3-4.6-9.2c-5.8-4.5-15.2,1-18.2,10.2C424,722.1,443,732.3,450.8,713.6"/>
				<path id="path11431" inkscape:connector-curvature="0" class="st1" d="M556.1,385.3c0.4-4.6,0.3-8.6-0.3-10.7
					c-1.6-5.7-5.4,9-3.6,16.6C553.5,396.2,555.5,392.6,556.1,385.3"/>
				<path id="path11433" inkscape:connector-curvature="0" class="st1" d="M467.2,675.2c3.2-6.5,2.7-13.6,0.8-17.4
					c-4.8-9.6-14.6-4.3-18.2,2.2c-4.4,7.8-2.9,18.1,3.3,22C457.9,684.9,464.1,681.6,467.2,675.2"/>
				<path id="path11435" inkscape:connector-curvature="0" class="st1" d="M559.3,355.7c0.2-2.3,0.3-4.2,0.3-5.6
					c0-2,0.1-4.3-0.4-5.8c-0.7-2.2-2,2.6-2.7,7.7c-0.9,6.1-0.4,12.8,0.8,12.3C557.9,364,558.7,361.3,559.3,355.7"/>
				<path id="path11437" inkscape:connector-curvature="0" class="st1" d="M579.7,183.3c0-0.1,0-0.3,0.1-0.4
					c1.8-9.1,6.1-11.6,4.9-3.4c-0.5,3.4-2.1,8.7-3.6,10.6C579,193.1,578.8,188.3,579.7,183.3"/>
				<path id="path11439" inkscape:connector-curvature="0" class="st1" d="M562.3,326.7c0.4-3.7,0.6-6.9,0.7-8.4
					c0.2-3.1,0-4.3-0.5-2.7c-1.1,3.5-2.9,16.2-2.1,19.2C560.8,336.3,561.7,333,562.3,326.7"/>
				<path id="path11441" inkscape:connector-curvature="0" class="st1" d="M483.2,634.6c2.3-6.8,1.7-14.6-3.7-18.5
					c-5.4-4-13.8,1.6-15.8,11.8C460.9,642.5,477,653,483.2,634.6"/>
				<path id="path11443" inkscape:connector-curvature="0" class="st1" d="M292.6,890.1c3.7-1,7.6-3.7,11.4-8.6
					c0.2-0.3,0.5-0.5,0.7-0.8c14.6-19-5.2-36.3-21.1-19.8c-11.5,11.9-7.2,26.2,1.9,29.1L292.6,890.1z"/>
				<path id="path11445" inkscape:connector-curvature="0" class="st1" d="M565.7,297.7c0.6-4.7,1.3-10.2,1.5-11.5
					c0.1-1-0.4,1.9-1.3,7c-0.9,5.2-1.7,11.6-1.6,13C564.4,307.3,564.9,303.9,565.7,297.7"/>
				<path id="path11447" inkscape:connector-curvature="0" class="st1" d="M496.1,598.2c1.4-4.7,0.9-9.8,0-12.3
					c-1-2.9-4.2-6.3-6.2-6.7c-9.5-1.8-17.3,18.4-8.3,27C486.6,610.9,493.4,607.5,496.1,598.2"/>
				<path id="path11449" inkscape:connector-curvature="0" class="st1" d="M586.7,153.8c0.9-3.9,2.4-7.1,3.9-8
					c3.7-2.2,0.8,12-2.9,14.6C585.9,161.7,585.7,158,586.7,153.8"/>
				<path id="path11451" inkscape:connector-curvature="0" class="st1" d="M506.8,565.1c2-6.2,1.5-12.7-1.1-16.4
					c-4.2-5.9-10.3-3.1-13.4,4c-3.2,7.5-1.8,19.9,5.7,20.9C501.3,574,504.9,571,506.8,565.1"/>
				<path id="path11453" inkscape:connector-curvature="0" class="st1" d="M569.3,270c1.8-13.4,4.2-17.9,1.7-5.1
					c-1.1,5.7-2.2,11.7-2.5,12.8C568.2,278.6,568.6,275.1,569.3,270"/>
				<path id="path11455" inkscape:connector-curvature="0" class="st1" d="M340.3,828.8c3.8-5.4,5.2-12,4.8-15.6
					c-1.1-10.5-12.2-14.8-21-10c-10.4,5.7-16.3,20.8-11,29.8C319.1,842.9,332.3,840.3,340.3,828.8"/>
				<path id="path11457" inkscape:connector-curvature="0" class="st1" d="M516.5,532.3c2.1-6.8,1.6-13.4-1.8-17.3
					c-2.9-3.4-8.1-2.4-11.2,5.4c-2,5-1.7,11.2-0.3,14.7C507,544.2,514.1,540.2,516.5,532.3"/>
				<path id="path11459" inkscape:connector-curvature="0" class="st1" d="M573.9,240.1c0-0.1,0-0.3,0.1-0.4
					c2.1-12.7,5.7-15.8,2.8-2.6c-0.7,3.3-1.9,7.6-2.5,9.4C572.7,251.9,572.5,248.4,573.9,240.1"/>
				<path id="path11461" inkscape:connector-curvature="0" class="st1" d="M525.4,499c0.6-3,0.7-5.1,0.6-7c-0.2-3-0.9-6.6-2.9-8.7
					c-3.2-3.4-8.4-0.1-10.4,8.8c-1.2,5.2-0.3,12.2,2.6,15.2c1.8,1.9,4.6,1.2,5.6,0.6C522.5,506.7,524.5,503.6,525.4,499"/>
				<path id="path11463" inkscape:connector-curvature="0" class="st1" d="M370.9,781c2.5-3.9,3.8-7.4,4.1-10.3
					c0.5-4.1,0.9-8.7-3.9-13.8c-6.7-7.1-18.4-3.2-24.9,5.7c-7.2,9.9-5,22.9,2.7,27.4C355.3,793.5,364.5,790.7,370.9,781"/>
				<path id="path11465" inkscape:connector-curvature="0" class="st1" d="M595.8,123.4c2.1-6.8,6.7-8.2,4.9-1.2
					C598.5,130.8,593.1,132.3,595.8,123.4"/>
				<path id="path11467" inkscape:connector-curvature="0" class="st1" d="M532.6,469.2c1.6-7.1,0.6-14.4-2.2-16.9
					c-4.4-3.9-9.8,7.7-8.9,16.5C522.5,480.4,530.3,479.3,532.6,469.2"/>
				<path id="path11469" inkscape:connector-curvature="0" class="st1" d="M539.3,438.3c1.1-6.2,0.6-12.6-1.4-15.2
					c-2-2.7-5.6-0.2-7.6,7c-3.1,11.5,2.9,22,6.9,14.8C538.1,443.5,538.9,440.4,539.3,438.3"/>
				<path id="path11471" inkscape:connector-curvature="0" class="st1" d="M579.1,212.4c1.9-10.5,6.1-16.4,5.6-10.1
					c-0.5,5.5-3.4,14.5-5,17.1C578.2,222,578,218.4,579.1,212.4"/>
				<path id="path11473" inkscape:connector-curvature="0" class="st1" d="M397.4,736c4.7-8.1,4.9-18.1-1.3-23.8
					c-14.3-13-38,16.6-22.8,31.2C380.4,750.2,391.2,746.5,397.4,736"/>
				<path id="path11475" inkscape:connector-curvature="0" class="st1" d="M545.3,408.2c1-6.3,0.4-12.3-1-14.4
					c-1.6-2.4-4.8,0.7-6.5,7.1c-0.9,3.6-0.9,9.1-0.5,11.8C538.8,421,543.6,418.7,545.3,408.2"/>
				<path id="path11477" inkscape:connector-curvature="0" class="st1" d="M550.3,380.8c1.9-10.2,0.7-19.4-2.2-15.8
					c-0.9,1.1-2.6,4.4-3.3,7.7c-0.5,2.3-0.7,6.7-0.7,8.9C544.3,391.6,548.6,390.2,550.3,380.8"/>
				<path id="path11479" inkscape:connector-curvature="0" class="st1" d="M419.2,696.3c4-6.5,4.6-13.2,3.2-18
					c-3.9-13.5-18.6-11.9-25.9-1.4c-5.6,8-6.1,20.5,1.9,26.3C404.6,707.7,414.1,704.6,419.2,696.3"/>
				<path id="path11481" inkscape:connector-curvature="0" class="st1" d="M586.1,181.9c1.4-5.5,3.8-10.2,5.5-10.7
					c1.5-0.5,1.5,3.7-0.3,9.6c-0.9,3-2.5,6.6-3.4,8.3C584.9,194,584.1,189.9,586.1,181.9"/>
				<path id="path11483" inkscape:connector-curvature="0" class="st1" d="M530.6,340.7c0.1-2.8-0.3-4.1,0-6.6c1.5-1.2,2.5-0.2,4-1
					c0.9-0.6,2.8-3.2,3.3-2.3c0.4,0.9-0.3,3.5-0.5,5.6c-0.2,2.7,0.1,4.1-0.3,6.2c-1,2.3-2.2,1.7-3.6,2.7c-1,0.7-2.8,3.3-3.3,2.5
					C529.6,346.9,530.6,342.5,530.6,340.7 M517.9,368c0-2.9-0.4-4.5-0.2-7c1.7-1.5,2.7-0.4,4.4-1.2c1.1-0.5,3.4-3.6,4.1-2.8
					c0.7,0.8,0,3.3-0.1,5.8c-0.2,3,0.2,4.4,0,6.6c-1.1,2.5-2.5,1.7-4,2.7c-1.5,1-3.6,4.2-4.4,3.3C517,374.6,517.8,369.7,517.9,368
					 M509.2,399.9c-1.8,1.2-3.2,3.1-5,3.7c-0.6-2.6,0.3-5.5,0.3-8.3c0-2.8-0.8-4.9-0.4-8c1.8-0.9,3.3-0.1,5-0.9
					c1.8-0.8,3.5-3.3,5.2-3.4c0.5,1.8-0.3,5.2-0.3,8c0,2.1,0.9,4.6,0,6.3C512.9,398.7,510.9,398.9,509.2,399.9 M496.8,426.9
					c-2.5,1.2-4.4,4.2-6.7,5.1c-0.5-3.2,0.6-6.9,0.4-10.2c-0.2-2.7-1.2-4.6-1.2-7.5c2.3-1.5,4.3-0.2,6.5-1.2c2.1-0.9,3.8-3.4,5.9-4
					c0.7,2.5-0.4,5.9-0.2,9c0.1,1.7,1.3,4.9,0.4,6.8C501,426.8,498.1,426.3,496.8,426.9 M544.3,346.8c-0.1,3.2,0.2,4.3,0.1,6.5
					c-0.1,0.2-0.1,0.3-0.2,0.3c-0.9,1.3-1.5,0.6-2.7,1.6c-0.7,0.6-2.8,4.2-3.3,3.5c-0.6-0.8,0.2-4.5,0.2-6.5
					c0.1-1.4-0.4-4.1,0.3-6.1c0.6-1.7,2.2-1.9,2.9-2.5c0.7-0.6,2.3-3.3,2.7-2.7C544.9,341.5,544.4,344.8,544.3,346.8 M532,383.4
					c-1.5,1.2-2.3,3.3-3.6,3.6c-0.6-2.1,0.1-5.5,0-8.2c0-1.4-0.6-3.6-0.1-5.1c0.7-1.9,2.4-1.6,3.2-2.2c1-0.7,3-4.3,3.7-3.4
					c0.5,0.7,0.1,4,0.1,5.4c0,3,0.6,5.1,0.7,7.3C535.1,382.8,533.3,382.3,532,383.4 M526,402.1c0.3,3.5,1,4.6,0.9,7.3
					c-1.4,1.5-4.1,1.4-6,3.3c-1,1-2.5,4-3.3,3.2c-0.7-0.7-0.2-3.1-0.1-4.3c0.1-1.1,0.2-3.1,0.1-4.3c-0.1-1.2-1-4.6-0.3-6.2
					c0.7-1.7,3-1.5,3.8-2c1.1-0.7,3.6-4.7,4.4-3.8C526.4,396,525.9,400.5,526,402.1 M551.1,346.3c-0.2,4.5-0.8,9.5,0,12.1
					c0.5,1.5,1.3,1.9,2.2,0.5c3.1-5,4.8-25.3,1.9-23.1c-0.9,0.7-2.1,4.4-3.3,6.5c0.1-2.7,0.6-5.2,0.8-8.1c0.1-1.8,0.3-7.2,0-7.9
					c-0.3-0.7-2.4,1.2-2.9,1.9c-0.6,0.8-1.9,3.3-2.2,2.5c-0.3-0.9,0.5-4.6,0.6-6c0.2-2,0-3.7,0.6-6c1-1.8,1.8-1.3,2.8-2.6
					c0.6-0.8,1.9-3.6,2.1-2.7c0.2,0.7-0.7,5.4-0.8,6.9c-0.1,1.7-0.2,5,0,5.7c0.1,0.4,0.7-0.2,1.1-0.4c1-0.6,1.4-1.1,2.5-3.7
					c0.5-1.3,1.2-3.3,1.3-2.8c0.1,0.6-0.5,4.6-0.6,5.8c-0.1,1.6-0.2,4-0.1,5c0.5,4.3,2.3-0.6,3.4-6.4c1.1-6,1.9-12.9,1.6-15.3
					c-0.1-1.4-0.8-0.4-1.3,0.9c-0.5,1.1-1.6,4.8-1.7,4.2c-0.1-0.5,0.6-4.2,0.9-6.2c0.4-2.6,0.8-6.4,0.5-7.4
					c-0.1-0.5-0.7-0.2-1.1,0.3c-0.5,0.5-2.3,4.3-2.5,3.6c-0.2-0.8,0.8-4.6,1-6.2c0.4-2.7,0.3-4.1,0.9-6.4c0.8-1.2,1.6-1.1,2.5-2.6
					c0.5-0.8,1.5-3.3,1.6-2.5c0,0.6-1,4.7-1.2,6.1c-0.3,1.7-0.5,3.9-0.5,4.7c0,1.9,0.8,1,1.4-0.1c0.5-0.9,2-5.7,2-5
					c0,0.5-0.7,4.3-0.9,5.5c-0.2,1.6-0.5,3.6-0.5,4.8c0,3.2,1.2-0.6,2.2-5.9c2.3-11.6,3.7-19.9,2.1-15.1c-0.2,0.7-1.3,4.5-1.3,3.9
					c0-0.5,1.1-5.4,1.4-6.8c0.4-2,1-4.8,1-5.7c0.1-1.2-0.7,0.2-1.3,1.4c-0.6,1.1-1.4,3.4-1.4,2.6c0-0.7,1.4-5.8,1.7-6.9
					c1.2-5.2,0.7-5.8-0.9-3.5c-0.6,0.9-2,3.7-2.1,2.9c-0.1-0.9,1.7-5.7,2.2-7.5c1.2-4.5,0.8-6.1-0.9-4.5c-1,0.9-2.9,3.3-4.4,6.1
					c-1,1.9-2.4,5.2-3,7c-1.1,3.1-1.8,6.4-1.8,8.2c0,2.6,1.2,2.2,2.2,1.2c0.5-0.5,2.5-3.8,2.5-3c0,0.5-0.7,2.8-1.1,4.2
					c-1,3.8-1.3,6.3-1.8,9.5c-1,1.2-1.7,0.8-2.9,2.2c-0.6,0.7-2.1,3.3-2.2,2.3c-0.1-0.8,1.1-5.1,1.5-6.8c0.3-1.5,0.5-3.3,0.4-4.4
					c-0.3-4.6-4,0.5-7.5,4.3c0.9-3.2,2.1-5.6,2.8-8.3c1.6-5.6,0.8-8.7-1.6-7.7c-4.9,2-11.9,15.7-10.1,21.2c1.3,4,5-0.5,8.1-3.8
					c-0.8,3.1-2.2,6.3-2.9,9.4c-0.6,2.6-0.9,6.2-0.3,7.7c0.4,0.9,1.7,0.7,2.4,0.3c0.7-0.4,3.2-3.8,3.5-2.8c0.2,0.9-1,5.1-1.2,6.7
					c-0.3,2,0,3.6-0.7,6c-1,1.4-1.7,1-2.7,1.8c-0.7,0.6-2.7,3.7-3.1,2.6c-0.3-0.8,0.6-4,0.8-5.7c0.3-2.3,0.5-5.7-0.1-7
					c-0.6-1.2-2-0.9-3.1-0.3c-1.6,0.9-3.6,3.9-5.5,5c1.3-5.4,3.5-11,2.3-14.5c-1-3-4.5-2.4-8.3,2.5c-4.3,5.5-6.1,13-5.2,16.5
					c0.8,3.3,3.1,3.4,4.9,2.4c1.6-0.9,3.4-3.5,4.9-3.9c-0.7,3.1-1.8,6-2.2,9c-0.4,3,0.1,5-0.3,8.2c-1.6,0.9-2.6-0.1-4.3,0.7
					c-1.9,0.8-3.8,3.9-5.9,4.7c0.2-3.6,1.7-6.7,1.9-9.9c0.6-9.3-6.6-9.4-12.4,0c-2.9,4.7-3.8,11-2.6,14.3c1.5,4.1,4.9,3.6,7.2,2.1
					c1.4-0.9,2.7-3,4.1-3.1c-0.1,2.6-1.3,5.4-1.6,8.2c-0.4,3.3,0.6,5.5-0.1,9.1c-1.9,1.2-3.5,0-5.8,1.2c-1.7,0.9-4.8,3.4-6.3,6
					c-1.2,2.2-2.3,8.1-2.5,10c-0.3,3.3,0.8,5.8,0.4,9c-4.1,1.4-8.9,0.1-13.3,8.2c-1.2,2.2-1.9,5.1-2.1,7c-0.6,4.2,0.9,7.5,0.6,11.7
					c-4.6,0.5-9.7-0.4-14.4,7.6c-1.7,2.9-2.5,6.3-2.6,8.8c-0.2,3.6,1.6,6.4,1,10.4c-5.2,0.7-11.2,0.3-15.7,8.1
					c-2,3.4-2.7,8.2-2.3,11.6c0.3,2.5,1.8,4.3,1.1,7.4c-5.4,1.3-10.8,0.3-15.9,7.3c-3.2,4.4-4,9.7-3.3,13.6c0.4,2.5,2.2,4.5,1.4,7.5
					c-6.5,1.4-12.5-0.4-18.2,8.8c-2.1,3.3-2.9,8-2.7,10.8c0.1,1.9,2.6,7.5,1.4,9.2c-1.2,1.7-6.5,0.9-8.8,1.5
					c-9.2,2.6-14,13-12.9,20.9c0.5,3.1,2.4,6.4,1,8.1c-1.4,1.7-6.5,0.9-9.4,1.6c-7.5,1.9-13.8,10.5-14.1,18
					c-0.1,2.7,3.1,10.4,1.5,12.4c-1.2,1.4-8.2,1.5-9.7,1.9c-8,2.2-14.8,10.6-15.3,18.4c-0.2,4,3.5,10.9,1.5,13.3
					c-1.4,1.7-6.4,0.8-8.7,1.2c-10.3,2-19,12.9-18.5,22.5c0.2,3.2,3.6,10.7,1.9,12.5c-1.7,1.8-10.2,1.1-11.9,1.6
					c-11.2,3-17.5,14.4-17.5,22.7c0,5.1,2.6,9.1,3,14.5c-5.7,1.1-9.5-0.4-14.4,0.8c-17.8,4.1-27.1,28.8-13,38.7
					c5.6,4,17.5,2.9,26-5.1c12.1-11.4,7.6-21.8,4.8-32.4c8.9-1.6,17.3,0.8,25.6-8.1c5.8-6.2,6.9-13.9,5.9-19.8
					c-0.5-3.1-2.9-5.7-1.5-9.3c8.8-2.2,16.3-0.1,23.9-10.7c2.6-3.6,4-9.5,3.9-12.9c-0.1-2.7-3.7-9.8-1.8-12
					c1.6-1.8,8.7-1.2,10.8-1.9c10.3-3.3,15.3-14.7,14-22.9c-0.5-3-2.8-6.9-1.4-8.7c1.3-1.6,4.9-0.9,7.5-1.4
					c10.7-1.9,16.5-13.5,15.2-22.3c-0.4-2.6-2.3-6.9-1.3-8.4c1.3-1.8,5.9-1,8.3-1.7c9.9-2.7,13.8-14,12.6-21.7
					c-0.5-2.9-2.3-5.8-1.1-7.5c1-1.4,6.6-1.2,8.1-1.7c2.8-0.9,6.9-3.4,9.3-7.7c2.1-3.7,2.6-9.5,1.9-13c-0.4-2.4-2.1-4.5-1.5-7.6
					c5.6-1.4,12.6-0.3,16.9-8.9c3.5-7.1,0.7-13.2,0.3-19.5c2.4-1.5,4.1-0.4,6.4-1c2.3-0.6,7.5-3.6,9.3-7.1c1.5-2.9,1.8-9.8,1.5-12.7
					c-0.2-2-1.9-5.6-0.9-7.1c0.7-1.1,3.6-0.5,4.7-0.6c3.4-0.4,6.1-3.5,9.2-5.5c0.5,3.2-0.7,6.8-0.5,10.1c0.1,2.5,1.1,4.5,0.5,7.2
					c-2,1.7-4.3,1.5-6.6,2.8c-2,1.2-5.3,3.3-7,6.7c-1.1,2.2-1.7,7.9-1.6,10.2c0.1,2.3,1.8,7.2,0.6,9.1c-0.9,1.5-4.7,1.4-6.3,2.1
					c-6.6,2.8-10.2,10.9-9.9,18.4c0.2,3.1,1.7,6.7,0.6,8.7c-1,1.6-5,1.8-6.9,2.6c-2,0.9-5.2,3.2-7.2,5.7c-2.7,3.5-3.6,8.8-3.6,12.3
					c0,2.5,2.1,7.9,0.8,10c-1.1,1.8-5.1,1.8-7.4,2.7c-7.4,3.2-11.9,11.7-11.4,19.6c0.2,3.1,2,8.4,0.7,10.2c-1.1,1.5-7.2,2.3-8.5,2.8
					c-8,3.2-12.5,12-12.1,19.8c0.1,2.4,2.5,9,1.2,10.8c-1.6,2.3-7.2,1.8-9.7,2.8c-7.7,3.1-13.2,12.4-13.3,19.6
					c-0.1,4.6,2.9,8.5,1.7,13.6c-7.7,2.4-14.7,1.2-21.7,11c-3.9,5.5-4.4,12.8-3.4,17.5c0.6,2.7,3.5,7.3,2.1,9.3
					c-1.5,2.2-7.9,1.3-10.8,2c-16.6,3.9-23.8,27.8-12.5,37.7c2.7,2.4,8.5,2.6,12.5,2c12.4-2,21.3-16.6,19-28.1
					c-0.7-3.5-3-4.8-2.2-10c7.5-1.8,14.1-1.3,20.2-7.9c4.9-5.3,6.4-11.6,6.5-15.9c0-3.2-3.4-10.9-1.6-13.3c1.4-1.8,7-1.6,9.4-2.4
					c8.1-2.9,14-12.1,13.8-21c-0.1-2.1-3-9.5-1.5-11.7c1.1-1.6,6.3-1.8,8.7-2.7c8.1-3.4,12.7-12.7,11.8-21.6
					c-0.4-3.8-2.1-7.2-0.8-9.1c1.5-2.1,6.7-2,8.2-2.8c6.8-3.5,10.6-12,10.2-19.3c-0.2-3.6-2.2-7.7-0.9-9.8c1.2-2,6.3-2.3,7.9-3.2
					c6.7-3.9,9.6-12.5,8.7-20c-0.3-2.8-1.7-6.2-0.8-7.8c1.1-1.9,5.3-1.9,7.2-3c6.2-3.7,8.6-11.9,8.1-18.6c-0.2-2.6-1.5-6.7-0.7-8.2
					c1.1-2.1,5.3-1.9,7.2-3.3c2-1.4,4.6-4,5.8-7.4c0.9-2.3,1.2-7.8,1.1-10.3c-0.1-2.5-1.5-6.4-0.6-8.2c0.9-1.7,3.9-1.4,5.1-2.1
					c2.8-1.6,5.2-5.6,6.9-7.6c0.3-4.1,1.1-8.2,0.8-11.9c-0.2-2.2-1.2-4-0.4-6.7c1.7-1.8,3.3-1,5.2-2.3c1-0.7,4-5.3,4.8-4.4
					c0.5,0.5,0.1,2.8,0.1,4.3c-0.1,4.7,1,7.8,1.2,11.9c-1.5,1.5-3,0.7-4.6,1.6c-2.4,1.3-4.4,4.6-6.9,7.7c-0.3,3.5-0.8,6.8-0.7,10.1
					c0.2,3.5,1.7,6,1.6,9.8c-1.7,1.4-4,0.7-6.1,2c-1.9,1.1-5.1,4.2-6.7,8.4c-0.8,2.3-1,7.7-0.8,10c0.2,2,2.5,7.5,1.8,9.2
					c-0.5,1.2-1.9,0.9-3.4,1.1c-2.9,0.5-7.3,2.7-10,8.7c-1.5,3.4-1.6,7.9-1.3,11c0.2,2.2,2.6,8.6,1.9,10.1c-0.8,1.5-4.4,1.1-5.8,1.6
					c-2.6,0.9-6.3,3.2-8.8,8.4c-2.1,4.3-1.9,8.8-1.3,12.4c0.6,3.5,2.1,6.2,2.6,10.1c-5.5,1.5-11.7,0.9-16.4,9.8
					c-4.7,9-1,16.6,2,24.2c-6.3,1-12.7-0.3-18.3,8.3c-3.3,5-4.1,12.8-2.4,18c4,12.1,16.7,11.3,22.9,0.5c5.9-10.4,1.8-18.3-1.3-26.3
					c2.9-0.9,5.4,0,8.5-0.9c7-2.2,12.2-13.3,10.6-21.9c-0.6-3.5-2.7-5.9-2.9-9.8c5.2-2.2,10-0.6,14.1-8.4c2.2-4.1,2.8-8.8,2.6-12.5
					c-0.3-3.9-2.3-6.8-2.3-10.9c1.8-1.9,3.9-1.1,5.9-2c5.2-2.3,8.9-11.4,8.3-19c-0.3-3.6-2-6.2-1.9-10.2c3.8-1.8,7.2-1,10.2-7.1
					c2.9-6,3-11.8,2.2-16.1c-0.4-2.3-1.8-4-1.4-7c2-1.6,3.6-0.7,5.4-1.8c4.6-3,6.9-12.6,6.1-19.8c-0.3-3-1.5-4.5-1.3-7.8
					c3.3-1.3,6.9-1.8,9.2-9.3c1-3.3,1.2-7.8,1.1-10.3c-0.1-3.3-1.2-5.6-1.1-9.2c2.7-0.8,6.5-1.8,8.6-10.4c0.9-4,0.9-9.4,0.6-12.2
					c-0.2-1.8-0.9-3.1-0.5-5.5c1.4-1.4,2.9-0.9,4.4-3.2c0.9-1.4,2.3-4.2,2.9-6.9c0.3-1.4,0.5-3.6,0.7-5.3c0.5-5,0.2-8.5,0.1-12.4
					c1-1.6,1.7-1.1,2.7-2.1C548.9,351.3,550,347.9,551.1,346.3"/>
				<path id="path11485" inkscape:connector-curvature="0" class="st1" d="M228,889.6c2.4-7.2,0.9-14.1-4.9-17.4
					c-9.2-5.2-24.5,5.2-29.1,17.1L228,889.6z"/>
				<path id="path11487" inkscape:connector-curvature="0" class="st1" d="M439.9,655.8c3.9-8.1,2.9-20.6-3.7-24.3
					c-2.4-1.3-6.7-1.1-9.4-0.3c-12.5,3.8-18.1,24.9-7.7,33.1C425,669,435.4,665.1,439.9,655.8"/>
				<path id="path11489" inkscape:connector-curvature="0" class="st1" d="M594.3,153.5c0-0.1,0.1-0.3,0.1-0.4
					c2.9-10.8,9.7-13.4,6.3-2.4c-1.1,3.7-3.6,8.8-5.5,10.2C593.2,162.5,592.7,159.2,594.3,153.5"/>
				<path id="path11491" inkscape:connector-curvature="0" class="st1" d="M265.5,848.1c16.9-19.4-1.3-40.1-19.7-27.1
					C219.1,840.1,241.8,875.3,265.5,848.1"/>
				<path id="path11493" inkscape:connector-curvature="0" class="st1" d="M573.5,248.4c-1.8,5.2-4.1,11.4-4.1,13.8
					c0,0.9,0.8-0.2,1.4-1.3c0.5-0.9,1.4-3.5,1.3-2.7c-0.1,0.6-1.5,5.3-1.8,6.4c-0.4,1.7-1,4.2-1.1,5.1c-0.1,0.7,0.3,0.1,0.6-0.5
					c0.4-0.9,1.8-5.9,1.7-5.3c-0.1,0.6-1.2,4.8-1.4,6c-2,8.7-0.8,4.2,0.8-3.6c1.2-5.9,2.7-12.1,3.5-14.2c0.5-1.6,0.4-0.5,0,1
					c-0.2,0.9-1.1,4.3-1,3.8c0.2-0.6,1.6-5.5,2.1-7.3c0.4-1.4,1.2-3.8,1.4-4.5c0.2-0.5-0.1,0.2-0.3,0.9c-0.3,0.8-1.7,4.5-1.5,3.7
					c0.2-0.7,1.6-4.9,2.2-6.4c1.6-4.8,1.8-5.5,0.7-3.7c-0.6,1-1.7,3.4-2.4,4.3c1.9-5,4.1-10.2,4.6-12.4c0.4-1.9-1.3,0-4.2,5
					c-3.5,6-6.3,13.5-6.3,16c0,1.6,0.8,0.9,1.7-0.5C572.1,250.9,573.1,248.7,573.5,248.4"/>
				<path id="path11495" inkscape:connector-curvature="0" class="st1" d="M303.6,798.9c6.5-8.5,8.5-21.7,0-28.4
					c-12.8-10-37.5,9.1-33.8,27.2C273,813.5,292.1,813.7,303.6,798.9"/>
				<path id="path11497" inkscape:connector-curvature="0" class="st1" d="M581.4,228.9c1.5-4,3.9-10.5,4.8-11.2
					c0.2-0.2,0.2,0.4,0,1.1c-0.3,1.1-1.6,4.7-1.3,4.1c0.3-0.6,2.2-5.3,3-6.9c2.2-4.9,2.7-5.1,1.6-2.5c-0.4,1-1.8,3.9-2.9,6.2
					c-0.8,1.8-2.8,6.2-3.6,8c-2.7,6.4-3.2,8.6-2.2,6.3c0.3-0.7,1.7-4.5,1.4-3.8c-0.2,0.5-1.6,4.3-2.2,5.8c-0.8,2.1-1.8,5-2.1,5.7
					c-0.2,0.6,0.1-0.8,0.5-2.3c0.3-1.1,1.1-4,0.8-3.5c-0.3,0.5-1.5,4.5-1.9,5.9c-1.8,5.6-2.1,5.3-1.5,1.6c0.2-1.3,0.9-5.2,1.5-7.6
					c2.2-8.9,5.3-15.5,4.9-11.7C582.1,225.6,581.4,228,581.4,228.9"/>
				<path id="path11499" inkscape:connector-curvature="0" class="st1" d="M604.7,124.3c2.6-8.1,8.3-10.9,6.8-4.3
					c-1,4.8-3.8,9-5.5,10.2C603.5,132,603.3,128.6,604.7,124.3"/>
				<path id="path11501" inkscape:connector-curvature="0" class="st1" d="M335.1,755.1c4.2-5.5,6.5-12.3,5.6-18.1
					c-0.5-3-2.6-9-5.7-11.4c-4.1-3.2-11.4-2.4-15.8-0.8c-14.1,4.9-23.9,26.1-11.7,37.1C314.2,767.9,327.3,765.1,335.1,755.1"/>
				<path id="path11503" inkscape:connector-curvature="0" class="st1" d="M593.1,202.5c-1.9,3.9-3.8,8.3-5,10.5
					c-1.1,2-1.2,1.2-0.9-0.6c0.2-1,1.3-5,0.8-4.4c-0.4,0.5-1.9,4.6-2.5,6c-1.8,4.3-2.8,4.8-2.8,3c0-1.2,0.6-5.4,1.7-9.4
					c2.7-9.2,7-15.8,6.4-10.2c-0.1,0.9-1,4.6-0.6,4.1c0.4-0.4,2.3-5,3-6.4c2.6-5.1,4-5.1,3.4-2.2c-0.2,0.9-1.4,4.3-1,3.7
					c0.5-0.6,2.7-5.2,3.5-6.7c4.1-7.1,4-4.2,0.8,2.5c-1.6,3.4-3.8,7.5-5,9.8c-3.1,6-3.8,6.8-2.9,4
					C592.3,205,593.1,202.9,593.1,202.5"/>
				<path id="path11505" inkscape:connector-curvature="0" class="st1" d="M618.5,99.2c-0.7,0.4-1.3,0.4-1.7,0L618.5,99.2z"/>
				<path id="path11507" inkscape:connector-curvature="0" class="st1" d="M592.6,179.7c2.9-9.3,8.3-15.4,7.7-9.3
					c-0.1,1.2-0.6,3.9-1.6,6.6c-0.8,2.4-3.2,7.1-4,8.5C590.6,193.2,589.7,189,592.6,179.7"/>
				<path id="path11509" inkscape:connector-curvature="0" class="st1" d="M138.3,889c-3.8-3.6-9.7-3-15.3-0.1L138.3,889z"/>
				<path id="path11511" inkscape:connector-curvature="0" class="st1" d="M182.4,863.5c9.4-8.2,11.2-15.8,9.8-21.9
					c-4.4-19-33.6-8-38,10.4C150.1,869.7,168.8,875.3,182.4,863.5"/>
				<path id="path11513" inkscape:connector-curvature="0" class="st1" d="M602.5,151.4c1.4-4,3.7-8.1,5.7-9.8
					c5.8-4.9,1.5,9.5-3.7,16.4C600.2,163.7,600,158.3,602.5,151.4"/>
				<path id="path11515" inkscape:connector-curvature="0" class="st1" d="M227.8,814.2c9.7-9.9,11.1-23.6,2.1-30
					c-5.1-3.7-14.6-3.7-23,2.2c-13.1,9.3-16.3,27-6.2,34.2C207.8,825.6,218.8,823.3,227.8,814.2"/>
				<path id="path11517" inkscape:connector-curvature="0" class="st1" d="M614.5,122.6c1.4-3.5,2.9-5.3,3.9-6.4
					c3.9-4.2,5.4-1.1,3.3,4.2C617.4,131,609.6,134.4,614.5,122.6"/>
				<path id="path11519" inkscape:connector-curvature="0" class="st1" d="M266.8,768.6c7.4-8.4,9.8-22.2,1.5-29.3
					c-3.7-3.2-11.1-3.2-16-2.1c-18.9,4.4-28.9,31.6-12.8,39.4C246.5,779.9,257.9,778.7,266.8,768.6"/>
				<path id="path11521" inkscape:connector-curvature="0" class="st1" d="M630.4,99.3c-1.4,1.1-2.5,1.1-2.9,0L630.4,99.3z"/>
				<path id="path11523" inkscape:connector-curvature="0" class="st1" d="M599.4,176.1c1.1-2.3,2.7-5.6,3.8-7.6c3-5,5.5-6,4.8-2.3
					c-0.3,1.3-1,3.7-2.1,6.4c-1.3,2.9-4.3,8.2-5.4,10C595.8,190.1,596.5,184.1,599.4,176.1"/>
				<path id="path11525" inkscape:connector-curvature="0" class="st1" d="M100.1,869.9c5.9-5.5,7.5-11.9,7.3-14.7
					c-1.8-22.3-38.9-0.7-31,16.4C79.7,878.9,90.9,878.6,100.1,869.9"/>
				<path id="path11527" inkscape:connector-curvature="0" class="st1" d="M610.8,149.3c2.2-5.3,5.8-10.5,8.2-11.5
					c4.7-1.9-3.4,15.6-8.5,19.2C608.4,158.5,608.5,155,610.8,149.3"/>
				<path id="path11529" inkscape:connector-curvature="0" class="st1" d="M148.5,823.7c5.9-5.3,7.2-8.9,8-11.8
					c3.9-14.4-11.8-22.4-25.6-12.6C108.5,815.3,125.5,844.2,148.5,823.7"/>
				<path id="path11531" inkscape:connector-curvature="0" class="st1" d="M624.7,120.8c2-4,4.8-7.2,6.5-8.3
					c5.8-3.5,0.8,8.1-4.2,13.5C622.3,131.2,621.5,127.3,624.7,120.8"/>
				<path id="path11533" inkscape:connector-curvature="0" class="st1" d="M191.4,779.7c8.6-7.9,11.8-18.5,5.3-26.1
					c-4.6-5.4-13-5.2-17.4-3.9c-14.1,4.3-24.6,22.4-15,32.9C169.7,788.7,182,788.5,191.4,779.7"/>
				<path id="path11535" inkscape:connector-curvature="0" class="st1" d="M231.1,736.5c3.5-3.8,5-6.9,5.8-9.6
					c1.2-4.3,1.7-11.3-4.1-16.8c-10.1-9.3-31.7,0.5-35.1,15.8C193.7,743.7,215.9,752.9,231.1,736.5"/>
				<path id="path11537" inkscape:connector-curvature="0" class="st1" d="M264.1,698.2c6.1-6.3,7.5-13.5,6.7-18.2
					c-2.4-13.3-18.1-15.3-28.2-8.8c-13.1,8.4-14.6,25-5.2,31.8C243.9,707.7,256.3,706.2,264.1,698.2"/>
				<path id="path11539" inkscape:connector-curvature="0" class="st1" d="M606.4,172.2c1.6-3.5,4.5-8,5.4-9.2
					c4.5-6.2,5.4-3.6,0.9,4.8c-4.7,8.9-9.9,16.1-8.6,11C604.4,177.5,605.5,174.2,606.4,172.2"/>
				<path id="path11541" inkscape:connector-curvature="0" class="st1" d="M294.8,660.4c6.6-7.4,7.5-16.7,2.4-23.4
					c-6.7-8.7-20.2-5.6-27.2,0.8c-4.6,4.2-7.5,10.8-7.1,16.3C264.1,669.9,284.3,671.9,294.8,660.4"/>
				<path id="path11543" inkscape:connector-curvature="0" class="st1" d="M619.8,145.7c2.5-5.1,5.9-9.6,8.3-11.2
					c5.9-3.9-3.5,13.6-9,17.9C616.8,154.2,617.2,150.9,619.8,145.7"/>
				<path id="path11545" inkscape:connector-curvature="0" class="st1" d="M74,822.1c1.6-3.5,1.4-6.9,0.1-9.5L74,822.1z"/>
				<path id="path11547" inkscape:connector-curvature="0" class="st1" d="M321.8,625.5c4.9-5.3,6.2-12.3,5.3-16.6
					c-3.2-13.7-20.7-13.5-29.3-4.7c-6.5,6.7-8.5,19.4,0.9,25.7C305,634.3,316,631.8,321.8,625.5"/>
				<path id="path11549" inkscape:connector-curvature="0" class="st1" d="M114.6,786.3c17.5-14.1,3-33.4-14.2-21.4
					C81.4,778.1,95.2,801.8,114.6,786.3"/>
				<path id="path11551" inkscape:connector-curvature="0" class="st1" d="M348.4,590.3c2.8-3.7,3.6-6.9,3.8-9.5
					c0.8-14-16.5-19.5-27.1-9.4c-5.9,5.7-9.3,17.5-0.1,24.5C331.4,600.7,342.6,598,348.4,590.3"/>
				<path id="path11553" inkscape:connector-curvature="0" class="st1" d="M635.5,118.3c4.1-7.4,11.2-12.2,9.7-7
					c-1,3.5-6,10.2-9.1,12.6C632.7,126.5,632.6,123.5,635.5,118.3"/>
				<path id="path11555" inkscape:connector-curvature="0" class="st1" d="M586.9,219.1c1.6-3.5,3.5-7.4,4.5-9.4
					c3.4-6.8,2.6-5.5-1.3,1.2c-4.6,8-8.8,18.2-6.8,15.1C584,225,585.2,222.6,586.9,219.1"/>
				<path id="path11557" inkscape:connector-curvature="0" class="st1" d="M370.9,559.6c3-3.6,4.2-7.2,4.4-10.2
					c0.6-12.7-14.5-18.5-24.6-9.3c-6.9,6.4-7.4,17.2-1.2,22.6C355.4,568,365.6,566,370.9,559.6"/>
				<path id="path11559" inkscape:connector-curvature="0" class="st1" d="M157.3,745c6.2-5.2,8.6-11.6,8-16.7
					c-1.5-11-14.8-14.6-26.1-6.3c-5.6,4.1-9.3,10.8-9.4,16.3C129.7,752.9,147.3,753.5,157.3,745"/>
				<path id="path11561" inkscape:connector-curvature="0" class="st1" d="M393.9,527.7c2-3.1,2.9-6.3,2.8-8.9
					c-0.1-11-13.8-17.3-23.3-7.2c-4.8,5.1-6.1,13.5-1.7,18.9C377.9,538.1,389.1,535,393.9,527.7"/>
				<path id="path11563" inkscape:connector-curvature="0" class="st1" d="M600.1,192.5c2.1-4.1,4.5-8.2,5.5-9.7
					c1.1-1.7,2-2.7,2.1-2.9c1.1-1.2-0.4,1.8-3.5,6.9c-2.3,3.9-5.4,9.1-6.9,11.7C595.3,202.2,596.9,198.7,600.1,192.5"/>
				<path id="path11565" inkscape:connector-curvature="0" class="st1" d="M414.1,499.6c4.8-6.4,4.6-15.5-0.9-19.7
					c-5.5-4.3-13.6-1.9-18.2,3.7c-5.1,6.3-4.8,15.6,1.3,20.1C401.7,507.8,409.7,505.5,414.1,499.6"/>
				<path id="path11567" inkscape:connector-curvature="0" class="st1" d="M196.2,705c4.9-4.8,7-11.3,6.6-15
					c-1.5-15.3-22.9-15.9-33-2.7c-3.4,4.5-4.6,11.2-2.9,15.7C171.2,714,186.1,714.9,196.2,705"/>
				<path id="path11569" inkscape:connector-curvature="0" class="st1" d="M434.1,470.9c4-6.2,4-13.7-0.4-18
					c-7.4-7.2-19.8,2-20.8,11.6C411.6,477.2,426.8,482.1,434.1,470.9"/>
				<path id="path11571" inkscape:connector-curvature="0" class="st1" d="M453.4,442.7c1.2-2.2,1.7-3.9,2-5.6c0.5-3.3,0.7-7.6-3-11
					c-4.2-3.9-11.1-1.9-15.4,3.3c-4.6,5.6-4.8,14.2-0.5,18.5C441.4,452.7,449.2,450.3,453.4,442.7"/>
				<path id="path11573" inkscape:connector-curvature="0" class="st1" d="M471,416.5c2.8-5.3,3.2-11.7,0.3-15.7
					c-3.9-5.3-11.8-2.4-16.2,4.5c-2.9,4.6-3.5,11.9,0.3,16C459.9,426,467.4,423.4,471,416.5"/>
				<path id="path11575" inkscape:connector-curvature="0" class="st1" d="M614.5,165.8c2.1-3.7,4.9-7.7,6.4-9.3
					c3.5-3.9,2.9-1.4,0.8,2.1c-2.6,4.4-5.8,9-7.5,11.4C609.7,176.2,610.1,173.5,614.5,165.8"/>
				<path id="path11577" inkscape:connector-curvature="0" class="st1" d="M487.5,391c1.3-2.4,2-4.8,2.3-6.5c0.5-3,0.6-7.7-1.8-10.3
					c-7.5-8.2-21.9,12-14.4,21.2C477.1,399.6,483.9,397.6,487.5,391"/>
				<path id="path11579" inkscape:connector-curvature="0" class="st1" d="M504,365.3c1.4-2.9,2.2-7.7,2.3-9.7
					c0.1-1.2,0-4.7-1.4-6.7c-2.8-3.9-8.9-1.4-12.8,5.2c-3,5.1-3.6,11.8-1.6,15.2c1.5,2.7,5,3.2,7.2,2.1
					C498.7,370.8,502.5,368.4,504,365.3"/>
				<path id="path11581" inkscape:connector-curvature="0" class="st1" d="M230.5,667.2c6.7-7,7.7-16,1.5-22.1
					c-11.1-10.8-33.3,2.1-31.9,16.9C201.6,676.4,220.2,678,230.5,667.2"/>
				<path id="path11583" inkscape:connector-curvature="0" class="st1" d="M629.4,140.9c3.5-6,8.1-10.9,9.9-11.2
					c2.3-0.4-4.4,10-9.5,15.2C626,148.7,626.2,146.4,629.4,140.9"/>
				<path id="path11585" inkscape:connector-curvature="0" class="st1" d="M261.8,631.2c4.8-5.5,4.8-11.5,4.2-13.9
					c-2.7-11.1-17.4-13.4-27-5.7c-7.4,6-9.1,16.2-3.5,22.4C241.7,640.7,253.9,640.1,261.8,631.2"/>
				<path id="path11587" inkscape:connector-curvature="0" class="st1" d="M561.3,261.8c2.5-4.7,4.4-10,4.7-12.7
					c0.7-5.6-5.2-0.4-9.5,8.9c-4.3,9.2-1.8,12.3,1.2,9.1C558.4,266.3,560.1,264.1,561.3,261.8"/>
				<path id="path11589" inkscape:connector-curvature="0" class="st1" d="M288.7,599c6.3-6.2,6.9-13.2,3.3-18.1
					c-11.9-16.6-38.1,4.1-27.5,18.1C270.6,607,282.2,605.4,288.7,599"/>
				<path id="path11591" inkscape:connector-curvature="0" class="st1" d="M575.4,236.1c2.3-4.1,4.1-8.2,4.7-9.6
					c1.4-3.4,1.4-4.3,1-4.4c-1.3-0.4-8.2,9-10.7,16.2C568.2,245,571.7,242.7,575.4,236.1"/>
				<path id="path11593" inkscape:connector-curvature="0" class="st1" d="M647.5,113.7c2.4-3.5,4.5-5.6,5.9-6.7
					c4.4-3.6,4.9-1.3,2.1,2.8C649.1,119.3,640.4,124.2,647.5,113.7"/>
				<path id="path11595" inkscape:connector-curvature="0" class="st1" d="M74.6,753.7c3-0.1,6.6-1.5,10.3-4.6
					c5.5-4.5,7.4-10.1,6.4-13.7c-2.3-8.3-10-8.5-16.5-5.2L74.6,753.7z"/>
				<path id="path11597" inkscape:connector-curvature="0" class="st1" d="M315.3,566.7c13.5-13.6-5.5-30.4-19.5-18.4
					C280.9,561.2,300.9,581.2,315.3,566.7"/>
				<path id="path11599" inkscape:connector-curvature="0" class="st1" d="M590.4,209.9c2-3.4,4-7,4.8-8.6c3.6-6.7,1.2-4-2.1,0.8
					C585,213.6,582.6,223.2,590.4,209.9"/>
				<path id="path11601" inkscape:connector-curvature="0" class="st1" d="M342,534c3.4-4.7,3.9-11.6-0.8-15.9
					c-6-5.5-18.4-3.9-22.8,5.9c-2.6,5.7,0,14.3,8,16.4C331.5,541.7,337.7,539.9,342,534"/>
				<path id="path11603" inkscape:connector-curvature="0" class="st1" d="M126.8,709.7c5.9-5.6,8.1-13.8,2.1-19.4
					c-5.4-5-17.1-2.5-23.3,5.2C95.2,708.8,111.2,724.4,126.8,709.7"/>
				<path id="path11605" inkscape:connector-curvature="0" class="st1" d="M605.9,184.2c2.5-4.1,5.5-8.4,7.1-10.6
					c3.5-4.7-5.9,7.9-9.9,14.6C600,193.4,602.1,190.3,605.9,184.2"/>
				<path id="path11607" inkscape:connector-curvature="0" class="st1" d="M365.9,504.8c7.1-10.2-3.5-22.2-14.7-16.6
					c-8.8,4.4-11.4,14.7-4.2,20.5C352.4,513.1,360.6,512.3,365.9,504.8"/>
				<path id="path11609" inkscape:connector-curvature="0" class="st1" d="M388.5,477.4c4.8-6.7,2.9-14.9-3.7-17.5
					c-11.5-4.5-24.8,12.9-13.3,21.4C376,484.7,384,483.7,388.5,477.4"/>
				<path id="path11611" inkscape:connector-curvature="0" class="st1" d="M162.6,673.8c6.9-6,8.6-13.2,4.2-19
					c-9.7-12.8-37.3,4.1-27.1,19C144.6,681.1,155.4,680,162.6,673.8"/>
				<path id="path11613" inkscape:connector-curvature="0" class="st1" d="M410.7,450.3c2-3,2.6-6,2.5-8.1c-0.1-1.6-0.5-4.2-2.9-6.6
					c-4.5-4.5-13.7-2.6-17.8,3.4c-2.4,3.6-3.4,9.8,0.1,13.9C397.7,458.9,406.3,456.8,410.7,450.3"/>
				<path id="path11615" inkscape:connector-curvature="0" class="st1" d="M622.4,158.8c2.8-4.2,5.9-8.2,8-10.1
					c4.5-4.1-5.9,9.4-10.4,15C617.3,167.1,618.7,164.4,622.4,158.8"/>
				<path id="path11617" inkscape:connector-curvature="0" class="st1" d="M431,425.3c3.8-4.7,4.1-9.3,2.8-12.6
					c-2.1-5.5-9.1-7.3-14.5-3.6c-6.9,4.7-8.8,13.5-3.6,18.7C420,432.1,426.7,430.7,431,425.3"/>
				<path id="path11619" inkscape:connector-curvature="0" class="st1" d="M451.3,400.3c4.3-5.5,4.9-12.5,1.2-16.2
					c-8.1-8.1-23.9,8.9-15.3,18.3C440.8,406.4,447.1,405.6,451.3,400.3"/>
				<path id="path11621" inkscape:connector-curvature="0" class="st1" d="M471.9,373.8c2.7-4.3,3.3-8.9,2.1-12.2
					c-3.5-9.3-17-2-18.2,8.6C454.5,381,465.9,383.3,471.9,373.8"/>
				<path id="path11623" inkscape:connector-curvature="0" class="st1" d="M490.9,348.5c2.4-4.1,3.3-9,2.1-12.1
					c-2.1-5.4-8.7-4.5-13.6,2c-2.4,3.2-3.6,7.2-3.2,10.4C477.1,356.9,485.4,357.8,490.9,348.5"/>
				<path id="path11625" inkscape:connector-curvature="0" class="st1" d="M197.7,637.3c10.8-11.1-0.5-25.7-13.5-21.8
					c-14.8,4.4-17.5,22-6.1,27.1C183.2,644.8,191,644.2,197.7,637.3"/>
				<path id="path11627" inkscape:connector-curvature="0" class="st1" d="M508.3,324.7c3.2-5,4.3-10.1,3.2-13.4
					c-1-2.9-3.9-3.7-7.4-1.6c-5.8,3.6-10.6,13.8-6.8,19C499.8,332,504.7,330.3,508.3,324.7"/>
				<path id="path11629" inkscape:connector-curvature="0" class="st1" d="M526.1,299.1c4.9-8.1,4.4-16.4-0.6-15
					c-4.8,1.4-11.6,11-10.8,17.4C515.6,308.1,521.7,306.4,526.1,299.1"/>
				<path id="path11631" inkscape:connector-curvature="0" class="st1" d="M640,134.1c6.4-8.9,14.5-14.5,7.6-5.6
					C640.3,137.8,632.8,144.1,640,134.1"/>
				<path id="path11633" inkscape:connector-curvature="0" class="st1" d="M542.5,274.8c2.2-3.4,3.2-6,3.9-8.4
					c0.1-0.4,0.8-2.1,0.7-3.7c-0.1-5.2-4.9-2.5-8.3,1.6C529.6,275.4,533.9,287.9,542.5,274.8"/>
				<path id="path11635" inkscape:connector-curvature="0" class="st1" d="M228.6,603.4c3.2-3.4,4.4-7.1,4.3-9.9
					c0-0.7-0.4-4.3-3.2-7.3c-4-4.2-12.4-4.8-17.3-2.6c-10.1,4.8-13.4,16.5-5.4,23.1C212.5,611.2,222,610.5,228.6,603.4"/>
				<path id="path11637" inkscape:connector-curvature="0" class="st1" d="M558.9,250.2c3.9-5.7,7.1-13.6,5-14.6
					c-1.8-0.8-6.8,4.1-9.8,9.7c-3.8,7-2.6,11.5,0.2,9.9C555.4,254.6,557.4,252.4,558.9,250.2"/>
				<path id="path11639" inkscape:connector-curvature="0" class="st1" d="M659.9,108.6c2.4-3.1,4.8-5.3,6.1-6.3
					c4.8-3.8,4.7-1.7,2.4,1.3C662,112,652.2,118.3,659.9,108.6"/>
				<path id="path11641" inkscape:connector-curvature="0" class="st1" d="M258.2,570.6c2.6-3,3.3-5.6,3.4-7.7
					c0.1-2.7,0.6-3-1.6-6.2c-5.1-7.4-16.7-7.5-23.5-0.7C224.1,568.7,244.6,586.2,258.2,570.6"/>
				<path id="path11643" inkscape:connector-curvature="0" class="st1" d="M576.2,224.7c2.3-3.3,4.2-7,5-8.7
					c2.9-6.5-0.1-5.3-4.4-0.2c-3.6,4.3-6.8,10.3-6.9,13.1C569.8,231.9,572.7,229.8,576.2,224.7"/>
				<path id="path11645" inkscape:connector-curvature="0" class="st1" d="M284.6,540.5c5.3-5.6,5.3-14.5-3.1-18
					c-6.6-2.8-14.8,1-18,6.2C256.2,540.4,274,551.8,284.6,540.5"/>
				<path id="path11647" inkscape:connector-curvature="0" class="st1" d="M594,199.3c2.1-2.9,4.1-6.1,5-7.7c3.6-6.1,1-4.8-4.6,2.4
					C586.8,203.6,586,210.5,594,199.3"/>
				<path id="path11649" inkscape:connector-curvature="0" class="st1" d="M96.6,677.7c2.7-2.4,3.7-4.1,4.3-5.6
					c1-2.6,1.9-5.6-0.8-9.5c-4.8-6.9-18.9-2.7-22.4,6.4C73.4,680,86.6,686.6,96.6,677.7"/>
				<path id="path11651" inkscape:connector-curvature="0" class="st1" d="M311.3,510.3c3.8-4.5,3.9-9.3,0.5-13
					c-10.5-11.6-31.8,7-16.9,16.5C299.7,516.9,306.9,515.6,311.3,510.3"/>
				<path id="path11653" inkscape:connector-curvature="0" class="st1" d="M611.3,175.6c2.9-3.9,6-8,7.7-10.3c5-7-7.3,6.9-11,13.1
					C605.5,182.5,607.8,180.3,611.3,175.6"/>
				<path id="path11655" inkscape:connector-curvature="0" class="st1" d="M336.8,482.1c9.5-11.8-10.7-23.7-18.9-9.5
					c-2.3,3.9-1.3,8.9,1.9,11.7C324.7,488.7,332.4,487.5,336.8,482.1"/>
				<path id="path11657" inkscape:connector-curvature="0" class="st1" d="M132.9,642.3c4.6-4.4,6.1-10.5,2.6-15.3
					c-4.4-6-14.1-5.8-20.9,0.7C102.8,639.3,119.1,655.6,132.9,642.3"/>
				<path id="path11659" inkscape:connector-curvature="0" class="st1" d="M361.5,455.4c7.7-9.1-3.4-20.4-13.3-14.2
					c-5.4,3.4-6.9,8.9-5.2,12.8C346.7,462.3,357.1,460.6,361.5,455.4"/>
				<path id="path11661" inkscape:connector-curvature="0" class="st1" d="M630.7,150.6c5.5-6.9,12-13.3,8.5-9.3
					c-2.5,2.9-9.1,10.2-11.7,13.5C625.7,157,627.1,155.1,630.7,150.6"/>
				<path id="path11663" inkscape:connector-curvature="0" class="st1" d="M386.3,428.8c1.9-2.6,2.2-3.8,2.4-5.5
					c0.6-7.8-9.5-13.3-17.4-6.3c-3.2,2.9-4.9,7.9-3.4,11.5C371.2,436.2,381.5,435.2,386.3,428.8"/>
				<path id="path11665" inkscape:connector-curvature="0" class="st1" d="M409.7,404.2c3.8-4.8,4.2-12.3-2.1-15
					c-3.5-1.5-8.4-0.2-11.7,2.8C384.4,402.4,399.9,416.4,409.7,404.2"/>
				<path id="path11667" inkscape:connector-curvature="0" class="st1" d="M433.2,379.5c2-2.8,2.7-5.9,2.6-8.1
					c0-0.5,0.1-1.6-0.9-3.3c-3.5-6.3-11.7-4.3-16.1,0.8c-3.2,3.7-4.1,9.6-0.8,13.3C422,386.8,428.9,385.3,433.2,379.5"/>
				<path id="path11669" inkscape:connector-curvature="0" class="st1" d="M455.4,355.7c2.9-4,4-8.7,1.7-12.3
					c-3.2-4.9-10.3-3.4-14.7,1.9c-2.9,3.5-3.8,8.9-2.3,11.7C443.3,363.1,450.7,362.1,455.4,355.7"/>
				<path id="path11671" inkscape:connector-curvature="0" class="st1" d="M476.8,332.2c7.9-10.3,0.3-20.9-9.3-12.3
					c-6.2,5.6-6.5,14.8-1.1,17C468.9,337.9,473.1,336.9,476.8,332.2"/>
				<path id="path11673" inkscape:connector-curvature="0" class="st1" d="M498.1,307.7c3.2-4.4,4.6-9.9,2.2-13.1
					c-4.6-6.1-18.8,7.4-14.8,15.9C487.6,315.1,493.6,314,498.1,307.7"/>
				<path id="path11675" inkscape:connector-curvature="0" class="st1" d="M166.3,608.2c4.9-5,5.3-10,2.4-14.4
					c-9.1-13.5-33.2,2.6-24.1,15.2C149.3,615.8,159.3,615.3,166.3,608.2"/>
				<path id="path11677" inkscape:connector-curvature="0" class="st1" d="M651,126.4c6.8-8,14.7-13.6,7.8-6.1
					c-2.9,3.2-7.8,8.1-10,10C646.6,132.1,647.5,130.5,651,126.4"/>
				<path id="path11679" inkscape:connector-curvature="0" class="st1" d="M518.2,283.8c2.1-2.8,3.3-5.8,3.7-7.8
					c0.1-0.2,0.4-1.3,0.2-2.9c-1.5-10.7-18.4,4.6-15.3,13.6C508.4,291.2,513.6,289.9,518.2,283.8"/>
				<path id="path11681" inkscape:connector-curvature="0" class="st1" d="M537.7,260c3.4-4.4,4.9-8.7,4.7-11.5
					c-0.7-8.9-17.2,6.7-14.5,14.9C529.1,267.1,533.6,265.5,537.7,260"/>
				<path id="path11683" inkscape:connector-curvature="0" class="st1" d="M196.9,576.3c4.9-4.9,5.2-10.7,1.4-15.1
					c-8.6-9.8-28,0.1-24.2,12.1C177.5,583.6,190.7,582.5,196.9,576.3"/>
				<path id="path11685" inkscape:connector-curvature="0" class="st1" d="M557.4,235.8c2.9-3.7,4.6-7.4,5.2-9.6
					c2.3-9.9-11.3,1.6-13.5,10.2C547.3,243.3,552.3,242.3,557.4,235.8"/>
				<path id="path11687" inkscape:connector-curvature="0" class="st1" d="M679,99.6c-6.3,6-12.5,9.8-6.1,2.8c0.9-1,1.8-1.9,2.7-2.8
					L679,99.6z"/>
				<path id="path11689" inkscape:connector-curvature="0" class="st1" d="M576.2,212.8c8.3-9.7,10.1-19.3,0.6-9.6
					c-3,3.1-7.1,9-7.2,12.3C569.5,218.8,572.9,216.7,576.2,212.8"/>
				<path id="path11691" inkscape:connector-curvature="0" class="st1" d="M225.7,545.1c4.6-4.5,5-9.2,2.7-12.7
					c-8.9-13.5-31.6,1.6-22.3,12.9C210.7,550.9,219.9,550.7,225.7,545.1"/>
				<path id="path11693" inkscape:connector-curvature="0" class="st1" d="M596.5,188.7c3.1-3.6,6.5-8.2,7.8-10.9
					c2.4-5.1-5,0.6-10.3,8C588.3,193.8,590.7,195.3,596.5,188.7"/>
				<path id="path11695" inkscape:connector-curvature="0" class="st1" d="M254.4,514.3c1-1.1,2-2.6,2.4-3.7
					c2.5-8.5-9.8-16.4-18.9-9.4C224.9,511.1,243.7,526.7,254.4,514.3"/>
				<path id="path11697" inkscape:connector-curvature="0" class="st1" d="M617.9,164.3c4.3-4.7,8.7-10.1,8.9-11.2
					c0.1-0.6-1.6,0.6-4.6,3.4c-3.9,3.7-10.6,11.7-9.7,12.6C612.8,169.4,614.7,167.8,617.9,164.3"/>
				<path id="path11699" inkscape:connector-curvature="0" class="st1" d="M281.1,485.9c2.1-2.3,2.7-3.8,2.8-5.5
					c0.9-11.6-21.7-12.3-21.8,0.6C262.1,489.3,274.6,493,281.1,485.9"/>
				<path id="path11701" inkscape:connector-curvature="0" class="st1" d="M308.2,457.9c6-7.3-3.3-16.2-11.6-12.5
					C280.8,452.5,297.9,470.3,308.2,457.9"/>
				<path id="path11703" inkscape:connector-curvature="0" class="st1" d="M639.5,140.9c4.1-4.3,7.8-8,9.5-9.8
					c3.2-3.4-5.7,4.4-11.3,10.7C632.8,147.3,635,145.6,639.5,140.9"/>
				<path id="path11705" inkscape:connector-curvature="0" class="st1" d="M103.5,613.4c10.9-10-1.8-22.5-12.8-14.9
					C76.7,608.2,90.9,624.9,103.5,613.4"/>
				<path id="path11707" inkscape:connector-curvature="0" class="st1" d="M334.1,432.7c8.9-8.8-4.5-19.3-13.6-11.8
					C310.6,429.2,325,441.6,334.1,432.7"/>
				<path id="path11709" inkscape:connector-curvature="0" class="st1" d="M361.1,406.9c3.3-3.7,3.1-7.4,1.7-9.8
					c-6.5-11.3-27.3,2.6-16.2,11.8C350.7,412.3,356.9,411.8,361.1,406.9"/>
				<path id="path11711" inkscape:connector-curvature="0" class="st1" d="M386.7,383.7c3.8-3.8,4.6-8.2,2.7-11.4
					c-3.5-5.7-10.6-5.2-15.3-1.6C362.1,380,376.9,393.2,386.7,383.7"/>
				<path id="path11713" inkscape:connector-curvature="0" class="st1" d="M438.1,336.7c3.5-3.9,5-8.9,2.3-12.6
					c-4.9-7-18-0.2-18.6,8.6C421.3,341.9,432.3,343.1,438.1,336.7"/>
				<path id="path11715" inkscape:connector-curvature="0" class="st1" d="M413,359.5c7.7-8.7-1.1-19.5-10.7-13.6
					C387.1,355.1,402.5,371.2,413,359.5"/>
				<path id="path11717" inkscape:connector-curvature="0" class="st1" d="M463.1,313.2c2.5-3,3.6-7,3.4-8.9c-0.6-9-12.5-6.3-16.9,1
					C443.2,315.7,455.1,322.8,463.1,313.2"/>
				<path id="path11719" inkscape:connector-curvature="0" class="st1" d="M486.5,290.3c3.6-4.1,5.5-10,2.5-13.3
					c-5.2-5.5-21.2,8.6-14.3,16.3C477.2,296.2,482.4,294.9,486.5,290.3"/>
				<path id="path11721" inkscape:connector-curvature="0" class="st1" d="M662.5,117.6c3.8-3.7,7.2-6.7,9.5-8.6
					c3.2-2.5,0.9-0.2-4.5,4.6c-3.1,2.8-6.4,5.8-8,7.2C657.4,122.8,659.1,121,662.5,117.6"/>
				<path id="path11723" inkscape:connector-curvature="0" class="st1" d="M135,581.2c3.8-3.2,4.7-5.9,4.7-8.5
					c0-0.1-0.3-2.9-1.4-4.7c-4.7-7.2-16.5-5.7-21,1.9C110.8,580.7,125.2,589.6,135,581.2"/>
				<path id="path11725" inkscape:connector-curvature="0" class="st1" d="M510,266.8c8.1-9.5,3-19.2-6.9-10.5
					c-3.9,3.4-6.6,9.2-5.4,12.7C499.2,273.4,505,272.7,510,266.8"/>
				<path id="path11727" inkscape:connector-curvature="0" class="st1" d="M531.3,245.2c4.3-4.2,7-9.7,6.3-12.9
					c-1.9-7.8-18.3,6.1-15.9,14.2C522.7,250,526.7,249.7,531.3,245.2"/>
				<path id="path11729" inkscape:connector-curvature="0" class="st1" d="M554.6,221.3c3.3-3.4,6-8.1,6.3-10.4
					c1.4-11.2-18.7,6.2-15.3,13.6C546.6,226.7,550.5,225.7,554.6,221.3"/>
				<path id="path11731" inkscape:connector-curvature="0" class="st1" d="M166.2,549.4c4.3-4.1,5.6-9.7,0.8-14.3
					c-3.2-3.1-9.7-3.4-12.4-2.5c-14.3,4.6-8.8,21.3,2.1,21C159.3,553.5,163.7,551.9,166.2,549.4"/>
				<path id="path11733" inkscape:connector-curvature="0" class="st1" d="M577.8,197.7c3.3-3.5,6.4-7.9,7-10.9
					c1-5.4-10.6,1.8-14.7,10.3C566.7,204.2,571.7,204.1,577.8,197.7"/>
				<path id="path11735" inkscape:connector-curvature="0" class="st1" d="M195.7,518.3c8.2-9-5-20.1-15.1-13.2
					C167.4,514,184.2,530.8,195.7,518.3"/>
				<path id="path11737" inkscape:connector-curvature="0" class="st1" d="M601,174.6c3.2-3.2,6.3-7,7.7-9.7c1.6-3.3-0.6-3-3.6-0.9
					c-6.3,4.3-13.6,14.1-11.5,15.5C594.3,180,597,178.6,601,174.6"/>
				<path id="path11739" inkscape:connector-curvature="0" class="st1" d="M223.1,489.8c4.6-4.2,4.7-11.1-2.4-14.1
					c-9.5-4-21.7,8.1-11.9,15.4C212.6,494,219.1,493.5,223.1,489.8"/>
				<path id="path11741" inkscape:connector-curvature="0" class="st1" d="M624.3,152.2c4.6-4.3,10.3-10.5,10-11.8
					c-0.4-1.9-13.5,8.9-16.1,14.6C616.8,157.9,619.5,156.7,624.3,152.2"/>
				<path id="path11743" inkscape:connector-curvature="0" class="st1" d="M250.9,461.7c3.4-3.2,3.7-7,2-9.5
					c-3.3-4.9-8.8-4.6-11.3-3.8C225.4,453.2,239.9,472.1,250.9,461.7"/>
				<path id="path11745" inkscape:connector-curvature="0" class="st1" d="M649.2,129.4c3.5-3.1,7.3-6.6,9.5-8.9
					c4.3-4.4-0.6-1.3-6.9,4C642.8,132.3,639.8,137.8,649.2,129.4"/>
				<path id="path11747" inkscape:connector-curvature="0" class="st1" d="M279.2,434.2c3.2-3.4,3.1-6.4,0.8-9.1
					c-5.3-6.4-16.5-2.5-17.1,4.6C262.4,437.4,273.8,439.9,279.2,434.2"/>
				<path id="path11749" inkscape:connector-curvature="0" class="st1" d="M76.2,585.3C76.2,585.3,76.2,585.2,76.2,585.3
					c5.2-4.9,3.9-10.7,0.1-13.3L76.2,585.3z"/>
				<path id="path11751" inkscape:connector-curvature="0" class="st1" d="M307.7,408.3c6.5-7.2-4.3-16.8-13.1-10.1
					c-3.1,2.4-5.2,7.2-1.1,11.1C297.3,413.1,303.6,412.8,307.7,408.3"/>
				<path id="path11753" inkscape:connector-curvature="0" class="st1" d="M336.2,384c3.5-3.8,4.2-9.5-2.1-12.7
					c-6.4-3.2-17.9,3.2-15,10.8C321.6,388.5,331,389.5,336.2,384"/>
				<path id="path11755" inkscape:connector-curvature="0" class="st1" d="M365,360.4c3.5-3.7,4-7.7,1-11.3c-7.8-9-23.7,2.4-18.3,11
					C351.8,366.5,360.2,365.5,365,360.4"/>
				<path id="path11757" inkscape:connector-curvature="0" class="st1" d="M421.5,315.2c3.7-4,5.4-9.4,0.8-13.6
					c-6.5-6-22,3.8-18.4,12.9C406.6,321.2,415.8,321.3,421.5,315.2"/>
				<path id="path11759" inkscape:connector-curvature="0" class="st1" d="M393.3,337.7c3.7-3.8,4.9-8.4,1.3-12.4
					c-4.7-5.2-14.6-3.2-18.4,3.6C371.2,337.9,384,347.2,393.3,337.7"/>
				<path id="path11761" inkscape:connector-curvature="0" class="st1" d="M448.8,293c1.8-1.9,2.9-3.9,3.3-5.3
					c0.5-1.9,1.1-3.9-0.7-6.7c-4.6-7-18.9,0.1-19.3,9c-0.2,5,4.6,8.2,8.8,7.6C442.9,297.3,446.4,295.6,448.8,293"/>
				<path id="path11763" inkscape:connector-curvature="0" class="st1" d="M683.8,99.7c-2.9,2.1-7,5.3-10.3,8.3
					c-6.1,5.3-3.2,3.3,1.5-0.6c3.3-2.7,6.9-5.6,9.4-7.7L683.8,99.7z"/>
				<path id="path11765" inkscape:connector-curvature="0" class="st1" d="M475,271c4.1-4.1,5.7-8.5,3.5-12.2
					c-4.9-8.2-24.2,5.7-17.1,14.5C464.2,276.6,470.2,275.8,475,271"/>
				<path id="path11767" inkscape:connector-curvature="0" class="st1" d="M108.1,553.1c4.5-4.8,3.9-10.9-1.8-14.1
					c-9.6-5.4-24.2,9.7-12.4,17.3C97.5,558.5,103.4,558.1,108.1,553.1"/>
				<path id="path11769" inkscape:connector-curvature="0" class="st1" d="M500.5,249.1c4.3-4,5.7-8.3,5.4-10.8
					c-1.4-10.1-17-0.2-18.4,8.1C486.3,254.2,494.6,254.7,500.5,249.1"/>
				<path id="path11771" inkscape:connector-curvature="0" class="st1" d="M527,226.3c3.7-3.6,6.1-8.4,5.5-11.5
					c-1.7-8.2-20.6,4.6-18,13.4C515.8,232.7,521.6,231.5,527,226.3"/>
				<path id="path11773" inkscape:connector-curvature="0" class="st1" d="M551.4,205.2c4-3.4,6.9-7.7,7.6-10.4c1.3-5.1-3-6.3-9.2-2
					c-4.6,3.2-9,9.1-8.8,12.9C541.2,210.1,546.3,209.6,551.4,205.2"/>
				<path id="path11775" inkscape:connector-curvature="0" class="st1" d="M137,523.1c3.7-3.7,3.8-7.6,2.8-9.9
					c-2.9-6.5-11-6.7-14.9-4.7C109.1,516.7,125.4,534.7,137,523.1"/>
				<path id="path11777" inkscape:connector-curvature="0" class="st1" d="M577.7,182.7c9.9-8.4,12-17.7,3-13.2
					c-8.5,4.3-14.9,14.5-12,16.9C569.9,187.5,573.5,186.3,577.7,182.7"/>
				<path id="path11779" inkscape:connector-curvature="0" class="st1" d="M166,492.9c3.4-3.7,4.2-7.8-0.6-11.9
					c-8.7-7.4-23.7,4.3-15.6,12.8C154,498.1,161.3,498,166,492.9"/>
				<path id="path11781" inkscape:connector-curvature="0" class="st1" d="M604,160.7c8.4-6.9,14.1-16,7.6-13.9
					c-4.5,1.4-11.9,7.5-14.9,12.2C592.1,166.3,597.1,166.4,604,160.7"/>
				<path id="path11783" inkscape:connector-curvature="0" class="st1" d="M194.1,464.1c2.9-3.1,3.7-6.9-0.1-10.5
					c-8.7-8.2-24.1,4.6-14,12.2C183.7,468.6,190.4,468,194.1,464.1"/>
				<path id="path11785" inkscape:connector-curvature="0" class="st1" d="M630.9,138.8c10.9-8.6,16.5-17.4,6.4-11.3
					C623.3,135.9,617.2,149.5,630.9,138.8"/>
				<path id="path11787" inkscape:connector-curvature="0" class="st1" d="M221.7,436.8c6.8-6.6-2.3-14.7-10.1-11.6
					C198.4,430.4,211.9,446.2,221.7,436.8"/>
				<path id="path11789" inkscape:connector-curvature="0" class="st1" d="M659.5,116.6c10.4-7.8,18-15.9,8-9.9
					C653.6,115,645.1,127.4,659.5,116.6"/>
				<path id="path11791" inkscape:connector-curvature="0" class="st1" d="M250.9,409.9c7-7.4-6.4-15.8-13.8-9
					C230.2,407.4,242.8,418.5,250.9,409.9"/>
				<path id="path11793" inkscape:connector-curvature="0" class="st1" d="M280.5,384.4c6.2-6.6-3.2-13.8-10.1-11.6
					C255.8,377.6,270.3,395.3,280.5,384.4"/>
				<path id="path11795" inkscape:connector-curvature="0" class="st1" d="M309.9,361.7c5.6-4.5,4.7-9.2,1.4-12.2
					c-9.2-8.5-28,6.5-13.5,13.9C301.5,365.3,306.8,364.2,309.9,361.7"/>
				<path id="path11797" inkscape:connector-curvature="0" class="st1" d="M341.3,338.3c5-4.4,5.9-11.6-1.5-15.1
					c-8.6-4.1-20.1,4.3-17.5,11.9C325.2,343.2,335.9,343.1,341.3,338.3"/>
				<path id="path11799" inkscape:connector-curvature="0" class="st1" d="M403.3,293.4c2.2-2.1,3.6-4.4,4.1-6.1
					c0.4-1.7,1-4-1.3-7.1c-8.1-10.7-30.8,5.1-19.7,15.2C390.3,298.8,397.9,298.4,403.3,293.4"/>
				<path id="path11801" inkscape:connector-curvature="0" class="st1" d="M373.2,314.9c3.6-3.5,4.7-8.6,1.4-12.5
					c-5.3-6.1-16.6-3.1-20.5,2.7c-4.5,6.8,1.8,14.3,8.5,14.4C365.9,319.5,369.9,318.1,373.2,314.9"/>
				<path id="path11803" inkscape:connector-curvature="0" class="st1" d="M432.6,272.4c5.3-4.4,6.7-10,4.1-13.8
					c-6.8-9.5-28.2,4-20.6,14.2C419.6,277.5,427.1,277,432.6,272.4"/>
				<path id="path11805" inkscape:connector-curvature="0" class="st1" d="M461.1,251.4c5.3-4,7.4-8.9,6.1-12.6
					c-4.3-12.6-29.7,4.1-19.7,14C450.3,255.6,456.5,254.9,461.1,251.4"/>
				<path id="path11807" inkscape:connector-curvature="0" class="st1" d="M76.7,530.7c1.6-0.7,3.1-1.8,4.4-3.2
					c2.6-2.9,3-6.8,2.2-8.9c-1.3-3.4-3.9-4.9-6.5-5.3L76.7,530.7z"/>
				<path id="path11809" inkscape:connector-curvature="0" class="st1" d="M491.3,228.9c2.6-2.2,4-4.1,4.8-5.7c1-2,1.8-3.2,1-6.2
					c-2.7-10-23.5,1.3-21.3,11.2C477.2,234.5,484.9,234.4,491.3,228.9"/>
				<path id="path11811" inkscape:connector-curvature="0" class="st1" d="M520.2,207.6c11.6-9.5,7-22.3-7.2-12.2
					c-6.3,4.5-9.3,12.1-5.4,15.3C510,212.6,514.6,212.2,520.2,207.6"/>
				<path id="path11813" inkscape:connector-curvature="0" class="st1" d="M548.1,187.3c6.8-4.9,9.2-9.5,9.5-12.7
					c1-10.4-22,1-22,11.8C535.6,192.4,542.3,191.5,548.1,187.3"/>
				<path id="path11815" inkscape:connector-curvature="0" class="st1" d="M108.5,498.6c4.4-3.9,4.6-8.2,2-11.7
					c-7.3-9.9-25.2,1.4-17,11.3C97.4,502.8,104.5,502.2,108.5,498.6"/>
				<path id="path11817" inkscape:connector-curvature="0" class="st1" d="M578.5,165.2c4.6-3.4,8.5-8,9.7-11.1
					c2.8-7.2-6.4-5.4-13.7-0.1c-6.9,5.1-10.7,13-7.5,15.2C568.6,170.2,572.7,169.5,578.5,165.2"/>
				<path id="path11819" inkscape:connector-curvature="0" class="st1" d="M136.9,468.6c3.8-3.9,4.5-10.3-2.5-13.6
					c-6.6-3-17.4,3-14.6,10.8C122.1,472.3,131.3,474.2,136.9,468.6"/>
				<path id="path11821" inkscape:connector-curvature="0" class="st1" d="M607.8,144.3c4.2-3,8.2-7,9.6-8.8
					c8.3-10.7-5.2-8.2-15.5,1.8C592.8,146.4,596.2,152.5,607.8,144.3"/>
				<path id="path11823" inkscape:connector-curvature="0" class="st1" d="M164.5,440.1c1.6-1.6,2.5-3.4,2.7-4.8
					c0.7-7.4-12.5-12.5-18.2-4.3C143.3,439.1,157.1,447.5,164.5,440.1"/>
				<path id="path11825" inkscape:connector-curvature="0" class="st1" d="M637.5,123.8c5.5-3.6,10.7-8,13.3-11.6
					c4.6-6.2-3.3-4.3-12,1.7C626,122.7,624.4,132.3,637.5,123.8"/>
				<path id="path11827" inkscape:connector-curvature="0" class="st1" d="M193,412c5.8-6.3-3.1-14.2-10.7-11
					c-5.3,2.2-6.4,7.3-4.4,10.2C182,417.2,189.4,416,193,412"/>
				<path id="path11829" inkscape:connector-curvature="0" class="st1" d="M665.6,99.5c-1.3,1.1-2.4,2.2-3.2,3.3
					c-3.9,4.8-0.2,4.4,7-0.1c1.6-1,3.2-2.1,4.8-3.1L665.6,99.5z"/>
				<path id="path11831" inkscape:connector-curvature="0" class="st1" d="M222.5,385.5c2.5-2.8,2.2-5.7,0.9-7.5
					c-6.6-9.3-22.3-0.1-15.5,7.7C211.8,390.1,218.3,390.1,222.5,385.5"/>
				<path id="path11833" inkscape:connector-curvature="0" class="st1" d="M252.4,361.3c5.5-4.8,1.3-12.7-6.2-13.1
					c-7.9-0.4-15.4,9.9-5.9,14.8C243.1,364.4,248.8,364.5,252.4,361.3"/>
				<path id="path11835" inkscape:connector-curvature="0" class="st1" d="M284.9,337.1c4-3.8,3.8-8.7-0.3-12.1
					c-10.7-8.8-28.7,8.1-13.2,14.7C275.3,341.4,280.9,341,284.9,337.1"/>
				<path id="path11837" inkscape:connector-curvature="0" class="st1" d="M317.7,314.7c5.3-4.6,5.1-12.3-2.3-15.9
					c-11.8-5.7-25,8.1-16.6,16.1C303.8,319.7,312.1,319.5,317.7,314.7"/>
				<path id="path11839" inkscape:connector-curvature="0" class="st1" d="M351.1,292.3c2.9-2.6,4.2-6,4.1-8.5c0-0.5,0.2-1.8-1-3.8
					c-6.2-10.8-28-4.2-26.3,7.7C329.4,297.4,343.6,299.1,351.1,292.3"/>
				<path id="path11841" inkscape:connector-curvature="0" class="st1" d="M384.3,270.6c3-2.6,4.5-6.5,4.7-8.7
					c0-0.5-0.4-3.9-1.8-5.7c-4.5-5.8-17.3-5.4-23.5,2.2c-1.8,2.3-2.9,5.8-2.5,8.2C362.5,275.8,376.1,277.8,384.3,270.6"/>
				<path id="path11843" inkscape:connector-curvature="0" class="st1" d="M416.5,249.4c5-4.2,7.3-10.8,3.1-15.3
					c-6.8-7.4-25.7,0.7-24.8,11.1C395.7,254.6,408.4,256.2,416.5,249.4"/>
				<path id="path11845" inkscape:connector-curvature="0" class="st1" d="M448.3,228.6c4.7-3.6,6.9-8.1,6.2-11.8
					c-2.5-13.6-30.5-2.4-25.3,10.5C432,234.1,441.3,233.9,448.3,228.6"/>
				<path id="path11847" inkscape:connector-curvature="0" class="st1" d="M479.9,208.1c6-4.2,8.9-9,7.6-13.6
					c-3-11.1-26.4-0.8-25.3,10.5C462.9,212.4,471.7,213.8,479.9,208.1"/>
				<path id="path11849" inkscape:connector-curvature="0" class="st1" d="M513.1,186.7c6.6-4.8,11-13.1,5.8-16.5
					c-7.6-4.8-26.4,7.5-22.8,16.9C498,192.2,505.6,192.1,513.1,186.7"/>
				<path id="path11851" inkscape:connector-curvature="0" class="st1" d="M544.4,167.1c6.4-4.1,10.4-8.9,11-13.3
					c1.4-10.9-20.2-3.5-25.3,7.4C525.5,171.2,535.6,172.7,544.4,167.1"/>
				<path id="path11853" inkscape:connector-curvature="0" class="st1" d="M77.2,476.9c1.6-0.5,3.2-1.4,4.7-2.9
					c5.7-5.8,1.6-13.5-4.5-14.8L77.2,476.9z"/>
				<path id="path11855" inkscape:connector-curvature="0" class="st1" d="M578.1,146.3c5.8-3.7,9.5-8.2,10.8-10.5
					c2.1-3.5,1.8-5.3,0.9-6.4c-3-3.9-19,1.6-25.1,11.5C559.1,150.1,567.3,153.2,578.1,146.3"/>
				<path id="path11857" inkscape:connector-curvature="0" class="st1" d="M108.3,445.1c3.9-3.6,3.9-6.7,2.6-9.4
					c-6.9-13.8-28,0.9-16,10.4C98.8,449.3,104.7,448.5,108.3,445.1"/>
				<path id="path11859" inkscape:connector-curvature="0" class="st1" d="M610.8,126.4c6.8-4,12.3-9.1,14.1-12.9
					c5-10.2-15.3-3.5-24,6.8c-4.7,5.6-2.8,9.3-0.1,9.6C602.8,129.9,606.5,128.9,610.8,126.4"/>
				<path id="path11861" inkscape:connector-curvature="0" class="st1" d="M136.1,415.6c6.1-6.9-4.3-16.1-12.2-12
					C111,410.6,126.7,426.3,136.1,415.6"/>
				<path id="path11863" inkscape:connector-curvature="0" class="st1" d="M639.1,99.4c-9.9,8.7-5.7,13.5,6.6,6.5
					c3.3-1.9,6.7-4.1,9.5-6.4L639.1,99.4z"/>
				<path id="path11865" inkscape:connector-curvature="0" class="st1" d="M163.4,389c3.9-3.6,3.5-7.5,0.1-10.6
					c-8.5-7.6-23.8,4.2-12.2,11.8C154.8,392.5,159.9,392.1,163.4,389"/>
				<path id="path11867" inkscape:connector-curvature="0" class="st1" d="M192,362.7c9.3-7.2-4.3-17-12.3-11.2
					C170.8,358,183.5,369.3,192,362.7"/>
				<path id="path11869" inkscape:connector-curvature="0" class="st1" d="M224.2,337.2c3.9-3.6,4.7-9.2-1.9-12.7
					c-7.7-4.1-19.2,2.4-15.8,10C209.4,341,219,341.9,224.2,337.2"/>
				<path id="path11871" inkscape:connector-curvature="0" class="st1" d="M256,314.6c5.6-3.8,6.4-9.7,2-13.8
					c-10.1-9.4-28.4,2.9-19.1,12.4C244,318.4,251.5,317.6,256,314.6"/>
				<path id="path11873" inkscape:connector-curvature="0" class="st1" d="M291.2,291.6c8.8-6.4,5.6-18.4-7.1-19.5
					c-11.4-1-18.5,8.5-15.4,15.3C272.8,296.3,284.5,296.5,291.2,291.6"/>
				<path id="path11875" inkscape:connector-curvature="0" class="st1" d="M327,268.9c6-4.7,7.2-10.6,2.7-15.8
					c-3.2-3.6-10.1-5.5-15.7-4.3c-13.6,2.9-16.5,16-6.9,22C312.6,274.3,321.1,273.5,327,268.9"/>
				<path id="path11877" inkscape:connector-curvature="0" class="st1" d="M362.5,246.9c5.2-4,7-9.4,4.7-13.9
					c-8-15.3-38.5-1.4-29.1,12.4C342.9,252.4,354.2,253.4,362.5,246.9"/>
				<path id="path11879" inkscape:connector-curvature="0" class="st1" d="M397.5,225.8c6-4.3,8.2-10.8,4.8-15.8
					c-6.9-9.9-30-2.9-29.5,10.1C373.2,230.5,387.9,232.7,397.5,225.8"/>
				<path id="path11881" inkscape:connector-curvature="0" class="st1" d="M431.8,205.6c12.9-8.3,8.9-22.6-5.3-20.7
					c-13.6,1.8-20.7,14.5-14,21.3C416.7,210.2,425.2,209.8,431.8,205.6"/>
				<path id="path11883" inkscape:connector-curvature="0" class="st1" d="M467.9,184.7c2.7-1.7,3.6-2.5,4.8-3.9
					c3.4-3.9,6-9.6,1.9-13.9c-2.8-3-10-3.7-17.3-0.3c-9.6,4.5-13.6,14.2-8.1,19.4C453.1,189.6,461,189.2,467.9,184.7"/>
				<path id="path11885" inkscape:connector-curvature="0" class="st1" d="M504,164.4c5.3-3.3,8.4-7.7,9.2-10
					c0.7-1.9,0.5-5.5,0.1-6.4c-4.2-8.7-27.2-0.6-29.5,11.1C481.9,169.3,494.4,170.4,504,164.4"/>
				<path id="path11887" inkscape:connector-curvature="0" class="st1" d="M539.5,145c7.6-4.2,13.2-10.8,12.8-15.9
					c-0.4-5.2-8-6.7-17.4-2.7c-8.5,3.7-15.9,12.4-13.2,18.3C523.8,149.2,531.5,149.4,539.5,145"/>
				<path id="path11889" inkscape:connector-curvature="0" class="st1" d="M576.6,125.3c7.9-4.3,15-11.2,14.9-16.5
					c-0.1-3.3-4-4.6-8-4.2c-10,1-25.7,11.7-24.3,20C560,129.4,567.9,129.9,576.6,125.3"/>
				<path id="path11891" inkscape:connector-curvature="0" class="st1" d="M77.7,424.2c1.5-0.7,3-1.7,4.2-3.2
					c2.9-3.6,3.3-7.6-0.5-11.4c-1.1-1.1-2.4-1.9-3.6-2.4L77.7,424.2z"/>
				<path id="path11893" inkscape:connector-curvature="0" class="st1" d="M600.8,99.1c-1.5,2-2.3,4-2.3,6c0.1,4.3,7,4.9,16.3,0.2
					c3.4-1.8,6.6-4,9.1-6L600.8,99.1z"/>
				<path id="path11895" inkscape:connector-curvature="0" class="st1" d="M107.2,392.8c6.1-6.7-2.2-15.9-10.3-13.7
					C81.2,383.4,96.6,404.4,107.2,392.8"/>
				<path id="path11897" inkscape:connector-curvature="0" class="st1" d="M134.7,364.5c2.2-2.5,2.2-5.7,1.3-7.4
					c-6.2-11.6-23.4-1.9-17.3,6.7C122.9,369.7,130.7,369,134.7,364.5"/>
				<path id="path11899" inkscape:connector-curvature="0" class="st1" d="M163.5,338.4c4.9-4.9,1.4-12.1-5.7-13.3
					c-9.5-1.7-17.8,11-6,15.8C155.6,342.3,160.5,341.4,163.5,338.4"/>
				<path id="path11901" inkscape:connector-curvature="0" class="st1" d="M195.1,313.2c3.7-3.5,4.4-7.8-0.2-12
					c-7.8-7.1-23.8-0.3-19.1,9.1C179.4,317.4,189.8,318.3,195.1,313.2"/>
				<path id="path11903" inkscape:connector-curvature="0" class="st1" d="M229.4,289c1.9-1.8,3.1-4.1,3.2-6.1
					c0.5-7.6-11.6-15.1-21.6-9.3c-5.7,3.4-7.5,10.3-2.3,15.3C213.8,293.8,223.7,294.4,229.4,289"/>
				<path id="path11905" inkscape:connector-curvature="0" class="st1" d="M264,267.1c7.9-5.8,6.6-13.3,0.2-18.5
					c-10-8-29,1.1-26.5,11.8C240.1,271.1,256,272.9,264,267.1"/>
				<path id="path11907" inkscape:connector-curvature="0" class="st1" d="M301.7,243.7c3.3-2.7,4.6-5.1,5-7.6
					c2-10.6-14.6-18.6-26.9-11.8c-10.1,5.6-9.5,18.2,1.1,22.7C286.9,249.5,295.4,248.8,301.7,243.7"/>
				<path id="path11909" inkscape:connector-curvature="0" class="st1" d="M338.2,222.5c7.7-5.4,9.7-13.6,2.9-19.8
					c-2.9-2.7-10.5-4.3-15.6-3.6c-14.8,2.2-21.4,15.4-11.9,23.6C318.8,227,329.4,228.6,338.2,222.5"/>
				<path id="path11911" inkscape:connector-curvature="0" class="st1" d="M376.5,200.6c8-5.5,10.6-16,0.9-21
					c-3.5-1.8-8.4-2.4-12.8-1.7c-14.8,2.4-19.4,15.3-14.2,21.7C355.9,206.4,367.8,206.5,376.5,200.6"/>
				<path id="path11913" inkscape:connector-curvature="0" class="st1" d="M412.1,181.2c10-5.1,13.9-13.8,8.5-20.1
					c-4.4-5.2-14.8-5.3-22.9-1.2c-9.4,4.8-12.5,14.1-6.6,20.2C395.9,184.9,405,184.8,412.1,181.2"/>
				<path id="path11915" inkscape:connector-curvature="0" class="st1" d="M453.6,159.2c14.1-8.3,11.9-24.5-5.7-22.2
					c-11.6,1.5-24.3,12.6-17.5,21.7C434.5,164.3,444.5,164.6,453.6,159.2"/>
				<path id="path11917" inkscape:connector-curvature="0" class="st1" d="M491.4,140.5c9.4-4.5,14.7-12,13.1-17.7
					c-2.2-7.8-17.9-7.9-28.3,0.5c-2.8,2.3-5.2,5.7-6,8.2C466.6,143.2,481.4,145.2,491.4,140.5"/>
				<path id="path11919" inkscape:connector-curvature="0" class="st1" d="M528.9,98.6c-0.4,0.1-0.9,0.3-1.3,0.5
					c-9.1,3.4-17.5,11.8-16,18.5c1.4,6.1,11.2,7.9,21.2,3c10.1-4.9,18.6-15.2,13.3-20.6c-0.4-0.5-1-0.9-1.6-1.2L528.9,98.6z"/>
				<path id="path11921" inkscape:connector-curvature="0" class="st1" d="M554.2,98.8c0.1,0.4,0.2,0.9,0.3,1.3
					c1.6,4.8,10.6,5.5,20.8,0.7c1.1-0.5,2.3-1.1,3.4-1.8L554.2,98.8z"/>
				<path id="path11923" inkscape:connector-curvature="0" class="st1" d="M78.2,371.2c0.1-0.1,0.3-0.3,0.4-0.4c4-4,3-9.3-0.3-12.6
					L78.2,371.2z"/>
				<path id="path11925" inkscape:connector-curvature="0" class="st1" d="M105,342c8.1-9-8.4-20.1-16.3-10.6
					C82,339.5,96.9,351,105,342"/>
				<path id="path11927" inkscape:connector-curvature="0" class="st1" d="M133.5,314.8c6.8-7.1-2.9-17.2-12.3-14.4
					c-8.1,2.4-10.2,12.6-0.4,16.9C124.6,319.1,130,318.5,133.5,314.8"/>
				<path id="path11929" inkscape:connector-curvature="0" class="st1" d="M164.5,289.5c12.4-11-12.4-24.8-20.7-11.4
					C137.8,288,155.3,297.6,164.5,289.5"/>
				<path id="path11931" inkscape:connector-curvature="0" class="st1" d="M199.3,264.3c4.5-4.1,5.4-10.5-1.2-15.8
					c-6.7-5.3-19.2-4.4-23.8,3C167.4,262.9,187.5,275.3,199.3,264.3"/>
				<path id="path11933" inkscape:connector-curvature="0" class="st1" d="M234.1,242.3c6.5-4.6,8.2-11,4.5-16.3
					c-12.1-17-42-1.5-30.7,13C214.4,247.2,226.9,247.3,234.1,242.3"/>
				<path id="path11935" inkscape:connector-curvature="0" class="st1" d="M273,218.7c5-3.7,6.8-9.1,6.3-12.6
					c-1.7-10.8-18.3-14.5-27.3-11.1c-15.5,6-13,21.2-1.1,26.3C256.8,223.9,266.2,223.7,273,218.7"/>
				<path id="path11937" inkscape:connector-curvature="0" class="st1" d="M311.1,196.8c7.3-4.6,10.2-12.1,6.7-18.2
					c-5.1-8.8-20.6-11.2-31.2-4.3c-4.9,3.2-7.2,8.1-7.2,11.6C279.3,198.8,298.8,204.5,311.1,196.8"/>
				<path id="path11939" inkscape:connector-curvature="0" class="st1" d="M351,174.9c8.5-4.9,12.7-13.2,7.3-20.3
					c-5.6-7.4-18.3-8-27.4-3.7c-9,4.3-13,14.3-7.8,21C328.8,179.2,341.9,180.2,351,174.9"/>
				<path id="path11941" inkscape:connector-curvature="0" class="st1" d="M393.1,152.9c8.2-4.7,13.5-13.4,7.6-20.5
					c-5.8-7-22.4-6.8-31.4,0.7c-4.6,3.9-6.8,10.3-5.1,14.6C368.1,157.5,382.5,159,393.1,152.9"/>
				<path id="path11943" inkscape:connector-curvature="0" class="st1" d="M434,133c8.7-3.9,14.2-10.7,12.8-17.3
					c-1.8-8.5-14.1-10.3-22.9-7.7c-10.3,3.1-20,13.1-14.5,21.7c1.8,2.7,7,5,8.7,5.4C422,136,428.7,135.3,434,133"/>
				<path id="path11945" inkscape:connector-curvature="0" class="st1" d="M455.7,98.1c-1.8,2.5-2.7,5.2-2.3,8
					c1.4,9.5,14.1,11.9,26.4,5.8c6.7-3.3,11.8-8.4,12.9-13.6L455.7,98.1z"/>
				<path id="path11947" inkscape:connector-curvature="0" class="st1" d="M103.1,291.4c7.1-8.5-6.7-19.7-15.7-14.8
					C73.2,284.5,92.4,304.1,103.1,291.4"/>
				<path id="path11949" inkscape:connector-curvature="0" class="st1" d="M133.7,264.9c4.1-4.4,3.8-10.1-1.6-14.7
					c-10.5-8.8-29,1.9-20.7,13.1C117,270.8,128.2,270.6,133.7,264.9"/>
				<path id="path11951" inkscape:connector-curvature="0" class="st1" d="M166.9,239.7c10.8-10-3.4-24.8-17.8-20.3
					c-11.5,3.7-14.5,16.5-1.6,22.9C153.1,245,161.1,245,166.9,239.7"/>
				<path id="path11953" inkscape:connector-curvature="0" class="st1" d="M203,215.7c5.7-4.4,6.3-9.6,5.5-12.9
					c-3.4-13.6-27.4-16.2-35.1-4.6C164.6,211.5,187.7,227.5,203,215.7"/>
				<path id="path11955" inkscape:connector-curvature="0" class="st1" d="M242.2,191.7c5.6-4.1,7-10.3,6.3-13.7
					c-2.6-12.8-23.5-17.2-35-8.9c-6.6,4.8-8.2,14.3-1.5,21.1C219.5,197.8,233.6,198.1,242.2,191.7"/>
				<path id="path11957" inkscape:connector-curvature="0" class="st1" d="M282.9,168.2c6.4-4.4,8.3-10.6,7.2-15.2
					c-2.8-12.5-22.3-15.6-33.4-9.9c-13.7,7-12.1,25.7,5.9,29.3C266.7,173.1,276.1,172.9,282.9,168.2"/>
				<path id="path11959" inkscape:connector-curvature="0" class="st1" d="M324,145.8c9-5.1,13.2-13.9,7.1-21.6
					c-6.4-8-20.7-8.6-30.5-3.7c-9.1,4.6-12,13.3-8.5,19.8C297.4,150,312.8,152.2,324,145.8"/>
				<path id="path11961" inkscape:connector-curvature="0" class="st1" d="M351.2,97.4c-8,2.8-14.6,8.5-14.9,15.1
					c-0.5,14.1,19.7,17.7,32.6,10.6c8.5-4.6,13.8-13,8.1-20.9c-1.5-2.1-3.4-3.7-5.7-4.7L351.2,97.4z"/>
				<path id="path11963" inkscape:connector-curvature="0" class="st1" d="M385.7,97.7c4.3,7.5,18.3,9.7,29.6,4.1
					c2.2-1.1,4.1-2.4,5.8-3.8L385.7,97.7z"/>
				<path id="path11965" inkscape:connector-curvature="0" class="st1" d="M79.4,239.6c4.9,5.5,14.1,8.2,20.8,1.3
					c3.2-3.3,3.7-7.5,2.6-10.3c-3.6-9.6-17-10.8-22.6-6.6c-0.2,0.2-0.5,0.4-0.7,0.5L79.4,239.6z"/>
				<path id="path11967" inkscape:connector-curvature="0" class="st1" d="M132.7,214.3c5.4-4.9,4.6-10.8,2.6-14.1
					c-6.9-11.5-24-10-29.1-1.5C98.9,210.7,119.9,226,132.7,214.3"/>
				<path id="path11969" inkscape:connector-curvature="0" class="st1" d="M167.8,189.3c7.6-5.4,8.7-13.6,1.7-20.5
					c-6.8-6.7-18.9-8-26.9-2.5c-6.7,4.6-8,12.8-4,18.3C145.4,193.9,159.3,195.3,167.8,189.3"/>
				<path id="path11971" inkscape:connector-curvature="0" class="st1" d="M208.3,163.1c3.8-2.9,5.2-6.1,5.8-8.6
					c0.7-3.1,0.9-5.9-2.2-10.3c-7.3-10.4-24.5-11.2-33.5-4.4c-6.2,4.6-9.6,14.2-0.8,22.4C185.4,169.2,199.2,170.1,208.3,163.1"/>
				<path id="path11973" inkscape:connector-curvature="0" class="st1" d="M249.2,138.6c4.2-2.8,6.5-6.2,7.4-9
					c0.9-2.7,1.8-7.1-2.5-12.5c-7.1-8.8-22.9-9.9-32.9-4c-7.4,4.4-10.3,13.5-6.1,20.1C222.3,144.2,238.5,145.7,249.2,138.6"/>
				<path id="path11975" inkscape:connector-curvature="0" class="st1" d="M258.8,96.8c-0.9,1.7-1.3,3.6-1.3,5.6
					c0.4,14,21.5,20.1,35.4,12.2c7.6-4.3,11-11.3,9.2-17.5L258.8,96.8z"/>
				<path id="path11977" inkscape:connector-curvature="0" class="st1" d="M79.8,191.5c5.3,1.8,11.6,1.2,16.2-2.9
					c5.8-5.3,5.6-13.5-1.6-19.2c-4.6-3.7-9.9-4.3-14.4-3.1L79.8,191.5z"/>
				<path id="path11979" inkscape:connector-curvature="0" class="st1" d="M130.6,160.9c7.3-5.8,6.9-12.2,3.4-17.2
					c-12.7-18-39.2-4.4-32.6,10.6C106.5,165.8,122.5,167.3,130.6,160.9"/>
				<path id="path11981" inkscape:connector-curvature="0" class="st1" d="M168.6,134c6.6-4.4,8.3-10.6,6.8-15.4
					c-1.8-6-8.1-9.8-11.2-11.1c-11.6-4.6-27.3,1.2-28.3,12.2C134.7,134.4,156.4,142.1,168.6,134"/>
				<path id="path11983" inkscape:connector-curvature="0" class="st1" d="M176.8,96.3c0.1,0.9,0.3,1.7,0.6,2.4
					c5.1,13.4,24,15.3,35.2,7.3c3.5-2.5,5.8-5.9,6.5-9.5L176.8,96.3z"/>
				<path id="path11985" inkscape:connector-curvature="0" class="st1" d="M80.3,135.2c3.7-0.1,7.3-1.4,10-3.9
					c5.3-4.8,6.7-11.7-0.4-18.3c-2.7-2.5-6.1-3.9-9.4-4.4L80.3,135.2z"/>
				<path id="path11987" inkscape:connector-curvature="0" class="st1" d="M99.3,95.7c0.4,1,1.1,2,1.8,3c6.5,8.1,19.8,9.1,27.4,2.4
					c1.7-1.5,2.9-3.2,3.6-5.2L99.3,95.7z"/>
			</g>
		</g>
	</g>
</g>
</svg>
