<?xml version="1.0" encoding="utf-8"?>
<!-- Generator: Adobe Illustrator 19.0.0, SVG Export Plug-In . SVG Version: 6.00 Build 0)  -->
<svg version="1.1" xmlns="http://www.w3.org/2000/svg" xmlns:xlink="http://www.w3.org/1999/xlink" x="0px" y="0px"
	 viewBox="1671 -1604 3953.4 4000" style="enable-background:new 1671 -1604 3953.4 4000;" xml:space="preserve">
<style type="text/css">
	.st0{display:none;}
	.st1{display:inline;stroke:#000000;stroke-width:7;stroke-miterlimit:10;}
	.st2{fill:#FFFFFF;}
	.st3{stroke:#000000;stroke-width:4;}
</style>
<g id="Layer_2" class="st0">
	<rect x="783" y="-2044" class="st1" width="5872" height="5320"/>
</g>
<g id="Layer_1">
	<g id="Man_Head_Silhouette">
	</g>
	<path id="path19449_1_" class="st2" d="M3116.4,2372h1954.2c-82.1-381.3-180.4-1008.5-138.1-1162.2
		c69.7-260.7,294.8-457.4,379.4-666.5c430.4-1062.5-95.5-1987.6-1285-2110.4c-1050.2-108.4-1634.4,480.9-1716.5,1089.7
		c-8.7,65.2,0,130.3,31.1,198c-144.3,222.6-476.4,550.9-505,708.4c-17.5,94.7,95.7,127.8,150.5,161c52.2,17.2,109.5,4.9,144.3,46.7
		c24.9,30.7-8.7,82.4-16.2,120.5c-1.2,62.7-75.9,93.5-68.4,151.3c7.5,49.2,49.8,68.9,88.3,99.6c41.1,32-104.5,93.5-57.2,150.1
		c48.5,55.3,119.4,119.3,94.5,198c-36.1,121.7-105.7,248.4-48.5,343.1c57.2,93.5,136.8,148.8,260,173.4c151.7,0,304.1,2.3,456.7,3.3
		c85,0.6,162.3,48.3,200.4,123.4C3101.7,2119.4,3126.2,2243.7,3116.4,2372z"/>
	<g>
		<path class="st3" d="M4263.6,361c0.6-10.3-3.6-20.2-11.3-27.1c-25.6-24.3-50.5-49.5-75.6-74.4c-9.2-9.1-8.8-9.1-3-20.3
			c5.2-10.1,9.7-20.3,6.7-32.4c-5.2-21.1-17.7-34.7-39.3-39.1c-9.7-2-8.8-7.8-8.8-18.3c0-101.3,0-202.5,0-303.8
			c0-12.9,0.3-12.6,13.2-18.4c45.6-20.3,36.3-80-5-90.3c-9.8-1.6-8.3-11.6-8.3-22c0-45-0.2-89.9,0.1-134.9
			c0.4-7.7-2.6-15.2-8.3-20.5c-194-191.2-191-189.3-304-300.1c-11.8-11.7-6.4-16.5-3.4-23.7c4.4-10.8-0.8-23.1-11.8-27.5
			c-10.2-4.3-10.8-10.7-10.8-19.3c0.2-51.1-0.1-107.8,0.1-254.2c0-11.8-0.2-22.8,12.4-30.6c8.1-5,8.6-17.4,4.3-26.9
			c-4.1-9-12.5-13.3-24.6-12.6c-11.1,0.7-16.9,5.1-20.5,15.7c-3.8,11.2-1.1,22,9.9,27.9c8.7,4.6,9.7,10.5,9.7,18.7
			c-0.1,88.3-0.1,176.8,0,265.1c0,7.5-0.5,13.7-7.8,18.8c-16.8,11.4-8.9,44,14.7,43c15.6-0.2-9.1-19.1,321.9,307.3
			c6.6,5.8,10.3,14.2,10,23c-0.5,45-0.3,89.9-0.4,134.9v10.5c-0.2,10.8-12.8,3-28.2,16.9c-30.2,22.8-20.2,70.7,15.1,81.7
			c13,4.5,12.9,4.6,13.1,16.7c0,339.7,2.4,321.1-4.9,323.3c-65.3,22.4-30.8,112.6,28.5,91.7c20-7,14.6-0.7,96.4,77.2
			c7.7,6.9,11.8,17,11.2,27.3c0,0.1-0.4,891.4-0.4,891.4h9.4c-0.2-6.7-0.7-13.4-0.7-20.1C4263.3,943.9,4263.3,652.4,4263.6,361z
			 M4125.1-183.9c-42.3-0.7-45.3-65.3,1.6-65.5c19.7-0.1,34.3,13.3,34.5,31.9C4161.5-199,4148.5-183.5,4125.1-183.9z"/>
		<path class="st3" d="M4515,430.6c42.9,0,85.7-0.3,128.6,0.2c9.4,0.7,18.6-3.2,24.7-10.3c7.2-8.2,16.1-14.9,23-23.2
			c16.9-20.5,31.6-12.8,38.6-14c15.5-1.5,30.5-18.5,28.4-33.5c-1.9-13.4-8.7-24.5-22.4-29.3c-28.9-10.2-60.1,19.8-40,50
			c3.2,4.8,3.1,8.1-1,12.1c-11.9,11.7-23.7,23.3-35.5,35.1c-6.3,6.6,2.7,4-160.1,4.5c-21,0.1-17.6-2.3-18,18.5
			c0,0,0.1,81.7-0.1,167.4c0,5,1.2,10.3-1.4,15.1h-30.6c-1.9-9.4,0.1-7.6-1-171.3c-0.1-8,3.6-12.2,9.6-16c13.7-8.8,13.7-34.4-0.1-43
			c-12.2-7.6-9-14.4-9.2-40.8c0-5.7,2.7-8.1,8.5-8.6c27.4-2.8,31.2-1.5,50.9,18.3c1.7,2,3.5,3.8,5.5,5.5c8.7,6,13.3,16.2,12.2,26.6
			c-0.8,11.4,11.9,21.4,22.8,20.4c12.5-1.2,22.8-14.5,20.5-26.3c-2.9-14.4-13.2-21.4-29.1-17.4c-4.8,1.9-10.3,0.4-13.5-3.6
			c-8.4-8.5-17-16.8-25.5-25.2c-3.3-4.1-8.3-6.4-13.6-6.4c-42.2,1-46.7-3.1-46.6,7.4c0.2,10.4-0.3,20.6,0.1,31
			c0.4,8.1-1.4,12.3-10.4,15.6c-19.2,7.3-23.9,32.1-8.5,45.7c9.7,8.7,19,3.8,18.9,16.9c-0.6,188,1.8,177.3-3.7,181.8
			c-14.6,11.8-17.5,27.6-14.9,44.8c1.1,7.1-1.7,11.4-6.5,16c-18.2,17.8-35.6,36.5-54.2,53.8c-8.2,7.1-12.6,17.6-12,28.4
			c0.9,205.8-0.1,429.8,2.7,478.9l0,0h9.4c-1.7-31.1-3-392-3.8-475.7c-0.6-10.8,3.9-21.3,12.2-28.5c17.1-15.9,33.3-32.8,50-49.2
			c8.3-8.2,9.1-7.8,17.4,0.4c4.6,4.4,3.5,7.9-0.3,11.8c-6.6,6.6-36.2,36.3-38.7,38.4c-5.5,4.8-8.4,12-7.8,19.3
			c0,3.2,1.7,477.5-0.7,483.4h12.6c-2.3-24.8-2.9-463.5-3.1-477.3c-0.7-9.9,3.4-19.5,10.9-26c33.2-29.8,35-42,52.7-40.3
			c38.5,4.1,66.4-42.4,35.3-75c-5.9-5.8-9-13.7-8.5-21.9c0.2-53.3-0.2-106.4-0.1-159.7C4489.3,429.7,4485.2,430.6,4515,430.6z
			 M4722.8,327.4c13.1-0.4,24.1,9.5,25.1,22.3c0.9,13.4-9.6,25-23.3,25.6c-13.4,0.5-24.6-9.8-25.1-23
			C4699,339,4709.4,327.9,4722.8,327.4z"/>
		<path class="st3" d="M4336.1,534.1c-10.2-2.8-9.3-8.6-9.3-18.1c0-164.2-0.1-155,0.2-158.1c0.9-10.3,6.6-7.3,15.5-12.6
			c16.6-9,22-30.6,15.3-44.1c-8.7-17.4-25.6-25.7-43.7-19.2c-16.4,5.9-8,4.2-107.6-91.7c-6.4-6-9.8-14.5-9.2-23.2
			c0-0.2,0.2-624.6,0.2-624.7c0.5-6.2-2.1-12.3-7.1-16.2c-13.1-12.5-25.7-25.7-38.8-38.3c-5.2-4.3-7.9-10.9-7.2-17.6
			c1.3-20.5-10.5-30.8-30.8-27.3c-7.7,2.5-4.6,1.8-69.5-61.5c-12.9-9.8,11.5-18-10.4-38.5c-18.2-17-45.8,2.9-39,24.5
			c3.3,11.9,10,17.1,22.5,17.4c10.9,0.7,12.9-4.6,20.4,2.9c19.1,19.1,38.2,38.1,57.6,57c4.2,3.2,5.4,9,2.9,13.5
			c-2.5,4.5-2.8,10-0.8,14.8c5.8,14,14.9,20.4,30.9,16c15.4-4.2,15.6,7.1,49.7,37.1c9,7.9,11.8,16.7,11.8,28.5
			c-0.3,204.6-0.1,409.2-0.4,613.9c-0.5,11.3,4.2,22.1,12.7,29.6c29.3,28,57.8,56.8,87,84.9c6.2,5.9,7.2,11.1,4,18.9
			c-7.1,17.8-2.1,33.6,14.4,42.3c16.2,8.5,9.1,3.9,10.9,169.9c0.1,12.1-2.5,18.5-15.3,23.4c-26.7,10.4-36.4,41.5-22.4,65.8
			c15.3,27.8,41.3,16.8,37.5,37.9c0,0.4-0.1,596.5-0.1,596.9c0,5.6-0.5,11.4-0.7,17h9.4c0-202.5-0.1-405.1-0.1-607.7
			c0-16.4,0-16.4,15.7-22.8c0.7-0.3,1.5-0.6,2.2-0.9C4386.2,605.4,4380.8,545.3,4336.1,534.1z M4289,581
			c-1.4-17.4,15.5-33.1,34.1-33.4c19.4-1.2,35.7,14.2,35.5,33.4C4358.7,622.2,4292.6,627.2,4289,581z"/>
		<path class="st3" d="M4197.6,388.8c0.6-6.7-2.2-13.2-7.3-17.7c-34.3-33.4-67.6-67.7-102.4-100.5c-27.8-26.2-17.7-39.4-19-56.5
			c-0.2-197.9-0.1-395.9,0.3-593.8c0.4-11.3-4.3-22.1-12.8-29.6c-104.9-103.7-210-207.5-315.3-310.9c-7.6-6.9-11.7-16.9-11.2-27.2
			c0.4-90.9,0.3-283.8,0.2-286.8c-0.3-11.3,6.1-8.7,14-13.6c17.2-8.8,22.9-30.5,12.2-46.4c-7-11.1-23.4-18.1-35.2-15.1
			c-31.3,6.6-37.4,49.4-9.4,61.9c7.9,3.9,11.5,8,10.6,16.3c0,0,0,212-0.3,286.8c-0.4,10.8,4,21.1,12.1,28.3
			c104.9,103.8,210,207.5,315.2,311c7.8,6.9,12,16.8,11.6,27.1c-0.8,103.6,0.4,250.4-0.4,618.6c-0.3,9.2,3.5,18.1,10.5,24.2
			c35.8,34.8,70.9,70.2,106.8,104.9c8.1,7.1,12.6,17.5,12.2,28.3c-0.5,935.9,0.2,832.7-1,857.3l0,0h9.4c-0.2-6.2-0.7-12.3-0.7-18.6
			C4197.5,1235.3,4197.4,390.3,4197.6,388.8z M3702.2-1077.6c0.8-12.5,12.9-22.1,27.2-21.6c12.5,0.1,22.7,10.1,23,22.4
			c0.2,12.7-12.1,24.5-25.4,24.2C3714.1-1052.9,3701.5-1065.7,3702.2-1077.6z"/>
		<path class="st3" d="M4069.6,1255.4L4069.6,1255.4L4069.6,1255.4z"/>
		<path class="st3" d="M4126.8,376.3c-13.3,12.7-9.9,34.8,6.7,43.1c11.3,5.5,9.3,12.1,9.3,21.8c0,671.5,0,612.9-0.1,626.2
			c0,3.3,1.4,7.3-3.1,9.4c-14.8-10.3-26-7.6-23.7-23.5c0-0.6,0.1-548,0.1-548.7c0-11.5-2.4-23.1,9.6-32c6-4.3,4.5-17.1-0.1-23
			c-8.4-10.8-36-10-33.4,15.2c0.2,5.8,3.7,11.1,9.1,13.4c6.1,2.6,7,7,6.8,12.4c0,0,0,552.9,0,553.4c0,3.7-0.2,7.2,0,10.9
			c0.5,6.9-2.7,10.9-9.5,11.8c-25.4,3.6-43.3,32-32.2,61c5.5,14.5,4.2-8.7,3.3,127.7h9.4c-0.2-31.8-0.5-63.6-0.4-95.5
			c0-11.1,1.4-12,11.5-8.7c21.7,7.1,17.4,4.1,17.5,24.1c0.2,26.7-0.2,53.4-0.4,80.1h9.4c-0.2-31-0.4-61.9-0.7-93
			c-0.1-6,2.7-8.6,8.3-11.1c22-9.7,31.8-28.3,28.3-51.1c-0.7-4.5-1.1-9.2-1.2-13.8c0-216,0-432-0.2-647.9c0-9.5,1.4-16.1,11.3-21.1
			c11.3-5.7,18.8-24.7,4.8-40.1C4157.6,366.6,4138.9,364.9,4126.8,376.3z"/>
		<path class="st3" d="M4050.4,643.2c0.6-10.3-3.7-20.3-11.6-27c-15.3-14-29.5-29.2-44.6-43.6c-5.3-5-6.3-8.9-2.5-15.8
			c9-16.4,7.4-32.7-4.2-47.7c-13.6-18.1-31.1-10.1-28.4-28.4c0.2-2.7,0-253.9,0-275.9c0-8.9,0.3-16.3,9.5-22.3
			c18.5-12-4.2-42.4-23.4-26.9c-8.4,6.9-10,18.6-1.7,25.7c12,10.3,6.5-3.9,7.9,290.2c0.1,13.1-1.9,20.8-16.6,26.1
			c-17.5,6.1-25.4,21.6-24.5,40.9c1.7,35.2,37.7,48,62.1,36.6c6.4-3,10.2-2.2,15,2.7c51.3,52.9,55.1,51.1,54.4,63.8
			c0,0,0.1,385-2.2,599.8c-0.1,4.6,0.7,9.3-1.2,13.7h12.6C4048.5,1241.2,4050.3,646.4,4050.4,643.2z"/>
		<path class="st3" d="M5144,136.9c-3.5,6.3-10.5,9.9-17.7,9.2c-135.1-0.9-132.2,3.7-138.8-8.5c-9.4-17-35.4-19.8-47.6,0.4
			c-6.9,13.3-13.2,5.9-126.4,8c-20.5,0.4-9.8-11.1-24.4-21.5c-12.6-10.6-42-11.4-52.2,10.9c-7.2,15.8-10,9-90,10.8
			c-17.1,0.6,0.2,9.4-242.3-227.9c-8.8-7.9-13.5-19.3-13-31c0.5-129.1,0.2-258.4,0.5-387.5c0.1-25.6-11.3-23-76.3-90.3
			c-10.2-10.6-3.4-8.8,6.4-21.5c7.3-11,12.7-22,8-36.1c-7.6-22.4-20.7-32.9-44.6-33.8c-16.5-0.7-11.9,6.6-12.5-80.3
			c-0.1-8.9,0.5-17.3,5.2-25.4c5.4-9.3,3.4-19-1.9-27.9c-11.1-19.8-25.9-8.3-25.7-25.3c0.2-15-0.3-30,0.2-45
			c0.8-7.8-2.6-15.5-8.8-20.4c-2-1.6-3.5-4-5.5-5.4c-5.6-4.2-7.8-9.6-4.1-15.8c7.3-12.3-6.8-38.2-30.6-34.9
			c-13.5,2.9-24.4,14.5-24.7,26.5c-0.5,17.3,18.3,31.4,35.6,27.1c3.4-0.9,6.6-3.5,10.3-2.2c6.9,2.3,19.1,18.9,19.3,26.4
			c0.2,10.4-0.5,20.7,0.2,31c0.9,12.8-2.2,22.3-14.2,29.9c-21.6,13.5-12.7,58.1,24.3,54.3c16.8-0.4,11.1-6.6,12.1,81.3
			c0.6,7.2-2.3,14.2-7.8,18.9c-28.6,24.1-9.2,75.4,30,73.3c17.1-0.9,15.7,7.3,85.7,73.5c7.3,6.6,11.3,16.1,10.7,25.9
			c-0.4,65.1-0.2,130.2-0.2,195.3l0,0l0,0c0,177,0.2,168-0.1,195.3c-0.1,9.8,1.8,17.5,9.8,24.6c16.6,14.8,32.1,31,48,46.7
			c199.6,196.5,186.4,189.5,202,188.6c26.1-0.4,52.3,0,78.4-0.2c7-0.1,11.3,1.5,14.4,8.7c5.8,13.6,16.8,20.1,32.2,19.9
			c14.8-0.2,25.4-6.6,30.5-19.9c4.9-12.7,1.9-7.5,125.3-8.8c6.8-0.8,13.1,3.3,15.3,9.6c9,21.5,42.1,20.2,49.8,0.1
			c3.3-8.6,8.6-9.8,16.6-9.7c134.4,0.8,132.4-3.7,140.2,9.4c8.2,13.6,36.3,9.5,39.5-10.9C5189.7,131.4,5157.3,114.8,5144,136.9z
			 M4225.7-798.8c-0.6-12.1,10.9-24.2,23-24.2c12.5,0.3,22.5,10.2,22.7,22.5C4272.1-769.6,4227-771.7,4225.7-798.8z M4791.6,151.4
			c-0.9,13.2-12.4,23.2-25.8,22.3c-13-0.7-23.1-11.6-22.8-24.4c0.4-12.8,10.9-23.2,23.9-23.4c0.7,0,1.4,0,2.1,0
			C4782.4,126.8,4792.5,138.2,4791.6,151.4z"/>
		<path class="st3" d="M4279.3,134.2c37.5,36.7,74.8,73.6,111.9,110.8c5.3,5.7,12.8,8.9,20.7,8.5c31.9-0.3,63.8,0,95.6,0
			c702.2,0,656.9-2.9,666.2,6c10.4,10,28.9-6.7,17.9-19.3c-4.4-5.2-13.1-7-18-1.7c-6.4,7-13.7,6.5-21.5,6.5
			c-182.7,0-381.9-0.3-732.1,0.3c-10.9,0.5-21.3-3.9-28.6-11.9c-34-34.4-68.3-68.4-103.1-102c-7.7-6.9-11.8-17-11.3-27.3
			c2-349-7.2-288.5,15.4-315.4c7.6-8.5,19.5-14.4,22.9-25c7.8-23.8-8.7-43.7,13.2-55.9c17.9-10.1,25-32.6,19.3-53.1
			c-6.3-22.4-32.2-38.7-63.7-31.9c-2.6-6.4-1.6-11.6-1.6-16.7c-0.1-31.5-0.4-63,0.1-94.6c0.5-8.2-2.9-16.2-9-21.7
			c-23.2-22.3-46.1-45.1-69-67.7c-14.6-14.4-14.5-14.5-2.2-30c17.9-21.6,2.4-52.4-24.1-53.1c-9.2-0.4-17.1,3.2-25.2,5.7
			c-4-5.8-1.7,14.9-2.5-294.6c0-9.4,1-16.5,10.8-21.4c7.7-4,11.1-12.4,10.6-21.1c-3-24.4-35.9-30.4-47.2-8.7
			c-4.9,10.2-3.2,23.2,6.8,28.9c10.7,6.1,11.4,14.1,11.3,24.4c-0.4,139.4,0.1,321.5,0.1,321.5c-1.3,12.5,6.4,21,17.3,27
			c6.7,3.7,15.9,0.2,20.8,4.9c5.2,5,6.3,13.8,12.9,18.7c0,0,53.2,52.7,71.1,70c13.2,11.8,8.1,13.8,9.3,119.5
			c0.1,8.8-1.7,15.5-8.7,21.7c-27.6,24.3-12.5,79.7,31.7,80.7c4.7,0.1,11-0.2,11,5.8c-0.1,18.4,6.6,38.6-13.7,52.3
			c-5.5,3.7-9.1,10.1-14.4,14.1c-9.2,7-11.9,15.7-11.9,27c0.3,97.1,0.2,194.2-0.3,291.5C4267.3,117.4,4271.6,127.3,4279.3,134.2z
			 M4173.2-604.7c-12.7-1.1-23.5-12.8-22.6-24.8c0.9-12.4,14.3-24,26.6-22.9c13.1,1.2,24.5,14,23.1,26.1c0,0.1,0,0.2,0,0.3
			C4198.9-612.7,4186.7-603.2,4173.2-604.7z M4300.9-297.6c-18.5,0.7-34-13.7-34.5-32.1c-0.4-18.7,14.6-34.2,33.5-34.6
			c15.2-0.6,36.9,15.9,34,32.8c0,0.4,0,0.9,0,1.3C4334-313.9,4321.8-298.4,4300.9-297.6z"/>
		<path class="st3" d="M5159.3,282.2c-3.2,6-9.8,9.4-16.6,8.5c-0.6,0-372.7,0-373.3,0l0,0l0,0c-121.8,0-243.6-0.2-365.4,0.3
			c-13,0.5-25.6-4.7-34.3-14.3c-39.4-40-79.3-79.4-119.7-118.4c-9.2-8.3-14.2-20.4-13.7-32.7c0.4-492.5-0.1-517.4,0.3-592.1
			c0.4-9.3-3.4-18.3-10.3-24.5c-45.4-44.3-90.2-89.1-135.5-133.5c-6.6-5.8-10.1-14.3-9.8-23c0.3-90.4,0.3-180.9,0-271.3
			c0-8.9,1.4-14.7,10.6-19.4c12.8-6.4,15.6-24.2,7.8-36.7c-7.1-11.3-25.6-15.2-37.6-7.9c-13,7.2-17.4,23.7-9.4,36.3
			c8,13.5,20.7,9.4,19.8,21.8c0.3,10.5,0.3,199.5-0.1,279.1c-0.5,10.3,3.8,20.3,11.5,27.1c42.5,41.3,84,83.6,126.9,124.5
			c12.8,12.2,17.2,24.6,17.1,41.9c-0.6,194.3-0.3,388.7-0.6,583c-0.6,10.3,3.5,20.3,11.1,27.3c44,42.7,87.6,85.9,130.8,129.3
			c7.7,8.3,18.8,12.8,30.2,12.3c804-0.6,755.3-2.8,760,5.2c15.1,23.7,52.7,3.4,39.2-21C5189.6,267.7,5169.4,266.4,5159.3,282.2z
			 M4055.3-960.3c0-11.2,9.2-20.2,20.5-20.2c10.8-0.2,20.4,8.2,20.4,20.3c0,11.2-9.2,20.2-20.5,20.2
			C4064.3-940.1,4055.2-949.2,4055.3-960.3z"/>
		<path class="st3" d="M3830-592.5c-7.1,0.5-12.8,3.9-20.2,5.7c-12.3-12.1-24.9-24.4-37.4-36.9c-27.4-27-54.7-54-82-81.1
			c-4.4-4.3-7.5-7.8-5.1-15.8c9.3-31.4-22.2-25.2-20.8-43c0,0,0-203.1,0.1-275.9c0-10.1-1.6-20,9-27.8c6.9-5,4.2-17.5-2.7-23.2
			c-17.2-14.3-37.5,12.4-22.4,24.9c5.6,4.3,8.7,11.3,8,18.4c-0.2,93.6-0.2,187,0,280.6c0,8.2-1.1,14.3-9.3,19.3
			c-19.3,12.8-7.4,44.2,14,41.9c13.4-1.5,21.7,4.3,29.3,13.6c2.8,3.2,92.1,91.2,106.4,105.2c14.4,14.1-5.3,16.5,2.4,35.4
			c6.6,18.3,22.8,28.2,41.7,22.7c9.1-2.7,14.8-1.1,20.2,5.5c2.8,3.1,106.1,105.1,143.2,141.1c8.8,8,13.5,19.5,12.8,31.2
			c-0.3,216.5-0.3,432.9,0,649.4c0,13.8-1,23.2-17.1,29c-40.1,14.4-26.4,90.8,34.8,76.6c32.8-7.7,45.5-65-1.9-80.8
			c-6.4-2.2-8.2-5-7.9-10.9c0,0-0.3-325.2,0.2-671.1c0.5-9.7-3.3-19.2-10.5-25.8c-49.1-47.8-97.6-96.3-146.6-144.3
			c-6.1-5.9-7.2-10.4-4.5-19.5C3872.6-577.7,3851.4-594,3830-592.5z M3831.6-536.4c-13.2,0.4-24-10.5-23.1-23.5
			c-1.7-13.1,11.2-23.3,23.2-24.1c13.1-0.8,25.4,11.4,25.4,24.1C3857.1-547.7,3846.1-535.9,3831.6-536.4z M4051.6,365.1
			c-0.7,16.2-14.2,28.8-30.6,28.8c-37.8,0.6-43.9-58.7,0.4-60C4038.1,333.6,4052,348.6,4051.6,365.1z"/>
		<path class="st3" d="M2839.9-263.6c-8.4-3.5-6.8-10-6.8-23.4c0-844.9-3.4-798.8,6.1-797.5c6.9,0.9,11.3,1.8,17.8,0.3
			c18-3.9,29.5-21.4,25.6-39.2c-2.5-11.3-1.1-7.2,67.3-76c6.3-6.3,11.5-9.3,21.7-6.1c17.6,5.5,32.2-0.8,39.6-16.3
			c4.5-9.4,10.3-11.8,19.4-10.7c2.1,0.2,4.2-0.2,6.3,0.1c10.8,1.5,18.4-3,25.9-10.7c24.6-25.3,50.1-49.8,75.2-74.7
			c4.9-4.8,8.9-8.1,17.5-5.9c23.8,5.9,30.2-39.7-0.3-37.4c-10,0.7-16.8,7.5-16.2,18.7c0.5,9.3-3,15.4-9.4,21.5
			c-23.2,22.3-46.3,44.9-68.6,68.1c-9,9.4-18.3,13.7-31.6,12.9c-8.7-0.6-13.7-2.6-17.9-10.8c-9.1-17.5-23.8-21.6-42.4-15.5
			c-16.3,5.3-24.1,23.3-18,40.5c3,8.3,1.1,13.1-4.8,18.9c-67.3,64.6-63.5,65.6-69.6,66.7c-4.6,0.8-7.9-4.4-12.2-6.1
			c-34.3-13-58.7,20.6-45,43.5c8.7,14.5,5.4-40.3,5.9,814.1c0,12.2,1.2,24-13.1,29.5c-0.4,0.3-0.8,0.7-1.1,1.1
			c-11.4,12.4-7.3,26.1,1.3,34.5c8.3,8.1,26.8,7.2,34.5-0.9C2858.9-236.9,2854.1-256.9,2839.9-263.6z"/>
		<path class="st3" d="M3744.9,245.5c0-26.9-1.2-53.6-0.5-80.4c1-34.4-1.1-189-0.3-278.6c0.5-8.8-3-17.3-9.5-23.3
			c-73.7-71.8-145.3-144-238.4-235.4c-4.6-4.5-7.3-8.3-4-14.5c7.3-13.4,0.6-32.8-14.4-39.4c-10.8-4.7-11.3-11.5-11.3-20.6
			c0.1-71.3-0.2-142.6,0.3-213.9c0.5-10.3-3.8-20.3-11.7-27.1c-17.8-16.7-34.7-34.4-52.3-51.3c-5.4-5.2-7.1-9.1-3.6-17
			c8.8-19.9-0.6-37.9-21.4-45.2c-13-4.5-24.1-0.2-33,8.2c-24.4,20.5-3,66.2,33.8,54.7c6.3-2.7,13.5-0.9,17.8,4.4
			c54.3,55.9,62.8,56,61.9,74.7c-0.3,70.8-0.3,141.6,0,212.3c0,9.7-1.7,16-11.8,20.6c-32.1,12.6-16.4,73.5,27.4,57.6
			c15.9-5.7-1.2-10,240.6,224.6c15.3,14.8,21.3,29.6,21.2,51.2c-3.7,420.9,6.7,406.8-10.2,416c-13.3,7.8-5.4,28.8,9.5,29.6
			c7.1,0.4,13.9-0.3,17.7-7.1c3.8-6.7,5.1-15-0.3-20.3C3740.2,313.3,3745,301.8,3744.9,245.5z M3344.4-769.4
			c-0.2-31,48.5-30.7,48.5-0.3C3392.9-738.7,3344.6-738.4,3344.4-769.4z"/>
		<path class="st3" d="M3814.9-145.5c-0.7-11.9-7.7-18.7-17.8-23.2c-16.9-7.9-21.3,9.1-33.3-4.4c-2.8-3.1-156.3-154.8-248.5-245.3
			c-7.6-6.9-11.8-16.8-11.3-27.1c0.4-101.8,0.2-203.5,0.2-305.4c0-7.2,0.3-14.5-0.1-21.7c-0.4-7.5,1.5-12.1,9.7-15
			c10.7-3.7,18.2-13.1,19.2-24.3c2.1-16.8-3.3-27.6-18.5-35.7c-16.2-8.6-10.6-7.6-0.6-21.2c9.7-14.3-5.3-32.1-19.7-26.1
			c-7.3,3.1-10.7,8.9-10.7,17.2c0,7.1,4.5,10.9,9.4,15.1c5.5,4.7,4.3,9.7-2.2,12.9c-2.9,1.1-5.7,2.4-8.5,3.9
			c-26.9,17.4-17.5,51.6,5.8,59c10.4,2.9,8.3,9.4,8.3,23.4c0,266.1,0.1,274.2-0.2,325.4c-0.5,8.3,2.9,16.3,9.2,21.7
			c0.9,0.8,179,177.1,251.7,248.4c5,4.9,6.8,9.3,4.2,16.4c-5,11.6-0.3,24.9,10.9,30.9c8.9,5.2,9.7,11.9,9.7,20.6
			c-0.2,135.9-0.2,271.8,0,407.6c0,8.9-1,15.5-10.1,20.4c-14.4,6.9-7.7,29.4,7.5,31c7.1,0.7,14.1,0,17.9-6.7
			c4-7.1,4.9-15.5-1.3-21.6c-9.3-9.4-5.8,16.7-6.4-430.5c0-8.8,0.6-15.3,10.9-19C3812.2-123.1,3815.6-133.6,3814.9-145.5z
			 M3498.5-793.8c-13-1-22.9-11.9-22.4-24.8c0.6-13.7,12.6-24.1,26.2-23.1c13.4,1,23.4,12.5,22.4,25.8
			C3523.6-802.6,3511.9-792.7,3498.5-793.8z"/>
		<path class="st3" d="M3388.1,74.8c-4.6-0.7-8.9-3-12-6.4c-6.2-6.2-12.4-12.5-18.9-18.6c-5.5-5.1-7.9-10.2-4.3-17.8
			c2.5-4.5,3.9-9.6,4-14.8c-0.5-20.9-6.9-39-27.4-48.2c-16.4-7.4-7.8-17.4-10.5-60c-0.7-10.3,3.3-17.3,10.3-24.4
			c5.9-6.1,12-6.7,19.6-6.6c14.8,0.9,20.5-20,8-29.6c-10.7-7.8-24.9-1.4-26.5,12.2c-0.7,6.1,0.3,12.5-5.9,16.7
			c-19.3,12.9-12.5,30.3-13.4,46l0,0c0,49.1,2.8,35.2-21.1,41.1c-12.6,3.5-6.8-0.1-8.5-68.7c-0.4-7.2,2.7-14.2,8.2-19.1
			c34.5-32.6,37-41.7,52.5-40c8.8,1,14.8-7.1,15-16.3c0.6-24.7-35.4-20.6-33.1-1.3c1.1,9.4-3.6,15.3-10,21.3
			c-11.4,10.7-21.9,22.2-33.4,32.7c-7.4,5.9-11.2,15.3-9.9,24.7c0.5,4.6,0.3,9.3,0.7,13.9c1.1,17.5,1.2,35.1,0.3,52.7
			c-0.2,6.6-2.7,13-7.1,18.1c-12.9,16-13.9,34.4-5.5,52.4c8.4,18.1,23.3,28.6,44.3,28.8c4.1,0.1,8.6-0.8,11.8,2.8
			c13.5,15,33.8,25,36.6,48.1c3,16,23.3,26.2,37.3,22.1c14.7-3.7,24.8-16.9,24.5-31.8C3413.4,90,3404.3,77.3,3388.1,74.8z
			 M3352.9,89.4c-10.4-7.6-18.1-17.2-26.8-25.5c0.3-1.3,0.9-2.5,1.6-3.5c21.3-14.7,11.6-15.4,36.8,8.4
			C3371.4,75.2,3365.5,78,3352.9,89.4z"/>
		<path class="st3" d="M3619.7-533.3c-8.7,3.3-14,3.1-20.3-3.9c-10.2-11.1-21-21.6-32.3-31.6c-8.3-7.1-12.8-17.6-12.2-28.5
			c1.4-413.1-4.3-388.5,9.1-398.6c6.8-5.1,4.2-17.9-2.5-23.3c-18-14.3-38.6,13.7-21.7,25.9c6.4,4.6,6.9,9.5,6.9,15.8
			c0,0,0.4,186.2-0.2,386c-0.5,9.8,3.6,19.3,11.1,25.7c12.3,11.2,23.5,23.5,35.6,35c6.2,5.8,8.6,10.4,4.3,19.6
			c-10,21.3-1.5,46.2,20.2,54.6c15.5,6,18.6,14.9,16.9,28.8c-0.5,3.6,0.3,7.3-0.1,10.9c-1,8,2.3,13.6,8,19.1
			c11.7,11.1,22.7,22.9,34.6,33.8c6.2,5.6,7.6,10.7,4.5,18.7c-10.5,27.7,19.8,51.7,45.6,40.4c8.8-3.6,13.5,1,12,10.3
			c-4.1,20.6,6.9,31.1,19.1,32.8c31.2,3.8,39.2-35.7,13.5-46.5c-4.9-1.8-10.2-2.2-15.4-1.1c-14.5,1.9-15.1,0.8-11.1-13.9
			c1.4-5.2,3.3-10.5,1.9-16.6c-5.1-21.9-24.5-33.6-46-25.5c-8,3-12.4,1.3-17.5-4.2c-39.8-43.2-41.1-30.5-41.5-67.4
			c-0.1-9.1,2.7-13.6,11.4-17.1c29.1-11.2,30.3-40.1,24-57.6C3668.2-532.4,3645.7-543.2,3619.7-533.3z M3737.9-335.3
			c0.1,13.6-11.4,24.4-25.1,23.9c-13.2,0.3-23.9-10.5-23.4-23.5C3689.2-366.7,3737.8-365.4,3737.9-335.3z"/>
		<path class="st3" d="M3843.8,328.3c-6.7-5.7-7-12-7-19.3c0-68.7,0.1-137.4-0.2-206.2c-0.4-8.2,3-16.1,9.1-21.6
			c32.8-31.9,64.9-64.4,97.8-96.1c6.5-5.9,10-14.3,9.5-23.1c-0.2-31-0.5-261.3,0.2-303.8c0.9-12.7-4.2-25.3-13.8-33.8
			c-37.2-35.6-73.4-72.1-110-108.3c-183-180-171.2-175.1-188.1-173.6c-5.1,0.4-24.1,0.2-25.1,0.1c-3.3-0.3-5.6-3.3-5.3-6.5
			c0,0-0.1-203-0.2-261.9c0-8.2,2-12.9,10.7-15.9c18.6-7.3,26.1-29.4,15.8-46.3c-18.8-30.9-62.9-15.9-63,15.3
			c0,14.8,6.4,25,19.3,30.8c5.6,1.9,9,7.3,8.3,13c0,0,0-5.7,0,258.9c0,21.1-0.2,24.2,14.7,23.1c16-1.1,29.6-7.4,47.3,10.3
			c90.2,89.8,180.7,179.3,271.4,268.6c15.7,14.7,7.5,3.4,10.1,319.1c0.1,14.9-4,25.8-14.9,35c0,0-65.8,65-90.2,88.3
			c-8,7.3-12.3,17.8-11.6,28.6c0.5,67.7,0.2,135.4,0.3,203c0,8.4-0.2,15.4-8.9,21.1c-20,13.1,4.8,43.5,23.3,26.9
			C3851.4,346.6,3852.6,335.9,3843.8,328.3z M3582.8-971.3c0.5-13.4,11.4-24.1,24.9-24.5c29.2-0.3,33.5,46.3,1.1,47
			C3594.4-948.5,3582.9-958.4,3582.8-971.3z"/>
		<path class="st3" d="M5227.4-94.4c-4.9,9.7-11.9,7.7-26.3,7.7c-526.5,0-523.8-0.1-594.1,0.2c-8.3,0.5-16.4-2.8-22.1-8.9
			c-46.7-47.9-56.3-48.6-55.1-66.3c2-30.4-4.3-40.4,7.6-45.9c21.5-12.6,21.4-36.7-0.1-49.4c-11.8-5.8-5.8-15.8-7.5-49.3
			c-0.5-7.3,2.5-14.3,8.1-19.1c12-11.5,23.2-23.9,35.5-35c7.8-6.9,10-14.6,9.9-24.5c-0.3-67.2-0.2-134.3-0.2-201.5
			c0-9.7-1.2-19,10.1-25.2c10.9-5.9,9.2-38.2-14.7-36.9c-28.9,0-27.1,31.6-14.5,38.7c15.7,8.8,9.4,0.9,10.7,221.7
			c0.5,9.8-3.6,19.4-11.1,25.8c-11.5,10.5-22,22.1-33.5,32.6c-6,5-9.1,12.6-8.3,20.5c0.6,11.4-0.3,22.7,0.2,34.1
			c0.4,9-0.5,16.2-11,19.2c-4.6,1.3-7.4,5.5-9.7,9.7c-8.4,14.9-4.2,29.6,12.8,38.8c5.3,2.2,8.5,7.5,7.9,13
			c-0.2,13.4,0.1,26.9-0.2,40.3c-0.3,5.6,2,11.2,6.4,14.9c15.8,15,31.9,29.8,46.3,46.1c10,11.3,20.9,14.3,35.5,14.2
			c198-0.1,396-0.2,594-0.4c10.7,0,20.9-0.8,26.3,11c0.6,0.9,1.4,1.6,2.3,2.1c8.6,6.9,16.6,7.3,25.8,1.2c7.6-5,12.1-15,10.2-22.4
			C5262.5-110.7,5235.2-110.1,5227.4-94.4z"/>
		<path class="st3" d="M5196.3,48.6c-4.3,9.4-11.6,7.6-21.6,7.6c-179.8-0.2-359.5-0.1-539.2,0.2c-10.9,0.5-21.4-3.8-28.8-11.7
			c-54-54-108.3-107.7-162.9-161c-7.6-6.9-11.7-16.9-11.2-27.2c0.1-89.3,0.4-477,0.2-534.7c0-8-0.1-14.9,9.1-19.3
			c5.7-3.1,9.3-8.8,9.7-15.1c2.6-23.4-28.7-34.8-41.5-14.9c-6.2,9.6-6,21.2,3.7,27.7c10.5,6.9,11.3,15.4,11.3,26.2
			c-0.5,159.4,0.2,394.6-0.4,534.7c-0.6,9.7,3.3,19.2,10.5,25.8c185.9,181,175.3,180.8,194,178.6c11-0.9-30.6-0.6,542.3-0.6
			c11.4,0,22-0.9,30.2,11c11.7,16.8,45.3-1.3,34.7-25.3C5227,31.2,5203.4,34.2,5196.3,48.6z"/>
		<path class="st3" d="M5257.5-141.8c-7.7,8.9-16.8,8.6-26.7,8.6c-3.1,0-435-0.1-438.9,0c-6.4,0.3-9.9-1.7-13.2-7.8
			c-8.7-16.4-21.3-21-37.5-13.6c-12.4,5.7-9.3,2.6-70.8-56.7c-6-5.8-8.6-11.2-5.8-20.2c4.5-14.3-0.4-27.3-13.1-32.8
			c-10.3-4.5-11.9-10.7-11.8-20.4c0.2-95.5,0.2-191.2,0-286.7c0-9,1.6-15,10.4-20.1c10.5-6,12.1-22.7,4.4-31.4
			c-9.5-10.8-21.7-12.3-32.8-2.3c-9.3,8.3-9.4,25.5,1.3,32.8c7.9,5.4,9,11.5,8.9,19.5c-0.2,48-0.1,96-0.1,144.1
			c0,48-0.1,96,0.1,144.1c0.1,9.3-0.7,15.8-10.9,20.9c-29.8,15.4-10.4,64.4,25.1,52.3c14.1-4.8,10.3-0.9,72.9,59.2
			c5.4,4.6,8.2,11.7,7.2,18.7c-1.5,20.2,11.8,31.9,32,29.7c8.6-0.5,16.1-5.6,19.5-13.4c2.2-6,8.5-9.6,14.9-8.3
			c2.4,0.1,424.8,0,440.5,0c8.9,0,16.8,0.2,23.8,8.1c12.8,14.4,35.8-9.3,21.3-22.8C5271.9-146.7,5263.4-148.5,5257.5-141.8z"/>
		<path class="st3" d="M3688.6-68.4c11.6-4.7,15.7-17.6,12.9-30.4c-3.3-15.1-22.4-25.4-36.8-18.3c-10.3,4.4-13.1-2.9-19.3-8.3
			c-76.4-75.7-153-151.3-229.7-226.6c-6.1-5.6-9.3-13.6-8.8-21.8c0.3-79.5,0-159.2,0.4-238.7c0.4-8.7-3.2-17.2-9.8-22.9
			c-28.1-27.1-55.5-54.7-83.3-82c-7.9-7.7-16.7-14.7-10.2-27.5c2.2-8.4-7.2-27.2-24.2-26.7c-12.5,0.4-25.3,13.6-24.9,25.7
			c0.4,13.3,13.8,26.1,27.5,23.3c19.2-4,16,3.7,104.3,87.9c8.5,7.5,13.2,18.4,12.6,29.7c-0.6,78.5-0.2,157.1-0.5,235.6
			c-0.4,8.7,3.2,17.2,9.7,23c35.7,34.8,71,70,106.5,105.1c41.8,41.2,83.6,82.5,125.4,123.7c5.9,5.8,10.9,10.8,7.2,21.1
			c-3.8,10.3,0.8,21.8,10.7,26.7c10.2,5.1,10.5,12.4,10.5,21.4c-0.2,53.3-0.2,106.4,0,159.7c0,8.7-0.6,15.4-9.8,20.5
			c-19.3,10.4-11.6,40.9,11.1,43.6c26.8,2.4,35.9-31.9,16.2-43.6c-8.1-4.8-9.7-10.6-9.7-18.9c0.3-53.7,0.3-107.5,0-161.2
			C3676.6-58,3678.1-64.1,3688.6-68.4z"/>
		<path class="st3" d="M5242.7-7.3c-9.7-7.7-23.9-6.1-31.6,3.6c-6.4,6.8-3.1,13.1-15.2,12.9c-3.1-0.1-295.1-0.2-539.2,0.2
			c-9.9,0.4-19.4-3.6-26-10.8c-49.9-50-100.2-99.7-150.8-148.9c-8.1-7.3-12.5-17.7-12-28.5c0.2-148.3,0.2-296.5,0.2-444.8
			c0-9.9-0.4-18.8,10.9-24.8c8.5-4.5,8.8-14.8,6.4-23.7c-5.9-19.2-32.4-20.4-41.4-2.3c-5.2,10-3.6,19.9,7,27.1
			c6.4,3.7,9.8,10.8,8.6,18c0,0,0.2,239.2-0.3,454.1c0,11.6,2.7,20.5,11.3,28.8c52.2,50.7,103.9,101.8,155.2,153.2
			c7.1,7.4,17.2,11.4,27.5,10.7c89.4-0.3,178.7-0.2,268.1-0.2c89.4,0.1,178.7,0.1,268.1-0.1c9.7,0,17.4,0.9,24.6,9.3
			c8.5,10,23.8,8,32.3-2.5C5254,14.4,5252.4,0.4,5242.7-7.3z"/>
		<path class="st3" d="M3630.6,265.7c0,0-0.1-233.8,0.3-322.4c0.4-10.8-4-21.1-12.1-28.5c-79.7-78.2-159-156.9-238.6-235.2
			c-7.3-6.5-11.3-15.9-10.9-25.7c0.4-71.3-0.7-142.6,0.8-213.8c0.5-22.6-5.5-38.8-22.7-53.7c-21.6-18.6-40.9-39.9-61.3-59.9
			c-4.7-4.5-8-8.3-5-15.9c2.2-5.9,1.8-12.4-1.1-18.1c-6.4-11.3-20.4-16-32.5-11c-9.5,4-16.5,17.2-14.2,26.8
			c3,12.2,16.7,22.8,28,19.4c8.8-2.7,13.4,0.2,18.9,5.6c22.8,22.7,45.5,45.6,68.9,67.8c8.6,7.5,13.2,18.4,12.6,29.6
			c-0.6,74.9-0.1,149.8-0.5,224.7c-0.5,10.8,3.8,21.1,11.9,28.4c79.3,77.9,158.2,156.2,237.5,234.2c7.8,6.8,12,16.7,11.6,27
			c-0.6,51.8-0.2,310.5-0.2,317.7c0.1,25.2-10.2,14.5-18.8,25.9c-25.2,26,4.7,60.5,30.5,53c14.6-3.9,24.6-17,24.3-32
			C3657.3,277.2,3628.2,288.6,3630.6,265.7z"/>
		<path class="st3" d="M4682.2-259.4c93.5,90.7,88.5,92,102.1,90.8c0,0,143.6,0,191.3-0.1c8.4,0,14.8,1,18.9,9.8
			c7.9,16.8,37.9,18.5,47.7-0.9c3.7-7.3,8.6-9,16.1-9c50.7,0.2,101.4,0.3,152.1,0.2c7.2,0,12.3,1.3,16.7,8.2
			c7.9,12.4,22.7,13.1,33.7,4.1c8.2-6.7,8.4-25.3,0.5-32c-11.3-9.7-25.5-9.8-33.7,2.9c-8.1,12.4-0.8,7.9-166.7,8.8
			c-22.8,0.1-14.8-14.5-32.3-22.2c-13.4-5.9-29.1,0.1-35,13.3c-5.9,13.1,4.2,7.7-204.2,9c-17.3,0.4-14.5-5.5-94.8-82.2
			c-7.4-6.5-11.4-15.9-10.9-25.7c0.2-142.7,0.2-285.2,0.2-427.9c0-8.3-0.2-15.3,9.1-20.9c10.7-6.6,10-25.2,1-33.2
			c-9.3-8.2-23.6-7.4-31.9,1.8c-8,8.8-7.6,24.8,2.9,31.4c9.6,6,10.9,13.4,10.9,23.3c-0.2,71.3-0.1,142.7-0.1,213.9
			C4675.6-258.4,4672.6-268.7,4682.2-259.4z"/>
		<path class="st3" d="M4309.4-1152.2c6.3,0.3,12.1,3.1,16.2,7.8c145,144.1,141,135.2,140.7,149.1c-0.8,172.1,3.2,166.2-7.7,175.7
			c-8.1,7.7-74.5,73.5-77.6,76.6c-13.1,13-12.5,3-22.2,5.2c-11.8,1.1-19,9.8-18.8,22.4c0.2,11.8,7.3,19.2,19.3,19.9
			c15.5,0.9,26-8.6,22.7-23.7c-2.2-10.2,1.7-15,7.8-21c25.6-25.1,50.8-50.6,76.6-75.4c7-6.2,10.7-15.2,10.3-24.5
			c-0.4-50.6-0.4-101.3,0-151.9c0.4-9.8-3.6-19.3-11-25.9c-3.2-3.1-133.6-130.3-137.4-137.6c13.1-14.3,27-28.2,8.3-54.7
			c-6.6-10-3.2-7-4.3-122.9c-0.1-9.9,1.2-16.9,11.8-22.1c13-6.5,15.4-25.5,7-38.1c-8.1-11.5-23.7-15-36.1-8.3
			c-17.9,9.7-22.1,35-0.6,47.7c8.1,4.7,10.4,9.5,10.3,18c-0.4,32-0.1,64-0.2,96c0,17.4,0,17.4-17.1,18.2
			c-27.8,1.4-42.9,33.9-25.9,54.5C4287.9-1158.1,4298.2-1152.5,4309.4-1152.2z"/>
		<path class="st3" d="M3185.2-241.2c13.2-12,7.3-12.5,9-128.7c0.5-9.2-3.3-18.2-10.2-24.4c-45.4-44.3-90.3-88.9-135.3-133.6
			c-5-4.4-9.6-9.5-13.5-14.9c-2.9-4.5,3-9.6,1.8-14.8c-0.1-0.5-0.1-1,0-1.6c0.1-10.7-7-20.1-17.3-23.1c-21.8-5.9-39.9,18-27.9,36.5
			c4.8,9.1,15.5,13.5,25.5,10.7c8.7-2.4,13.3,0.9,18.8,6.3c155.2,154.4,150.8,144.3,150,159.2c-0.6,17.6-0.2,35.1-0.2,52.7l0,0
			c0,17.6-0.3,35.2,0.2,52.7c0.4,7.2-2.5,14.2-8,19.1c-12,11.6-81.9,80.5-82.2,80.9c-6.5,5.9-11.4,5-15.4-2.9
			c-3.1-5.4-7.1-10.2-11.9-14.2c-9.1-7.8-5.8-10.2-6.5-73.9c-1-10.8,7-12.2,12.3-20.3c17.8-26.2-9.4-58.9-39.2-46.6
			c-23,9.7-25.2,40.7-7.7,53.6c5.6,3.7,8.7,10.2,8,16.8c-0.9,35,4.7,24.1-20.5,47.7c-10.1,9.4-16.5,19.3-14.6,33.7
			c1.1,8.1,0.9,16.5-6,23.1c-2.9,2.6-3.2,6.8-0.8,9.9c3.2,5.6,10.1,8,16.1,5.7c4.7-1.9,8.5-9.8,4.8-14.5c-7.8-9.8-4.9-20.6-5.7-31
			c-0.5-5.2,1.6-10.3,5.6-13.7c6.8-6.3,13-13.4,20.1-19.6c6.6-5.1,10-13.4,9-21.6c-0.4-7.2-0.3-14.4,0.1-21.6c0.1-3.3,1-6.6,4.8-6.9
			c6.4-0.4,5.8,6,5.8,16.8c0,15.5,0.5,31-0.1,46.5c-0.7,8.2,2.5,16.3,8.8,21.7c10.5,9.7,10.1,12.9,2.6,26.9
			c-2.6,4.9-5.9,10.1-4.4,16c4.5,16.8,14.1,22.6,29.7,20.4c13.8-2.1,20.6-12,18.9-27.1c-1-12.8-12.3-14.4-3.1-23.8
			C3116.8-174.2,3163.7-220.6,3185.2-241.2z"/>
		<path class="st3" d="M2945.3-186.2c-8-4.3-8.9-9.8-8.9-17.4c0.5-351.1-2.8-329.1,6.7-338.9c17.3-18.2,13.5-57.7-22.1-67.9
			c-12.4-3.6-12.5-3.5-12.6-15.9c-0.1-29.9-0.2-60,0.1-89.9c0.4-6.7-2.3-13.3-7.3-17.9c-9.8-9.3-19-19.3-28.9-28.4
			c-5.5-4.8-8.4-11.9-7.9-19.1c0.3-13.1,0.5-121.2-0.1-137.9c-0.7-9.3,3.3-18.4,10.7-24.2c5.1-4.3,8.7-6.7,16.3-4
			c43.1,15.7,65-44.8,24.6-61c-27.3-12.2-54.9,18.6-44.5,39.5c5,10,1.9,16.2-6,22.1c-7.2,5.4-9.4,12.5-9.3,21.6
			c1.3,161.8-3.5,157.6,8.4,167.9c9.9,9.2,19.1,19.2,29,28.4c11,9.9,5.7,11.6,7.3,103c0.2,9.7-1.9,15.6-12,20.2
			c-37.3,16.7-28.9,76.5,19.4,78.6c6,0.3,13.1-4.1,17.8,1.5c3.1,3.7,1.7-22.2,2,315.7c0,10.6,0.9,21-11.8,25.7
			c-5.9,3.7-17,21.4-0.3,36.4c10.5,9.6,27,8.2,35.9-2.9C2959.7-161.3,2957.1-179.9,2945.3-186.2z M2903.4-1001.9
			c12.5-1.4,25.2,11.7,25.2,24.2c-1.2,28.9-47.4,31.8-48.7,0.9C2879.2-992.1,2887.9-1000.2,2903.4-1001.9z M2908.9-539.4
			c-16.2-0.2-31.2-15.4-30.5-30.9c0.7-15.1,15.6-29.1,31-29.2c15.5-0.1,31.7,15.6,31.5,30.5C2940.8-553.7,2925.3-539.3,2908.9-539.4
			z"/>
		<path class="st3" d="M2799.9-350.1c-7.1-4.1-8.9-9.4-8.2-16.6c0.2-2.4,0-635.8-0.2-677.6c0-10.6-1.3-20.7,9.9-27.2
			c5.7-4.5,10.9-19.4,1.4-31c-13.8-17.5-41.6-10-43.4,12.7c-1,11.9,4.2,20.2,15,24.4c4.6,1.3,7.7,5.6,7.3,10.4
			c0.2,31.5,0-88.9,0.1,679.1c0,11.2,2.4,23.3-12.1,28.6c-3.1,2.1-7.7,9.7-7.7,17.5c-0.1,13.4,10.8,24.4,24.4,24.5
			c13.6,0.1,24.7-10.7,24.8-24.1C2811.8-337.9,2807.5-346,2799.9-350.1z"/>
		<path class="st3" d="M2635.8-769.7c-14.8-5-17.7-13.3-16.1-26.3c0.3-2.6,0.3-5.1,0-7.7c-0.9-5.2,1.7-10.5,6.5-12.7
			c7.7-4.1,9.4-12,11.1-19.4c-2-23.3-23.7-32-37.3-21.8c-17.9,12-16.5,33,1.7,42.4c7.5,3.9,9.8,8.2,9.5,15.4
			c-0.9,13.4,4.3,22.4-11.2,28.3c-17.2,6.5-26,19.9-26.8,38.1c-0.9,20.6,8.9,34.9,27.8,42.1c12.5,4.8,10.2,11.7,10.2,25.7
			c0,59.4,0,118.8,0,178.1c0,12.2,2.2,23.8-14.1,30.3c-11.3,4.5-12.5,20.6-5.7,31.1c6.9,11,21.2,14.7,32.7,8.6
			c15.6-8.1,17.6-29.3,3.9-40.2c-5.8-4.2-9-11.2-8.4-18.2c0.2-66.6,0.1-133.3,0.2-199.9c0-10.7,0.2-10.7,10.8-14.5
			c16.8-6.2,30-23,29.9-39.9C2660.4-748.2,2653-763.9,2635.8-769.7z"/>
		<path class="st3" d="M5269.5-333.9c-5.2-5.2-13.8-5.2-19-0.1c-10.9,10.1-15.3,2.9-177.1,5.5c-15.3,0.6,1.3,11.4-242.1-228.4
			c-5.8-5.2-9.1-12.6-8.9-20.5c0.3-48,0.1-96.1,0.2-144.1c0-11.6,0.3-11.5,11.8-16c14.9-5.9,25.8-15.4,28.3-32.1
			c3.5-23.9-7.1-41.2-30.6-48.8c-8.6-2.8-10.7-0.7-9.2-31.8c0.3-5.4,5-7.3,8.6-10.3c17.1-12.3,8-38.8-13.1-38.9
			c-23.8-2-32.2,30-13.7,39.4c8.2,4.1,9.5,9.7,9,17.4c-0.9,15.2,2.1,22.3-5,23.9c-43.2,12.3-40.3,67.3-5.7,79.3
			c9.4,3,10.9,8.6,10.8,17.3c-0.3,48.6,0.2,97.1-0.4,145.7c-0.4,8.7,3.2,17.2,9.8,23c75.2,74,150.2,148.2,225,222.6
			c6.7,7.1,16.3,11,26.1,10.5c51.2-0.5,102.5-0.2,153.7-0.2c7.9,0,14.9,0,20.5,7.9c4.7,6.6,15.4,5.7,20.8,0.4
			C5275.4-318.9,5274.6-328.8,5269.5-333.9z M4790.3-777.3c-2.3-17.9,16.8-30.9,30.2-30.3c19.4,1,31.2,15.7,30.9,30.3
			c-0.4,15.3-14.4,29.8-30.2,29.7C4806.6-747.7,4788.7-758.8,4790.3-777.3z"/>
		<path class="st3" d="M4048.2-1185.6c-0.4,9.3,3.3,18.2,10.3,24.4c37.1,36.1,149,146.9,158.7,156.6c3.6,3.6,6.3,6.6,5.1,13.2
			c-4.1,23.1,17.9,39.6,39.9,29.4c15.4-7.2,16.6,2.5,31.1,14.8c8.4,7.2,5.7,11.8,6.2,46.1c0.1,4.1-1.2,8.8,2.4,11.8
			c6.6,5.5,5.4,11.5,2.2,17.9c-5,10.8,6.8,34.1,27.2,33c44.3-2.4,30.6-67-11.1-52.5c-22.6,6.1-7.7-32.4-13.7-52.2
			c-5.1-16.8-30.5-21.4-30-42.6c0.2-21.6-18.7-33.8-38.4-24.9c-8.1,3.7-12.8,2.6-18.9-3.5c-51.2-51-102.6-101.8-154.1-152.3
			c-14.6-13.2-5.6-18.4-8.5-170.9c-0.4-7.7,2.8-15.2,8.7-20.4c46.1-43.4,45.5-51.6,61.4-46.2c11,3.8,23-7,23.9-18.5
			c1-14.3-6.7-22.9-20.9-22.8c-13.1,0-22,8-21.2,21.2c0.7,7.1-2.2,14.1-7.7,18.8c-14.3,13.6-27.8,28.1-42.3,41.4
			c-7,6.2-10.7,15.3-10.1,24.6C4048.7-1287.9,4048.6-1236.8,4048.2-1185.6z"/>
		<path class="st3" d="M3357.1-1419.6c8.6,4.3,10.9,9.6,10.6,18.1c-1.6,45.9,4.5,50.2-10.3,64.7c-86.4,85.5-173,170.8-259.6,256
			c-6.2,5.4-9.6,13.3-9.3,21.5c0.4,41.8,0.2,83.7,0.2,125.5l0,0c-0.1,142.3,1.8,136.6-4.6,142.8c-32.9,31-33.6,37-42.3,33.6
			c-3.1-1.3-6.4-2-7.8-2.1c-14.1-0.8-26.1,10-26.9,23.8c-0.8,10.9,11.1,24.9,23,24.5c15.9-0.5,27.1-9.1,25.4-24.3
			c-1.9-10.1,2.3-20.4,10.8-26.3c6.9-5.4,11.8-13.3,18.7-18.7c9.8-7.5,11.8-16.8,11.8-28.4c-0.4-81.6-0.1-163.2-0.4-244.8
			c-0.5-8.2,2.8-16.2,8.8-21.7c62.5-61.1,137.8-137,262.8-259.4c5.4-4.8,8.3-12,7.8-19.2c-0.4-14.4,0.1-28.9-0.2-43.4
			c-0.2-10.4-0.1-19.1,10.7-26.5c12.3-8.5,10.6-25.1-0.7-35c-10.7-8.3-26-7-35.2,3C3341.3-1444.9,3343.8-1426.3,3357.1-1419.6z"/>
		<path class="st3" d="M4753.4-243.2c72.6,0,145.3,0,217.9,0c278.3,0,227.3-4.3,241.7,11.6c5.7,6.8,18.7,9.5,27.3,5.7
			c8.2-4,13-12.6,12-21.6c-0.3-20.9-30.3-28.4-41-10.2c-2.4,4.6-7.5,7.3-12.7,6.6c0,0-321.8,0-435.9,0c-21.1,0-19.4,1.9-19.4-19.2
			c0-1.8-0.1-404.4-0.1-406.2c-0.3-13.4,6.5-12.5,11.2-18.9c8-9.8,6-24.2-4.5-31.4c-23-18.3-54.2,20-23,37.5c6.5,3.7,9,7.7,8.5,14.5
			c-0.1,1.1-0.1,412.8-0.1,414C4735.3-241.7,4734.7-243.2,4753.4-243.2z"/>
		<path class="st3" d="M3166.4-1313.2c-5.3,6.6-11.3,8.9-20.3,8.1c-13.7-1.2-20.8,5.6-20,19.2c0.7,8.2-2.7,16.3-9,21.6
			c-37.5,36.8-74.8,73.6-112,110.7c-17,16.9-13.6,9.3-13.7,33.6c-0.3,74.9-0.2,149.9,0.1,224.8c0.5,8.7-3,17.3-9.6,23.1
			c-58.3,54.9-56.8,62.9-74,59.5c-9.5-2.5-19.5,1.6-24.5,10c-13.1,20.7,9.9,46.5,31.4,35.4c10.4-4.4,16-15.7,13.3-26.6
			c-2.3-8.5,0.8-13.5,6.4-19.1c18.3-17.7,35.8-36.3,54.5-53.5c7.4-6.5,11.3-16.1,10.5-25.8c-0.8-60.1,0.4-169.6-0.4-231
			c-0.4-8.8,3.2-17.2,9.9-23c125.1-120.9,119.7-123.2,130.9-122.5c32.6,2.2,16.2-21.9,27.2-33.6c27.5-26.5,28.3-30.4,35.3-27.4
			c21.3,8.1,39.5-11.6,34.4-27.8c-3.8-12-15.7-20.3-27.2-19s-22.8,11.8-20.5,23C3193.3-1332.7,3176.4-1324.8,3166.4-1313.2z"/>
		<path class="st3" d="M3489.9-1408.5c-0.7,26.1,33.9,21.3,18.9,38.7c-5.7,6.6-12.2,12.7-18.6,18.9c-6.6,6.4-12.9,12.6-22.7,15.6
			c-9.8,3.1-15.2,11.6-15.6,22.7c-0.5,12.3,6.1,20.2,16.9,27.6c-7,7.1-12.4,12.6-17.9,18.1c-24.3,24.1-49.3,47.7-72.8,72.5
			c-10.3,11-22,9.8-34.4,9c-5.6-0.7-4.9-5.2-8.4-13.6c-17.6-36.6-73.2-16.4-60,24c5.5,16.8-2.8,14.3-46.2,60.3
			c-6.8,7.2-12.5,10.3-22.8,5.7c-10-4.3-22.8,2.1-29.5,12.1c-13.4,21.6,9.7,50.3,35.5,37.7c12-5.8,18.4-17.6,14.6-30.7
			c-1.9-6.6-1-10.7,3.5-15.1c16.3-16,32.6-32,48.7-48.2c4.2-4.2,8-4.5,13.9-3c40.1,11.2,34.8-21.7,52.9-20.8
			c4.2,0.1,8.4-0.4,12.5,0.1c9.1,1,15.6-2.4,22-8.8c97.4-98.2,96.9-96.7,108.6-101.5c18.3-7,22.5-26.7,10.5-41.7
			c-2.5-3.2-7.9-4.4-7.4-9.3c0.5-4.2,4.7-6.6,7.5-9.6c3.2-3.5,6.5-6.7,9.9-10c6-5.8,12.2-11.4,10.6-21c-0.4-3.8,1.7-7.3,5.2-8.8
			c14.3-7.7,16.7-23.4,9.7-34.3C3522.6-1440.3,3490.7-1436.7,3489.9-1408.5z M3180.6-1081.3c-0.6-10.9,7.8-20.2,18.8-20.7
			c11.2-0.6,21.1,8.1,21,19.9C3220.4-1057.8,3181.7-1057.2,3180.6-1081.3z M3499.5-1311.2c-0.8,10.6-9.4,19-20.2,19.4
			c-11.5-0.1-21.8-9.7-21.4-20c0.4-9.4,11-19.7,20.5-19.9C3489-1331.8,3499.7-1321.4,3499.5-1311.2z"/>
		<path class="st3" d="M2756-284.9c-5.4-2.3-8.5-8-7.6-13.7c0.1-0.5,0.1-713-0.1-717.5c-0.8-5.6,2-11.3,7.1-14
			c14.4-9.2,13-37.5-6.2-42.3c-35.7-8.7-45.1,36-15.7,45.6c4.7,1.3,7.7,5.9,6.9,10.7c-0.2,3.1-0.1,491.8,0.1,709.8
			c0,10.5-1.4,18.3-11.7,24.2c-9.5,5.5-11.6,16.4-7.9,25.6c5.6,14.3,12.4,16,23.8,16.4c12.5,0.4,22.9-9.2,23.3-21.5
			C2769.4-271.2,2764.6-280.5,2756-284.9z"/>
		<path class="st3" d="M2714.4-391.1c-9.1-5-9.9-11.8-9.9-20.5c0.2-53.2,0.3-106.4-0.1-159.6c-0.1-9.9,2.7-15.3,11.8-20.6
			c23.3-13.5,22.8-43.8-1-56.4c-9.2-4.8-10.8-10.5-10.8-19.5c0.2-97.6,0.2-195.2,0-292.8c0-8.7,1.3-14.9,9.8-20.6
			c13.4-9.1,11.2-28.5-0.2-37.3c-12-9.3-29.4-5.9-37.1,6.9c-6.6,11.2-2.8,25.6,8.5,32.1c8.7,4.6,11.3,9.7,11.2,19.1
			c-0.3,97.6-0.3,195.2-0.1,292.8c0,9.1-0.9,14.7-11.7,18c-12.7,4-19.3,14.8-19.8,28.8s6.5,23.4,18.1,30.1c7.5,4,13.1,3,13.1,8.9
			c0.5,8.7-0.1,84.3,0.4,168.8c0.1,9.4-1,16.2-10.8,21.2c-9.7,5.1-14,16.6-10.1,26.8c4.6,11.3,12.1,16.9,23.8,16.4
			c10.2,0.6,19.6-5.5,23.2-15C2726-373.2,2723.4-386.1,2714.4-391.1z M2699.3-595.4c-12.2,0.1-25.7-12.7-25.5-24.3
			c0.8-13.4,12.1-23.8,25.7-23.5c12.9,0.3,24.5,10.9,24.8,22.8C2724.6-608.7,2711.5-595.5,2699.3-595.4z"/>
		<path class="st3" d="M3288.8-1370.6c-2.9,6.5-243.3,242.1-246.4,245.1c-9.2,8.4-14.1,20.4-13.5,32.6c0.6,77.5,0.1,154.9,0.5,232.4
			c0.5,9.8-3.5,19.2-10.9,25.7c-67,63.3-66.3,71.9-82.4,69.4c-9.3-1.5-16.7,7.3-16.8,16.4c-1.7,20.7,33.5,23.9,33,0.6
			c-0.2-8.3,3.4-13.4,8.8-18.8c22.3-21.8,44-44.1,66.6-65.6c7-6.2,10.8-15.1,10.3-24.4c-0.3-44.7-0.3-239.8-0.3-240.2
			c-0.3-6.7,2.4-13.3,7.5-17.8c9.1-8.6,17.7-17.6,26.6-26.3c241.1-238.4,225.7-225.8,243.6-233.2c11.4-4.6,13.6-21.6,6.6-32.6
			c-7.4-10.6-21.7-13.9-33.1-7.8c-10.9,6.1-15.2,19.6-9.7,30.7C3282.1-1379.5,3285.3-1375,3288.8-1370.6z"/>
		<path class="st3" d="M5107.2,326.4c-6.2,10.8-13.7,11.8-24.2,11.7c-71.6-0.3-143.1,0.1-214.7-0.4c-11.4-0.6-22.5,3.9-30.2,12.2
			c-35.7,36.2-72.4,71.4-108.2,107.5c-6.5,7.4-16,11.5-25.9,11c-102.2-2.3-110.9,6.2-116.8-13.4c-4.9-8.9-22.6-17-37.4-7
			c-12.2,8.2-16.1,24.1-9,36.9c7.2,14.2,34,20.7,45.8,2.3c6.1-9.7,13.3-11.1,23.2-11c31.3,0.4,62.7-0.4,94,0.4
			c12.4,0.9,24.6-4,32.9-13.1c35.6-36.4,72.3-71.6,108.2-107.7c14.4-15.5,11.5-7.8,240.9-9.8c9.4-0.1,15.6,1.3,21,11.1
			c9.4,17.1,37.5,15.6,47.1-1.2C5171.7,324.5,5124.8,296.1,5107.2,326.4z"/>
		<path class="st3" d="M4795.2-645.9c6.6-3.7,10.5-10.7,10.3-18.1c0.5-25.1-44.9-31.5-45.1,0.3c-0.1,8.6,3.1,15.4,10.9,19
			c5.6,2,8.9,7.6,8,13.4c-0.1,1.6,0,327,0,328.7c0,15.9,0.1,16,16.5,16c67.4,0,134.9,0,202.3,0l0,0c66.9,0,133.8,0,200.7,0
			c8.7,0,17.3-1.3,24.2,7c3.7,4.4,10.9,3.6,16.2,1c9-4.2,9.9-21.5-2-26.4c-5.2-3-11.9-1.7-15.5,3.1c-5.7,7.5-12.7,7.5-20.7,7.5
			c-428.2-0.1-400.3,0.1-407.7-0.3c-3.3,0.1-6.1-2.6-5.9-5.9c-0.5-9.7,0.1-0.1-0.3-328.7C4787.1-636.3,4787.7-642.1,4795.2-645.9z"
			/>
		<path class="st3" d="M4354.8-128.9c11.8-5.2,17-16.7,17.9-28.9c0.8-11.5-10.4-26.7-21.6-29.7c-13.5-3.8-26.9-3.6-37.7,7.6
			c-17.2,17.2-10,46.3,13.3,53.7c14.6,4.6,9.1,5.9,10.4,76c0.1,7.8-1.6,13.4-8.3,18.6c-9.4,6.4-13.2,18.3-9.3,28.8
			c6.5,22.3,37.8,27.9,49,7.7c7-11.7,15-9.3,27.1-9.3c10.8,0,19.8-1.8,28.9,7.3c106.2,107.2,107.7,101.8,107,114.8
			c-1.3,39.3,5.6,50.1-14.1,59.3c-16.9,8-17.7,26-12.3,40.4c4.8,13,22.7,22,35.8,19.7c14.6-2.8,27.9-16.3,29.6-30.2
			c1.6-12.4-7-27.3-21.1-32.9c-8.5-3.4-10.5-8.2-10.2-16.4c0.5-14.9,0.1-29.9,0.1-45c0.9-10.5,3.3-4-113.3-119.6
			c-3.6-3.8-8.7-5.7-14-5.3c-9.4,0.2-18.8-0.1-28.2,0.1c-5.7,0.1-9.5-1.1-11.4-7.7c-2.2-8.8-9.5-15.5-18.6-16.9
			c-12.9-2.1-7.9-5.9-9.1-73.8C4344.6-119,4345.7-124.9,4354.8-128.9z M4538,180c28,1.4,31.4,46.3-1.5,46.8
			c-14.6,0.2-25.5-9.9-25.3-23.2C4511.9,190,4523.6,179.2,4538,180z M4338.5-133.3c-13.6,0-24.7-10.7-25.1-24.1
			c-0.7-13.1,13.5-23.6,23.9-23.8c13-0.1,23.9,9.8,24.8,22.6c0,0.2,0,0.4,0,0.6C4362.5-144.7,4351.9-133.7,4338.5-133.3z"/>
		<path class="st3" d="M3157.1-147.1c2.8-4.9,6.5-9.3,10.9-12.8c25.4-25.3,50.8-50.7,76.5-75.6c13.3-11.9,7.5-10.6,9.1-142.6
			c0.5-9.2-3.1-18.2-10-24.4c-65.3-64-130.2-128.5-195.5-192.7c-6.6-6.5-10.9-12.3-8-22.5c3.1-9.3-0.8-19.4-9.3-24.3
			c-8.7-5.4-23.5-4.2-30.8,2.3c-19.4,17.1,1.1,48.7,21.6,41.9c9.2-3.1,13.7,0.9,18.9,6c65.3,64.8,130.7,129.5,196.2,193.9
			c6.1,5.6,9.3,13.6,8.9,21.8c-1.3,125.7,4,125-8.9,136.5c-74.1,70.3-80.2,85.3-104.6,97.4c-6.9,4.3-12.8,17.2-6.7,29.1
			c5,9.5,16.7,15.9,25.7,14c11.6-2.3,20.2-12.1,20.8-23.7C3172.8-133.9,3165.4-140.3,3157.1-147.1z"/>
		<path class="st3" d="M3624.5-1247.1c0.6,8.8-3,17.4-9.8,23.1c-5.5,4.8-100.3,99.1-106.3,105.1c-5.8,5.8-10.9,10.4-20.1,6.2
			c-3.9-1.8-9.3-1.1-13.9-0.8c-17.4,1.6-30.6,16.1-30.4,33.4c0.7,13.5,12.5,27.8,25.2,30.3c32.5,6.6,52.1-23.3,40.2-45.3
			c-6.4-11.6,2.3-14.9,7.1-20.3c35.5-35.1,70.7-70.3,106.5-105c7-6.1,10.8-15.2,10.1-24.5c-0.6-14.4-0.2-13.9-0.2-93
			c0-20.7,0.2-20.6,14.8-34.7c5.3-5.1,9.8-6.8,16.4-2.7c36.7,21.7,86.2-12.4,71.5-55.8c-8.5-25.2-36.1-38.8-61.7-30.4
			c-29.8,9.6-40.2,38-29.8,64.6c4.6,11.8,5,11.7-4.2,20.7c-5.4,5.9-16.5,10.2-15.9,33C3624.8-1311.2,3623.9-1279.1,3624.5-1247.1z
			 M3478.1-1057.4c-13.1-0.3-24.1-12.9-24.3-23.6c-0.3-13.6,14.1-25,25-24.4c13,0.3,23.5,10.7,23.9,23.5
			C3504.3-1068.4,3490.1-1057.2,3478.1-1057.4z M3691.6-1449.6c42.4,2.9,41.3,68-4,66.5c-19.3-0.6-33-16.3-32.8-35.7
			C3654.8-1432.6,3671.4-1451,3691.6-1449.6z"/>
		<path class="st3" d="M3444.7,168.6c-8.6-5.5-9.5-12.1-9.5-20.6c0.2-46.9,0.2-94-0.1-140.9c-0.1-8.4,1.8-13.4,10.3-18
			c22.8-12.1,18.9-44.5-0.2-53.2c-8.1-3.7-10.2-8.5-10-16.7c1.4-103.8-4.4-106.2,10.1-115.1c9.2-5.6,7.5-16.4,5.2-25.5
			c-2.2-8.9-10-13.6-20-14.4c-10.2-0.8-18.5,2-23.8,11.3c-7.1,12.3-4.5,26.1,9.2,32.8c16.5,8.2,9.8,10.2,11.5,107.5
			c0.5,26.5-19.3,11.9-28.5,36.7c-5.8,15.6,2.3,32.9,18.1,38.7c15.7,5.1,8.9,2.4,10.3,157.1c0.2,18.8-8,13.6-13.7,19.2
			c-16,14.6-9.1,42,13,42.7c11,1,19.4-2.6,24.5-12.5C3456.3,187,3455,175.2,3444.7,168.6z M3405.9-37.3
			c0.3-12.4,10.3-22.4,22.8-22.9c13.1,0.2,23.6,10.6,23.8,23.5C3451.8-9.1,3406.3-7.3,3405.9-37.3z"/>
		<path class="st3" d="M4199-1385c-14.9,14.5-29.3,29.4-44.6,43.6c-8.4,7-12.9,17.6-12.2,28.4c0.8,32,0.1,64,0.3,96
			c0.2,29.7-3.4,24.5,16.8,43.4c4.3,3.2,5.8,8.9,3.4,13.6c-8.6,20.3,12.7,42.8,35.3,34.5c12.9-5.1,20.7-19.1,17.5-31
			c-3.8-14.6-18.8-23.5-33.7-19.9c-3.6,0.8-7.7,2.9-10.5,0.4c-9.5-8.3-21.4-14.8-20.6-30.6c0.5-10.3,0.2-105.3,0.2-108.4
			c0-5.8,0.6-11.5,4.9-15.8c16.9-16.9,33.9-33.7,50.8-50.5c2.3-3.2,7.2-3.1,9.4,0.2c9.3,10.7,20.5,9,23.6,9.2c3.4,0.3,6,3.3,5.7,6.6
			c0.6,17.9,3.9,36.5-15,48.7c-3.8,2.5-6.3,6.9-10,9.8c-9.1,6.4-13.9,17.3-12.2,28.3c1,9.7,0.1,18.4-8,26.8
			c-8.2,8.5,0.5,22.5,12.6,22.8c6.2,0.2,12-1.4,14.5-7.2c2.6-6.2,3.2-13-2-18.8c-3.5-3.8-7.4-7-7.7-12.9
			c-0.8-14.2-1.3-28.1,12.9-37.1c1.7-1.1,2.8-3.2,4.4-4.3c15.9-11.3,21.9-26.1,19.3-45.4c-3.2-20,7.1-30.9,9.2-37.1
			c11.5-33.7-44.7-53.1-54.2-11.2C4207.8-1396.2,4204.2-1389.8,4199-1385z M4190.7-1170.3c23.1,2,25.3,38.9-2.8,38.6
			c-12-0.1-19.1-7.3-19-19.3C4168.9-1162.1,4178.4-1171.4,4190.7-1170.3z"/>
		<path class="st3" d="M5291.5-411.3c-8.8-14.9-31.7-13.9-37.9-1.3c-6.7,13.7-7,8.6-128.6,9.6c-7.3,0.3-14.4-2.7-19.2-8
			c-30.7-31.5-157-155.3-188.5-186c-5.4-4.8-8.4-11.9-8-19.1c1.4-79.9-3.8-82.5,8.2-89.5c6.9-4.1,10.8-11.8,10.2-19.7
			c-0.4-9.5-11-19.3-20.7-20.5c-9.6-0.9-18.8,4.2-23,12.9c-3.8,8.9-1.7,22.1,6.6,26.5c9.9,5.2,10.5,12.9,10.4,21.9
			c-0.1,23.8,0.2,47.5-0.1,71.3c-0.5,7.2,2.3,14.2,7.6,19.3c211.1,207.6,197.2,199.8,211.9,198.9c19.3-0.4,38.7-0.1,58-0.1v0.1
			c19.9,0,39.7,0.1,59.6-0.1c16-0.2,12.5,7,18.4,11.3c8.6,7.3,21.3,7.4,30.1,0.3C5295.1-390.1,5297.3-402.1,5291.5-411.3z"/>
		<path class="st3" d="M4873.6-670.6c10.5-5.4,13.5-15.1,10.6-26.3c-3.8-11.8-16.7-18-28.4-13.6c-17,7.1-20.6,27.4-5.7,38.5
			c6.6,4.9,7.8,10,7.6,17c-0.5,20.8,0.6,49.2-0.2,60.5c-1.2,17.2-9,2.4,218.7,228.7c5.3,5.6,12.9,8.7,20.6,8.3
			c32.9-0.3,65.8,0.1,98.7-0.2c28.3-0.3,16.5,16.6,34.9,18.4c25.5,4.1,38-29.6,15.2-41.5c-10.9-5.6-22.1-4.1-28.8,6.6
			c-8.7,13.8-10.9,6.7-115.2,8.9c-20.9,0.8-8,3.2-227.3-211.1c-6.2-5.5-9.4-13.6-8.9-21.8c0.5-19.1,0.3-38.2,0.1-57.3
			C4865.4-662.5,4866.7-667,4873.6-670.6z"/>
		<path class="st3" d="M3922.6,307.9c-8.5-4.1-10.7-9.2-10.7-17.9c0.3-47.5,0.1-95,0.2-142.6c0-11.8,0.3-11.3,12.7-16.3
			c25.1-10.2,35-29.8,26.5-54.9c-8.1-23.6-30.4-32.4-56.5-24.3c-16.8,5.2-26.3,19.1-27.9,36.1c-2.2,23.7,17.9,39.2,26.5,41.6
			c10.3,1.8,10.9,8.8,10.8,17.2c-0.3,23.7-0.1,47.5-0.1,71.2h0.1c0,24.8-0.2,49.6,0.1,74.4c0.1,6.9-1.7,11.3-8.9,13.9
			c-15.3,5.7-20.1,17.8-19.6,33.3c0.6,17.4,24.2,33.2,41.3,26.3C3946.9,354,3946,318.5,3922.6,307.9z M3880.6,91
			c-1.4-19.9,17.7-30.3,30.6-30.1c13.6,0.3,30.9,10.9,30.5,30.7c-0.8,16.1-14,28.8-30.3,29.3C3894.4,121.4,3880.4,107.8,3880.6,91z"
			/>
		<path class="st3" d="M3908-237c-12.8-12.2-25-24.9-37.8-37.1c-6-5.7-9.9-10.7-6.3-20.1c3.6-9.5-2.8-21.4-11.6-26.4
			c-8.4-4.7-24.4-2.7-30.8,4.1c-6.1,6.4-7.6,20.7-3.1,29.1c4.9,9.3,16,15.1,26.2,12c5.8-2.5,12.6-0.8,16.6,4.1
			c42.1,43.1,46.8,42.4,46.1,54.5c-0.3,15-0.2,29.9-0.1,45c0.7,5.2-2.4,10.2-7.4,11.9c-18.7,7.2-20.4,35.7-0.6,44
			c5.7,1.8,9.1,7.5,8,13.2c-0.3,3.1-0.1,6.2-0.1,11.2c-1.2,5.4,2.5,13.6-4.6,20.1c-8.5,7.7-16.4,15.9-24.4,24
			c-4.2,4.3-8.6,5.5-13.8,2c-7-4.7-14.9-4.3-22.7-3.7c-16.8,1.5-30.9,20.1-28.3,36.6c2.8,17.6,21.9,32.3,38.4,28.7
			c22.1-4.8,32.9-18.1,28.2-41.8c-1.6-7.9-0.3-12.4,5.2-17.4c8-7.4,15.3-15.6,23.4-22.9c4.9-4.1,7.4-10.2,6.8-16.4
			c-0.4-7.2,0-14.5-0.1-21.7c-0.4-5.1,2.2-10.1,6.7-12.6c16.9-11.6,17.6-28.8,1.3-40.9c-5.7-3.7-8.8-10.1-8.2-16.7
			c0.4-15-0.2-29.9,0.2-45C3915.8-226,3913.1-232.6,3908-237z M3845.7,6.3C3833,6,3823-4.4,3823.4-16.9c-0.2-12.8,12.3-25,25-24.4
			c12.3,0.6,24.3,12.4,24.3,24.1C3872.6-7.5,3864.7,6.8,3845.7,6.3z"/>
		<path class="st3" d="M4306.8-709.4c7.7,1.5,19-6.1,18.3-14.8c-0.7-9.6,4.5-14.1,9.9-19.6c27.7-27.4,55.2-54.9,83.2-82
			c7.5-6.5,11.6-16,11.2-25.9c-0.6-21.6-0.2-43.4-0.2-65l0,0h-0.1c0-21.1-0.7-42.4,0.2-63.5c0.8-12-4.2-23.5-13.5-31.1
			c-17.6-16.2-34.1-33.5-51.2-50.1c-10-9.7-2.7-12.7-1.3-18.8c3-13.1-6.8-28.7-20.3-32.4c-12.6-3.6-29,4.6-33.4,16.7
			c-8,21.2,11.7,43.2,32.6,36.5c13.7-4.9,12.2,3.4,68.4,55.9c13.7,12.8,7.3,13,8.9,150.3c0.7,8.1-2.4,16.1-8.4,21.7
			c-27.3,26.3-54.1,53.1-80.9,79.8c-6.4,6.4-12.5,11.5-22.7,10.9c-8-0.5-12.8,4.8-14.2,11.8C4291.7-719.8,4297.7-711.1,4306.8-709.4
			z"/>
		<path class="st3" d="M5069.4,388.2c-1.9,6-8.1,9.8-14.4,8.7c0,0-139,0.1-189.7-0.2c-9.4-0.5-18.4,3.4-24.6,10.3
			c-14.2,15.1-29.7,29-44.1,44.1c-7.8,8.1-14.1,12.7-26.5,6.4c-11.9-6.1-28.4,3-33.6,15.3c-5.6,13.5,0.4,29,13.7,35.5
			c18.9,9.3,41.2-5.2,39.6-26.3c-2.3-16.8,5.9-16.4,57.2-69.4c10.8-11.9,5.8-6.4,205.8-7.7c8.2-0.1,15.8,0,18.4,9.8
			c2.2,5.6,17.4,17.1,34.4,10.1c11.8-5.2,19.2-18.8,16.6-30.3C5116.2,368.2,5079.2,363.8,5069.4,388.2z"/>
		<path class="st3" d="M3907.4-710.9c-3.4,26,31.7,38.3,45.6,15.9c6-9.2,4.6-24.4-5.2-30.5c-10.3-6.4-11-14.6-10.9-24.7
			c0.3-41.3-0.1-82.7,0.3-124c0.6-9.3-3.1-18.3-10-24.6c-24.4-23.3-48-47.5-72.3-71c-6.2-5.4-9.6-13.4-9.2-21.7
			c1.8-98.8-4.7-102.2,9.7-112.1c9.6-6.7,9.7-22.2,2.1-30.4c-19.1-20.3-52.4,10.2-31.1,28.5c11.6,10,9.3,19.7,9.3,39.8h1.6
			c0,23.7,0.6,47.5-0.3,71.2c-1,11.9,3.7,23.5,12.8,31.3c23.9,22.4,46.6,45.9,69.9,69c10.5,10.4,6.4-1.6,7.3,151
			C3927.1-722.6,3911.1-734.5,3907.4-710.9z"/>
		<path class="st3" d="M4103-1349.2c-5.1,4.4-7.9,10.9-7.6,17.6c0.8,151.9-3.3,148.3,8,158.6c21.4,20.5,42.3,41.4,63.3,62.2
			c7.2,7.2,17.1,13.4,10.5,24.4c-3.5,34.1,33.2,36.9,46.1,23.6c22.4-23-3.2-55.9-27.7-45.6c-8.5,3.6-13.2,1.6-19-4.2
			c-67.7-68.6-73.8-67.3-72.9-85.6c0.4-40.8,0.7-81.6-0.1-122.4c-0.6-11.4,4.2-22.3,12.9-29.7c62-58.2,61.3-66.6,79.9-65.4
			c16.4,1,31-25.5,8.3-38.8c-16.6-9.5-36.7,6-30.2,23.8c2.8,8.1-0.8,12.3-5.8,17.2C4146.6-1392.2,4125-1370.4,4103-1349.2z"/>
		<path class="st3" d="M4460.4-1132.6c63.9,63.2,127.8,126.4,191.8,189.6c6.7,6.6,12.4,11.9,8.9,23.8c-4,13.6,15.3,27.7,28.7,22.8
			c15.4-5.5,17.1-16,15.4-26.7c-1.7-10.6-12.2-17.7-24.7-16.2c-6.9,0.9-12.1,1.4-17.9-4.4c-221.1-219.7-212-204.9-211.2-219.5
			c0.5-26.2-0.1-82.1,0.2-117.9c0.1-5.5-1.9-11.6,2.5-16.3c4.6-4.9,9.8,0.1,14.8-0.1c16-0.6,27.5-15.9,21.7-29.8
			c-11.3-27.3-48-14.2-43.4,11.3c1.3,6.4,2.4,11.7-2.7,16.9c-3.8,4-1,2.5-2.1,136C4442.2-1145.7,4449.7-1144.3,4460.4-1132.6z"/>
		<path class="st3" d="M3969.9-752.7c-2.5,0.9-4.4,4.2-6,6.9c-10.1,15.4,2.8,36,21.6,36.5c9.3,0.6,19.8-7.5,22.9-16.1
			c3.6-9.9,1.2-21.8-8.5-27.5c-9.1-5.2-9.6-12.1-9.6-20.6c0.2-42.9-0.1-85.8,0.3-128.6c0.6-8.7-2.9-17.2-9.4-23.1
			c-24.8-23.7-48.7-48.2-73.3-72.1c-5.8-5.1-9-12.6-8.6-20.4c1.4-102.8-4.1-103,8.6-111.1c9.4-5.9,10.4-22.6,3.5-30.3
			c-8.1-8.8-21.8-9.6-30.8-1.9c-10,9.4-11,23.5,0.5,30.6c10.7,6.7,10.7,15,10.6,24.9c-0.2,29.9,0.3,60-0.3,89.9
			c-0.6,9.2,3.1,18.2,10,24.4c24.4,23.3,47.9,47.5,72.3,70.9c15,13.3,6.4,20.6,8.9,141.1C3982.9-768,3983.5-757.4,3969.9-752.7z"/>
		<path class="st3" d="M5128.6-438.7c4.3,4.4,10.4,6.8,16.6,6.4c14.6-0.3,29.3,0.1,43.9-0.1c10-0.2,18.8-0.5,24.7,10.9
			c4.3,8.1,14.5,9.7,23.8,6.9c18.5-5.3,20.8-31.1,4.2-40.4c-10.3-6.4-21-5.3-28.6,6.1c-5.4,8.1-11.5,9-19.6,8.8
			c-13.1-0.2-26.2-0.7-39.2,0.1c-10.3,0.6-17.5-3-24.7-10.1c-55-55.1-110.4-110-166.3-164.3c-9.3-9.1-14.2-18-13.2-31
			c0.7-9.5,0.2-17.5,11.4-22.5c8.9-4.3,12.9-14.8,9.2-23.9c-3.1-8.5-10.4-16.3-21-15.2c-10.3-0.1-17.1,3.9-21.4,12.5
			c-3.8,7.6-3.1,18.6,4.7,23.9c9.6,6.6,9.4,15,9.1,24.3c-0.1,4.1,0.4,8.3-0.1,12.4C4940.5-619.3,4935.2-631,5128.6-438.7z"/>
		<path class="st3" d="M3396.6-1100.2c-21.9-6.6-41.1,33-13.9,45.5c9.1,4,18.8,3.9,26.5-2.6c7.4-6.1,12.6-14.2,8.6-24.5
			c-4.2-10.8,2.6-15.1,9.7-22.1c45.8-45.3,91.4-90.7,137.6-135.7c8.1-7.9,12-15.9,11.4-27.2c-0.8-16-0.2-32-0.2-48l0,0
			c-0.1-59.1-0.1-55.3,0.2-58.9c1.1-8.4,5.2-11.2,14-9.9c1.5,0.2,3,1.2,4.5,1.4c29.2,1.4,36.7-42.4,7.1-47.9
			c-20-3.8-34.3,12.1-28.4,31.8c1.2,4,3.6,8-0.4,11.4c-6.6,5.4-6,12.7-6,20c0,31-0.6,62,0.3,93c0.4,14.6-4.4,25.1-15,35.3
			C3405.7-1096.7,3415.3-1094.5,3396.6-1100.2z"/>
		<path class="st3" d="M2986.2-159.6c-7.6-7-5.6-16.1-5.6-24.7c0.1-158.6,0-317.1-0.2-475.7c0-9.7,0.3-17.5,10.4-23.4
			c16.7-9.9,7.9-43.2-15.8-42.1c-11.2-1.4-20.3,7.4-23.4,14.9c-4.2,10.2-1.2,23.3,9.2,28.6c11.2,5.6,11.7,13.7,11.7,24
			c-0.3,523.5,1.8,489.9-4.2,496.5c-4.3,5.7-3.6,14.9,3.6,18.7c7,4.9,17-3.2,15.6-12.4C2987.6-156.8,2987.1-158.4,2986.2-159.6z"/>
		<path class="st3" d="M3962.1-1022.4c-4.5-4.4-8.8-8.6-8.8-15.7c0.5-110.4-2.3-106.7,5.1-111.2c13.9-7.6,15.3-24.1,6.4-34.1
			c-7.5-7.7-19.6-8.7-28.4-2.4c-11.2,7.6-12.6,25.1-0.6,32.9c9,5.8,9.1,12.5,9.1,20.8c-0.1,27.9,0.7,55.8-0.3,83.7
			c-1.1,13.4,4.3,26.5,14.6,35.3c23.3,21.4,45.4,44.2,67.9,66.5c4.4,4.3,8.9,8.2,8.8,15.5c-0.3,45.9-0.2,91.9-0.1,137.9
			c0,13.7-7.9,9.3-14.6,17.8c-6.2,7.5-9.6,15.4-4.7,25.5c3.6,8.9,12.3,14.5,22,14.3c30.5,0.4,29.4-35.2,16.1-42.4
			c-10.8-5.8-10.4-14.1-10.4-23.4c0-41.3-0.4-82.6,0.1-123.9c0.7-10.3-3.4-20.3-11.1-27.2C4009-975.2,3985.8-998.9,3962.1-1022.4z"
			/>
		<path class="st3" d="M3526.2,245.9c-8.4-4.8-9.4-11-9.4-19.1c0.1-97.6,0.1-195.3,0-292.9c0-8,0.3-14.6,8.8-19.6
			c19.8-11.9,8.8-41.9-15.1-43.2c-27.8,1.1-31.8,37-12.3,45.3c10,4.2,10.8,10.6,10.7,19.5c-0.3,48-0.1,96.1-0.1,144.1l0,0
			c-0.1,46.5-0.1,93,0,139.5c0,11.4,0.9,21.2-12.9,28c-11.3,5.4-11.9,20.7-4.8,31.4c6.7,10.1,18.4,12.4,30.2,8.7
			C3537.3,282.7,3542.2,255.1,3526.2,245.9z"/>
		<path class="st3" d="M3503.3-935.2c-0.2,10.1,10.1,17.1,19.3,15.7c8.5-1.6,14.7-8.8,15-17.4c-0.3-9-9.5-18.5-19-16.3
			c-8.7,2-12.6-2.1-17.4-6.8c-22.9-22.6-45.9-45.2-68.5-68c-10.5-11.5-8.7-6.6-146.1-7.8c-8.3-0.4-16.4,3.1-21.8,9.3
			c-17.6,18.5-25.8,25.2-102.8,102c-17.4,17.4-20.2-9.3-41.3,13.1c-16.8,17.8-0.1,44.8,25.7,38.6c10.3-2.5,16-9.8,16.4-21.5
			c1.6-12.3-7.4-12.5,4-23.9c112.6-110.5,106.9-110.6,122.3-109.8c19.8,0.4,39.7,0.1,59.5,0.1l0,0c19.3,0,38.6,0.4,57.9-0.2
			c9.4-0.7,18.6,3,24.8,10c19.5,20.2,39.6,39.7,59.7,59.3C3497.9-952.2,3503.5-946,3503.3-935.2z"/>
		<path class="st3" d="M5211.5-558.5c-5.9,9.2-13.1,10.2-22.3,9.8c-23.5-1.1-31.1,3-38.6-6.6c-7.7-9.4-18.3-11.6-12.3-26.4
			c12.6-31.3-21.9-53.5-44.8-41.8c-6.1,3.2-10.7,2.5-14.9-2.9c-1.2-1.7-3-3-4.3-4.4c-4.6-5.7-11.9-8.8-19.3-8
			c-9.4,0.7-18.8-0.1-28.2,0.2c-8.7,0.3-15.6-0.6-21.2-9.1c-5.5-8.3-19.6-9.3-28.4-4.3c-14.6,8.4-16,39.5,12.3,40.2
			c24.3,0.6,12.7-20.4,36.2-18.7c4.2,0.3,8.4,0.1,12.6,0.1l0,0v0.1c29,0,23.4-1.6,37.5,12.7c4.2,4.2,0.2,8.4-0.7,12.8
			c-2.4,11.9-3.2,23.7,6.8,33.2c10.5,10,22.5,15.4,36.7,8.7c7.8-3.7,12.5-1.4,17.4,4.3c3.3,4,7.6,7.1,11,11.1
			c4,4.8,10.3,7.4,16.6,6.8c9.4-0.4,18.8,0.2,28.2-0.2c7.9-0.4,14.2,1,18.1,8.9c7.7,14.8,33.1,13,40-5.2c3.3-9.6-0.5-20.2-9.2-25.6
			C5230.8-569,5217.8-568.3,5211.5-558.5z M5082.1-594.3c0.4-11.5,12.9-23.4,24.8-23.6c13.6,0.4,24.4,11.5,24.3,24.9
			C5130.6-560.3,5081.1-565.5,5082.1-594.3z"/>
		<path class="st3" d="M3897.4-1244.8c0.6,4.7,6,9.6,1.1,14.4c-4.1,4.1-8.9,1.9-16.6,2.5c-24.3,2-29.7,31.9-10.8,44.4
			c18,11.1,44.6-3.3,36-29.8c-4.8-14.7-2.4-11.1,12.8-9.9c22.4,1.8,35.5-13.1,29.7-34.6c-1.5-5.5-1.6-10.1,3.6-13.5
			c8.6-5.6,9.1-14,9.1-23.1c-0.3-44.4-0.1-88.8-0.2-133.2c0-8.8-0.5-16.4,10-21.8c9-4.6,10.2-17.4,5.3-26
			c-10.7-18.3-42-13.6-39.3,13.2c0.1,5.2,2.8,10.2,7.4,12.9c8.5,4.4,8.9,11.6,8.9,19.7c-0.2,21.6-0.1,43.4-0.1,65l0,0
			c0.1,82.9,0.8,79.1-2.8,82.9c-5.3,5.5-9.5,10-19.5,7.6C3908-1279.6,3895.1-1262.9,3897.4-1244.8z M3924.5-1269.5
			c10.7,1,19.2,9.3,20.3,19.9c0.3,9.5-9.4,19.8-19.6,20.5c-10.1,0.8-22-9.7-22.2-19.6C3902.8-1258.1,3914.7-1269.6,3924.5-1269.5z"
			/>
		<path class="st3" d="M3484.5,218.2c-7.7-7.5-8.5-15.5-8.5-25.1c0.2-106.4,0.2-212.7,0-319.1c0-9.2,0.1-17.4,10.2-21.7
			c7.4-5.1,13.9-21,3.5-33.1c-14.8-17-42.7-8.9-43.5,13.6c-0.5,10.4,3.3,18.7,13,22.5c8,3.3,9.5,8.5,9,15.8
			c-0.1,0.8,0,304.4,0,305.2c0,27,1.9,32.8-7.3,37.2c-10.7,4.7-9.5,18.6-6.3,24.3c5.4,8.9,17.2,11.6,26,5.8
			C3489.3,237.7,3492.2,225.7,3484.5,218.2z"/>
		<path class="st3" d="M3689.6-596.4c-4.9-13.4-17.4-18.6-31.5-14.5c-11.7,3.4-18.7,19.9-14.8,30c4.6,12.2,16.8,20.1,29.2,15.9
			c8.2-2.7,13.2-1.1,19.1,4.8c56.4,55.9,112.9,111.8,169.4,167.8c3.7,2.9,6.4,6.8,7.8,11.3c-14.1,7.4-26,15.6-22.3,31.2
			c5.6,24.2,34.9,25.9,45,8.1c6.8-11.1,4.8-22-5.8-31.4c-3-2.7-7.9-3.9-7.9-8.8c-0.1-6.1,13.1,6.7-180.7-183.8
			c-5.5-5.4-10-10.7-5.8-18.9C3693.5-588.7,3691-592.6,3689.6-596.4z"/>
		<path class="st3" d="M3241.8-520.6c-0.6,18.9,10.1,27.9,24.6,31.9c13.8,3.9,30.8-5.4,36.1-18.3c6.4-14.3,0.8-31.1-13-38.8
			c-8.4-5.4-19.1-6.2-28.2-2.2c-7.7,3.5-12.5,1.4-17.9-4c-97.6-97.5-97.2-92.1-96.8-105c0.9-134.2-3.1-131.2,7.1-140.2
			c61.4-59.6,60-64.1,74.3-62.6c7.7,1.4,15-4.1,15.7-11.8c2.2-10.1-4.8-19.9-15.2-21.2c-9.7-1-17.6,5.8-17.5,17.1
			c0.1,7.2-3.1,14.1-8.7,18.8c-17.5,17-34.3,34.8-52.3,51.2c-16.7,15.2-9.6,16.7-11.5,144.7c-0.7,10.8,3.5,21.2,11.6,28.5
			c28.9,27.6,57,56.1,85.6,84.1c6.1,5.9,12.5,11.3,6.8,21C3241.8-525.3,3241.6-522.9,3241.8-520.6z M3273.7-540.9
			c15.3,0.2,23,9.8,22.1,23.5c-0.8,12.4-11.6,21.8-24.1,21.1C3244.3-498,3241-541.4,3273.7-540.9z"/>
		<path class="st3" d="M5044.6,430.5c-10.6,0.2-20.4,3.4-24,13.8c-3.7,10.6-10.6,12-20.3,11.7c-22.4-0.5-44.9-0.2-67.4-0.2
			c-23,0-46,0.4-68.9-0.2c-8.3-0.5-16.4,2.9-22,9c-14.1,14.5-29.2,28.1-43.2,42.7c-6.5,6.8-12.8,11.4-22.7,10.7
			c-14-0.9-22.4,19.4-12.2,31.8c14,17.3,42.1,1.5,35.1-17.4c-5.3-14.5,2.1-13.2,47.4-60.4c11-12.3,9.7-7.2,150.6-8.4
			c30.1-0.3,22,10.6,32,16.1c23.3,17.6,54.5-10.3,40-35.7C5064.4,435,5054.8,429.7,5044.6,430.5z"/>
		<path class="st3" d="M4500.4-1262.9c0.2,28.9,0.5,57.8-0.1,86.7c-0.6,10.9,3.8,21.3,12,28.7c39.5,38.2,78.5,77.1,117.7,115.6
			c32.1,31.6,36.5,33.8,30.9,42.4c-2.6,6.9,0.8,22.4,15.3,26.7c34.7,8.3,42-45.2,3-42.3c-10.1,3.8-0.3,8.6-160.7-149.2
			c-5-4.9-8.4-9.8-8.4-17.4c0.4-110-4.9-102.9,9.7-108.6c7.7-3,11.6-11.6,8.5-19.3c-9.3-21.6-36.7-8.1-30.5,9.1
			C4500.9-1281.1,4500.3-1272,4500.4-1262.9z"/>
		<path class="st3" d="M3381.2-1142.8c-10,4.9-22.6,1-33.3,1.8c-22,1.1-31.5-4.9-46.9,11c-23.4,24.2-48,47.4-71.7,71.4
			c-6.7,6.7-12.6,11.9-23.7,11.2c-12.6-0.9-19.9,13.8-13.6,24.2c9,16.7,34.2,7,32.3-8c-2.2-11.7-1.5-7,87.2-95.8
			c3.8-4.2,9.4-6.5,15.1-6.2c15.7,0.3,31.3-0.4,47,0.2c7.8,0.5,15.4-2.8,20.5-8.7c21.1-21.4,42.8-42.4,64.1-63.6
			c5.7-5.6,10.6-9.7,20.3-6.4c11.4,3.9,24.5-5,28.2-16.4c8.7-26.9-28.5-44.5-44.2-20.8c-4.3,5.4-5.5,12.6-3.1,19.2
			c3.5,8.3-0.4,12.3-5.4,17.2C3388.2-1148.8,3391-1147.6,3381.2-1142.8z"/>
		<path class="st3" d="M3981.9-1396.3c10.6,5.9,10.4,14.1,10.1,23.5c-0.1,3.1-0.1,163.7,0.1,277.3c0,8.1-0.3,14.7-9.3,19
			c-18.8,9.1-15.8,44,12.7,48.3c10.9,1.7,25.1-6.7,28.9-17.1c4.7-12.9,0.4-27.4-12.7-32.9c-10.6-4.4-11.7-11-11.7-20.4
			c0.2-58.9,0.3-263.7,0-277.3c-0.1-7.8,1.1-13.3,9.4-17.1c22.9-9.8,13.5-50.5-15-45.5c-9.6,1.4-17.5,8.2-20.2,17.4
			C3971.1-1411.3,3973.2-1401.2,3981.9-1396.3z M3999.3-1074.2c10.9,0.2,20.4,9,20.4,19.1c0,10.6-10.1,19.8-21.7,19.5c0,0,0,0-0.1,0
			c-10.9,0.2-19.8-8.4-19.9-19.2C3977.9-1066,3987.2-1074.5,3999.3-1074.2z"/>
		<path class="st3" d="M2936.3-899.7c-6.5,6.7-12,11.2-22.8,7.3c-15.9-5.6-35.2,15.8-26.3,33.7c11.4,25.8,51,14,45.9-9.9
			c-2.8-13.3,2.6-21.4,12-28.8c2-1.6,3.5-3.9,5.6-5.3c8.9-6.3,11.2-14.8,11.1-25.5c-0.5-50.7-0.1-101.3-0.4-152
			c-0.2-26,9.6-20,14.5-27.7c14.8-21-7.1-47.9-29.9-36.6c-18.1,8.9-20,31.6-2.2,42.2c8.2,4.9,10.1,10.1,10,18.4
			c-0.5,39.4,0.2,111.2-0.2,142.6C2953.3-911.2,2957.5-921.8,2936.3-899.7z"/>
		<path class="st3" d="M2879.7-218.9c-5.9-2.2-9.6-8.1-9-14.3c0.2-67.7,0.2-135.4,0-203c-0.5-6.2,2.9-12.1,8.6-14.9
			c17.6-9.5,13.7-38.9-7.8-44.6c-27.1-6.1-41.1,34.4-20,43.5c11.4,4.9,11.5,12.4,11.4,22.1c-0.2,63.5-0.2,127.1,0,190.7
			c0,10.2-0.6,18.3-11.1,24.6c-9.3,5.5-10.4,18.3-5.5,27.9c11.1,21.3,45.4,16.5,46.4-10.7C2893.4-206.8,2888.2-215.3,2879.7-218.9z"
			/>
		<path class="st3" d="M3886.4-1440.6c6,4.9,9.2,12.5,8.5,20.3c-0.2,5.4-0.5,50.3,0,57.3c2.7,19.5-3.9,33.8-18.9,47.2
			c-80.4,72.5-82.5,92.2-97.5,83.2c-4.6-2.8-10.2-1.7-15.4-1.4c-17.3,1.8-30.5,16.2-30.6,33.4c0.7,17.3,18.8,34.8,35.5,32.7
			c24.4-3,39.3-24.2,30.9-43.6c-4-9.3-1.5-14.9,5.2-21.4c30.2-29.3,59.8-59.2,90-88.5c6.2-5.4,9.6-13.4,9.2-21.7
			c-0.5-23.7,0-47.5-0.3-71.3c-0.1-10-0.4-18.8,11.3-24.3c9.2-4.3,8.4-14.7,6.6-23.6c-3.5-15.3-26.2-19.3-36.4-5.6
			C3877-1458.7,3876.7-1449.5,3886.4-1440.6z M3765.8-1178.3c-13-0.2-23.4-10.9-23.1-23.8c0.3-13.2,12.5-25.1,25.6-23.4
			C3803.3-1221.1,3795.1-1176.1,3765.8-1178.3z"/>
		<path class="st3" d="M4317.5,22.8c-43.8,13.7-23.6,74,16.4,64.2c5.9-2.1,12.5-0.3,16.5,4.5c9.8,10,20.9,18.9,29.7,29.7
			c33.2,41.3,63.9,2.6,73.7,32.1c6.5,11.4,29.5,19.6,45,4.4c19-18.7,6-51.2-21.1-51.7c-11.9-0.3-22.8,6.8-27,17.9
			c-5.2,13.7-13.9,8.4-30.8,9.6c-10.7,1.5-18.7-2.5-26-10.4c-41.6-45.2-45.8-36.5-37.6-51.7C4371.2,46.4,4346.6,15,4317.5,22.8z
			 M4326.1,77.8c-13.4-0.2-24.6-10.3-24.8-22.4c-0.2-12,13.3-25.5,25.6-24.2c14.6,1.5,23.1,8.9,24.4,23.4
			C4352.3,68.1,4341,78,4326.1,77.8z"/>
		<path class="st3" d="M4537.2-516.1c24.5,0.4,36.6-31.8,17.9-46.9c-17.8-16.9-52.8-3.9-45,28.8c4.9,20.6-14.4,9-13.9,39.1
			c0.5,31.5,0.1,63,0.2,94.6c0.1,11.4,1.1,22.1-12.7,28.4c-15.6,7-9.9,36.1,9.5,39.3c9.8,1.7,18.7,0.1,25-8.6
			c7.6-10.6,6.7-23.7-4.7-31.2c-11.3-7.4-8.8-11.4-8.8-69.2h0.1c0-18.6,0.4-37.2-0.2-55.8c-0.3-8.7,5.8-12.7,10.4-18.1
			C4520.7-522.3,4524.2-515.1,4537.2-516.1z"/>
		<path class="st3" d="M4574.3-696.2c10.9-10.4,21.1-21.4,32.2-31.6c12.1-10.9,7.2-10.2,8.3-142.9c0.1-8.9-2-15.9-8.9-21.8
			c-5.9-5-11.1-11-16.7-16.3c-7-6.8-15.6-12.9-9.2-24.6c1.6-6.1-5.7-23.5-23.3-23.7c-11.9,1-21.3,10.5-22,22.2
			c-0.2,11.9,9.5,23.1,21.3,21.4c13.8-1.9,22.6,3.5,30.4,13.2c9.1,11.6,21.1,12.5,20.1,35.9c-0.8,18-0.2,36.2-0.2,54.1l0,0
			c0,19.6-0.4,39.2,0.2,58.8c0.5,7.8-2.7,15.3-8.6,20.5c-34.1,31.6-34.3,39-46.2,35.1c-17.7-5.9-34.5,16.4-23.8,33.6
			c9.7,18,46,11.2,40.6-16.1C4566.8-685,4569.1-691.9,4574.3-696.2z"/>
		<path class="st3" d="M3239.3-786.5c6.8-5.4,11.3-10.2,21.5-6.4c13.4,4.8,30.7-9.8,30-25.4c-0.7-13.8-12-22.6-27-22
			c-14.1,0.5-23.6,9.6-21.9,24.2c1.7,9.8-2.4,19.6-10.5,25.4c-3.6,3-6.5,6.7-10.1,9.7c-5.1,4.4-7.8,11.1-7.3,17.8
			c0.3,29.9,0.4,59.8,0,89.7c-0.7,7.8,2.4,15.4,8.4,20.5c10.2,8.5,18,17.4,14.1,32.7c-2.2,8.8,4.8,16,12.7,19.3
			c25,10.2,42.4-14.1,32.9-32.1c-5-10.6-17-16-28.4-13c-3.6,0.8-7.6,3-10.5,0.5c-9.6-8.3-21.6-14.7-20.4-30.6
			c1-13.3,0.2-26.8,0.2-40.2l0,0c0.5-10.3,0.5-20.6-0.2-30.9C3220.9-763.9,3226.4-776.2,3239.3-786.5z"/>
		<path class="st3" d="M3815.3-248.6c1.5,1.5,2.8,3.1,4.4,4.3c4.1,2.8,5.1,8.3,2.1,12.2c-2.7,4.2-2.2,8.9-2.5,13.4
			c-2.2,18.3,13.8,31.4,29.6,33.9c15.9,2.6,33.3-10,37.5-26.3c6-23.3-21.3-48.4-46.4-37.6c-3.1,1.2-6.7,5-10.1,1.9
			c-9.9-9.3-22.5-16.1-21.8-33.3c3.4-80.4-6.1-91.4,8.9-100.1c18.1-11.6,9.8-40.6-12.7-41.8c-14.8-1-22.8,4.4-26.5,18.3
			c-2.8,10.4,0.3,19.1,11.5,26c6,3.2,9.5,9.7,8.8,16.3c-0.3,23.2,0.1,46.3-0.1,69.6C3797.8-266.3,3797.6-266.3,3815.3-248.6z
			 M3853.3-241.5c13.1,0.1,23.8,10.6,23.8,23.5c-0.9,33.1-47.7,28.8-49.6,0.2C3827.3-229.9,3840.3-241.8,3853.3-241.5z"/>
		<path class="st3" d="M4974.1-936.4c-9.6,11.1-13.1,11.3-23.6,1.4c-7-6.5-11.3-9.2-7.1-17.8c11.5-19.9-8-53.6-40.3-44.7
			c-10.8,3-17,0.4-22.8-7c-7.3-10.4-20.1-15.6-32.7-13.2c-16,1-21.2-2.3-25.6-7.4c-6.1-7.2-18.3-5.7-23.5,1
			c-5.1,6.3-4.7,15.4,0.9,21.2c4.6,4.6,17.3,6.5,21.6,1.1c6.8-8.7,15.2-7.2,26.8-7.3c10.1-3.4,19.2,2.8,27.1,12.1
			c4.6,5,10.2,7.2,6.3,18.2c-11.3,31.5,17.9,52.7,41.5,43.6c21.7-7.8,21.7,18.7,41.8,16.3c7.1-0.4,6.4,5.5,13.3,11.8
			c11.4,8.6,20.2,8.5,30.7-1c9.7-8.8,9.3-22.2-0.2-31.4C4998.3-949.4,4984.2-948.1,4974.1-936.4z M4912.1-942.6
			c-13.5,0.1-24.5-10.6-24.6-23.9c0.5-12.8,10.9-23.2,23.9-24c13.6-0.1,24.8,10.8,24.8,24.3C4936.2-953.8,4926.3-942.7,4912.1-942.6
			z"/>
		<path class="st3" d="M3331-268.2c7-6.1,10.8-15,10.4-24.2c-0.5-44.9-0.2-89.8-0.3-134.7c0-7.3,0.3-13.6,7.1-19.2
			c12.9-9.5,2.6-30.1-13.5-28.2c-6.4,0.4-11.5,3.2-13.4,8.9c-2.2,6.9-3.5,15.6,3.8,19.8c10.4,5.9,8.1,6.6,8.1,85
			c0,21.1-0.4,42.3,0.1,63.4c0.8,8.8-2.6,17.4-9.2,23.2c-13.8,12.7-107.8,106.1-114.1,112.4c-4.2,4.2-7.7,6.4-14.7,4.6
			c-9.7-2.5-18.4,6-18.8,15.7c-0.6,9.1,5.9,17.2,15,18.7c8.4,1.2,17.9-6.9,17.8-17.1c-0.1-7.8,3.8-12.3,8.7-17.1
			C3255.6-193.9,3293.1-231.3,3331-268.2z"/>
		<path class="st3" d="M4732.9-21.3c5.5-9.3,12.5-10.5,21.9-10.5c213.5,1,175.3-6.2,188.2,15.4c16.1,29.1,64.2,20,63.7-17.5
			c0.5-4.9-0.8-10-3.7-14c-13.8-22.6-44.5-23.1-57.3-3.2c-6,9.4-13.1,11.2-23.1,11.1c-185.7-1.2-181.4,4.4-191.3-10.2
			c-6.6-9.8-23.8-8.5-31.9,0c-8,9.5-7.3,23.4,1.6,32C4709.9-10.5,4726.9-11.1,4732.9-21.3z M4973.9-56.4c13.8,1.7,23.5,10.9,24,24
			c0.9,30.4-47.8,31.4-50.2,1.1C4947.2-43.9,4961.1-58,4973.9-56.4z"/>
		<path class="st3" d="M4344.2-824.2c-6,6.7-11.6,10.2-21.7,6.8c-16-5.3-37.1,16.4-26.7,34.8c15.4,29.3,54.1,11.1,46.9-16.3
			c-1.8-6,0.3-12.5,5.3-16.4c8-7.5,15.1-15.8,23.3-22.9c7.4-6.4,9.7-13.9,9.4-23.3c-0.5-18.6-0.1-37.2-0.1-55.8
			c0-15-1.7-30.2,0.4-44.9c3-20.4-4.2-34.8-20-46.6c-6.5-4.9-12.3-10.2-10.4-20.6c1.3-6.7-6.3-13.8-13.2-15.2
			c-11.7-2.5-23.5,10.7-17.9,21.5c3.2,6.4,8.7,11.6,15.9,10.3c11.6-2,15.2,8.7,27.1,18.2c6.6,5.1,10.1,13.2,9.4,21.5
			c-1.7,103.2,2.9,107.3-1.7,120.5C4366.1-840.7,4352.8-833.8,4344.2-824.2z"/>
		<path class="st3" d="M3848.3-1393.1c8.2,4.4,8.8,9.9,8.8,17.3c0,9.4-2.5,7.5-69,74.5c-19.2,19.4-20.3,6.4-29.4,8.3
			c-11.4-0.6-18,5.4-22.3,14.3c-8.7,20.7,12.6,41,32.9,31.3c11.2-5.2,16.2-13.8,13.4-28.1c-1.5-4.9,0.2-10.2,4.2-13.4
			c0,0,70.6-70.1,70.6-70.2c3.2-3.3,8.1-6,7.2-11.3c-2.2-12.7,3.8-20.6,13.3-28.4c9.1-7.5,8-23.5-0.1-32.2
			c-8-8.7-21.2-10.5-31.3-4.1C3833.8-1426.9,3827.9-1404.2,3848.3-1393.1z"/>
		<path class="st3" d="M5100.4-684.7c-4.1-4.7-10.1-7.3-16.4-6.9c-10.9,0.5-21.9,0-32.9,0.2c-8.1,0.2-14.3-0.6-19.3-9.2
			c-6.7-11.6-22.5-12.6-32.7-4.2c-8.8,7.3-9.6,23.4-1.5,32c9.8,10.4,24.7,11.4,32.4-0.4c6.4-9.9,13.8-10.8,23.5-10.4
			c26,1.1,32.9-2.9,41.7,6.5c70.4,70,81,75.9,89.1,92.6c7.6,15.7,39.5,12.5,39.3-14.7c0.5-7.8-4.1-14-12.1-18.5
			c-8.5-4.6-15.9-2.3-23.5,2.2c-3.4,2-4.7,8.2-9.6,6.4c-3.6-2-6.9-4.6-9.5-7.8C5146-639.3,5123-661.8,5100.4-684.7z"/>
		<path class="st3" d="M3565.6,281c-8-5.3-8-12.4-8-20.3c0.3-362.9-2.9-341.2,6.4-349.7c3.4-2.9,3.7-7.9,0.7-11.2
			c-4.5-6.4-13.1-6.9-17.3-4.1c-4.8,3.2-6.1,9.6-2.9,14.3c7.8,9.9,4.9-12.7,5.3,347.1c0,9.3,0.5,17.6-9.4,23.9
			c-7.2,4.6-7,12-3.8,19.3c6.4,14.8,26.6,15.4,32.8,0.5C3571.7,294,3572.5,285.7,3565.6,281z"/>
		<path class="st3" d="M4989.3-885c-6.8,9.9-14.8,11.3-25,10.8c-24.3-1.6-29.1,4.1-41.1-8.1c-68.1-68.9-76.8-72.3-81.9-88
			c-4.3-13.1-20.8-16.2-32-9c-23.8,15.2-2,53.6,24.4,37.1c3.1-1.9,5.8-4.2,8.5-6.2c6.8,2,4.8,3,60.1,56.7
			c8.5,8.3,15.3,20.1,26.2,23.8c22,7.4,47.3-8.1,60.7,12c7.4,11.1,22,10.8,31.6,2.1c9.7-8.8,9.8-24,0.1-32.9
			C5011.5-895.6,4996.8-896,4989.3-885z"/>
		<path class="st3" d="M3426.3-1320.4c15.7,0.1,27.7-12.3,24.2-25.7c-6.5-25,27.3-27.3,25.7-51.6c-0.7-9.2-0.2-18.6-0.1-27.9
			c0.3-15.7,2.5-17.6,18.2-15.4c17.4,2.4,32.9-15.8,27.1-31.7c-4.8-13.1-15.3-18.8-29.7-15.9c-12.6,2.5-18.6,10.7-17.4,25
			c0.6,7.9,4.1,15.9-4.6,22c-2.6,1.8-1.7,14.5-1.7,28c4.3,15.2-3.6,28.8-17.9,40.8c-5.8,4.8-10.4,6.6-17.8,4.7
			c-13.8-3.7-27.7,5.3-29.8,19.3c-0.2,1.3-0.4,2.7-0.4,4.1C3402-1331.4,3412.8-1320.5,3426.3-1320.4z"/>
		<path class="st3" d="M4829.5-1056.3c3.2-6,9.8-9.4,16.6-8.5c27.9,1.4,36.8-5.8,53.6,12c54.5,57.7,66.2,57.4,62.2,74.8
			c-5.9,25.3,45.5,32.8,44.8-0.1c0.1-12-10.1-21.5-22.2-20.8c-11.4-0.9-11.3,6.2-20.2-1.9c-4.8-4.3-48.5-47-65.5-64.3
			c-4.8-5.4-11.9-8.4-19.2-7.9c-10.4,0.5-20.9,0-31.3,0.2c-8.1,0.2-14.5-0.4-19.4-9.1c-10.8-19.1-41.1-7.9-40.1,14.1
			C4790.3-1046.3,4818.5-1038,4829.5-1056.3z"/>
		<path class="st3" d="M2597.3-501.4c2.3-10.6,1.9-21.3-8.8-27.4c-13.6-7.7-8.4-12.3-9.6-80.8c-0.2-9.2,0.9-16,10.5-21.5
			c11.4-6.5,12-26,3.1-35.7c-10.1-10-26.4-9.7-36.2,0.5c-11,11.8-9.4,27.8,5.5,36.8c6.6,3.2,10.4,10.1,9.5,17.2
			c-2.4,64.8,6.6,75.4-11.8,83.9c-19,8.8-10.3,46,17,43.3C2585.4-485.9,2595.5-493.2,2597.3-501.4z"/>
		<path class="st3" d="M3746.4-1324.5c7.5,6,17.9,6.9,26.3,2.1c9.5-5.3,16.3-16.4,13-25.7c-2.9-8.1-0.3-12.6,5.1-17.5
			c16.8-14.8,29.5-27.2,25.4-49.5c-1.6-6.3,1.8-12.8,8-15.3c1.9-1,3.6-2.2,5-3.8c19.2-18.6-3.7-50.4-28.1-38.9
			c-19.6,8.9-17.7,35.2-2.6,42.5c7.5,3.7,9.7,8.3,8.8,15.7c-0.9,7.3,5.2,19.3-11.3,31.5c-7.6,5.7-14.8,23-33,15.7
			c-4.6-1-21.2,1.6-24.4,15.1C3735.8-1341.5,3736.3-1332.1,3746.4-1324.5z"/>
		<path class="st3" d="M4868.7-444c12.2-5.1,16.2-21.9,12-35.2c-3.1-9.8-16.6-19.5-27.6-19.8c-10.4-0.3-24,8.7-28,19.2
			c-4.7,12.4-2.8,30.1,14.4,37.8c6.1,2,9.8,8,8.8,14.2c-0.3,6.3,0,28.4-0.1,29.4c-3,18.9,2.5,34.2,18.7,45.5
			c3.9,3.4,7.6,7,11.2,10.9c15.1,12.2,0.7,26.6,18.2,30.9c8.5,2.6,17.3-2.6,19.3-11.1c1.6-7.9-4.7-17.5-13.9-16.9
			c-14.3,0.9-17.7-11.3-36.2-26.4c-7-5.5-10.6-14.3-9.4-23.1c0.6-10.3,0.6-20.6,0.1-30.9C4855.6-430.3,4855.9-438.7,4868.7-444z"/>
		<path class="st3" d="M3017.6-474.5c-14.3,0.8-24.8,13.4-22.9,27.4c1.6,14.8,16.6,24.5,31,20c14.3-4.1,13.8,2.6,39.9,26.5
			c5.2,4.3,8,11,7.6,17.7c-0.5,10.3,0.3,20.6-0.2,30.9c-0.4,5.6,2,11.2,6.3,14.9c16.1,15.5,31.7,31.4,47.7,46.9c6,5.8,11,11,9.4,21
			c-1.6,9.7,6.5,16.5,16,16.7c10.4,0.2,16.5-5.5,16.9-15.9c0.4-10.7-4.3-16.6-15.6-16.6c-7.3,0-14.3-3.3-18.9-8.8
			c-9.1-9.3-18.4-18.3-27.5-27.5c-8.4-8.5-18.9-15.8-24.3-25.9c-5.6-10.2-1.3-23.3-1.9-35.1c-0.3-3.1,2.7-14.5-8.7-23.3
			c-7.1-6-13.4-12.9-20.1-19.5c-6.6-6.5-15.5-12.1-9.3-21.6C3045.6-461.9,3033.1-475.6,3017.6-474.5z"/>
		<path class="st3" d="M4548.5-1268.2c7,3.8,8.2,8.1,8.2,14.7c-0.2,28.4,0.5,56.8-0.3,85.2c-0.4,12.8,2.8,22.4,12.7,31.2
			c15.5,13.7,29.8,28.9,44.4,43.6c4.3,4.3,10.3,8.3,5.9,14.9c0,2.1,0,3.1,0,4.1c-1.5,16,19.5,25.3,31.3,14.1
			c11.4-10.2,7.3-33.5-13.9-31.7c-5.7,1-11.5-0.8-15.5-4.9c-16.8-17-33.9-33.7-50.9-50.4c-7.7-6.6-5.5-4.3-5.7-109.8
			c-1.1-11.5,10.7-8.8,16-23.1c4.7-12.7-3.7-26.6-17.3-28.5c-12.1-1.2-20.7,3.3-24.4,12.3
			C4534.7-1285.5,4537.6-1273.9,4548.5-1268.2z"/>
		<path class="st3" d="M4496.2-744.1c-13-0.1-22,7.9-22.9,20.4c-0.8,11.2,10.2,23.5,21.7,24.4c12.1,0.1,21.9-9.4,22.2-21.3
			c-1-9.4,3.1-18.5,10.8-24.1c12.5-9.6,7.2-13.8,8.6-94.7c0.2-13.3-1.3-26.6,2.3-39.9c2.8-10.4-8.9-22.3-20.1-23
			c-14.4-0.9-24.1,6.7-24.8,19.5c-0.9,15.4,8.7,24.5,25.2,23.9c11.5-0.4,9.2-4.9,9.2,50.9l0,0c0,12.4-0.9,24.9,0.3,37.1
			c1.1,11.5-5.5,17.7-12.1,25.2C4510.6-739.2,4506.6-744.1,4496.2-744.1z"/>
		<path class="st3" d="M4706-1191.7c9.9,6.1,10.7,13.4,10.7,23.2c-1.4,211.9,4.1,204.3-7.4,210.6c-4,2.6-6,7.3-5.2,12
			c-1.1,13.7,16.6,20.4,27.3,11.3c5.8-5.6,7.3-15.1,0.9-20.6c-11.4-10-7.2-0.8-7.9-215.7c0-8.7,1.2-14.9,9.7-20.6
			c12.7-8.5,11.1-27.6-1.3-35.4c-9.9-6.9-23.6-4.5-30.6,5.3C4694.6-1212.5,4695.2-1198.4,4706-1191.7z"/>
		<path class="st3" d="M4968.1-810.1c-6.8,0.7-13.4-3-16.3-9.2c-9.7-17.9-38.5-12-40.7,8.5c-3.5,23.6,27.6,34,38.7,17.4
			c5.4-8,12-8.4,20-8.3c30.3,0.2,60.6-0.5,90.9,0.4c10.6,0.3,20.2-4.1,30.6-3.3c2.1,0,4.2,0.1,6.3,0c12.6-0.4,22.4-10.8,22-23.2
			c-0.7-10.7-12.4-21.6-23.1-21.5c-13.2,0.7-26.6,12.7-20.3,32.4c1.5,6.1-4.5,6.9-11,6.7C5032.8-810.2,5000.4-810.3,4968.1-810.1z"
			/>
		<path class="st3" d="M4753.8-1149.4c4.5,1.6,7.3,6.1,6.6,10.8c0,3.2-0.1,66.7,0.1,71.1c0.5,10.7-0.8,19.1-11.2,26.2
			c-10.9,7.4-10.2,21.8-1,31.2c8.6,9.3,23.3,9.4,32.1,0.3c9.3-8.6,9.2-23.2-0.3-31.5c-5.2-4.9-12.5-6.2-11.7-14.8
			c0.1-27.9,0.1-55.7,0-83.5c-0.3-4.1,1.9-8.2,5.7-10.1c12.8-8.1,14.9-22.2,8.1-31.9c-9.7-14.4-40.2-14.7-40.7,12.7
			C4740.8-1160.6,4745.8-1152.6,4753.8-1149.4z"/>
		<path class="st3" d="M4644.5-1227.3c-0.4,16,0.4,32-0.3,47.9c-0.4,9.6,1.8,17,9.7,22.9c5.6,4.2,10.2,9.3,6.1,16.2
			c0.1,1.9,0.1,3.7-0.1,5.5c-1.5,11.6,8.3,20.6,21.3,22.2c10.8,1.4,21.8-9.7,22.3-21.2c0.6-14.5-8.3-25.5-25.8-22.7
			c-6.1,1.4-12.5-0.7-16.4-5.5c-4.5-4.9-9.4-8.9-9.1-17c2-52.4-4-60.4,6.3-65.5c8-4.1,10-11.3,9.9-19.5c-0.2-13-8.3-20.8-21.7-20.8
			c-13.1,0-21.6,8.2-21.8,20.9C4624.3-1236.7,4645.1-1251.9,4644.5-1227.3z"/>
		<path class="st3" d="M4728.5-841.3c-8.8-3.5-15.3-0.4-21.7,4c-17.2,12.6-6.9,42,17.8,38.8c9-1.2,18.6-9.4,18.2-18.2
			c-0.4-10.2,0-19.1,8.6-26.2c1.8-1.5,1.2-7.1,1.2-24.4l0,0c0-6.2,0.2-12.3-0.1-18.6c-0.2-4.6,1.9-9.2,5.5-12.2
			c3.8-3.5,7.3-1.9,11.5-1c12.3,2.5,24.3-5.5,26.6-17.8c1.7-11.1-4.8-21.7-15.5-25.6c-11.8-3.3-24.1,4-29,15.1
			c-3.6,8.1,6.5,16.5-0.8,23.4c-10.1,9.7-4.7,21.7-6.4,50.7C4744-842.1,4738.3-837.4,4728.5-841.3z"/>
		<path class="st3" d="M4636.1,387.3c13.3-4.2,18.8-13.6,16-27.5c-2.1-10.5-10.6-16.7-23.4-15.2c-8.7,1-16,1.5-21.6-6.7
			c-7.1-10.4-17.2-14-29.7-12.3c-8.4,1.2-14.1-1.4-19-9.4c-7-11.3-22.7-12.3-32.8-3.9c-9.4,7.9-9.6,24.5-0.4,33
			c10.4,9.6,24,9.5,32.3-2.6c5.3-7.6,10.5-10.6,18-9.2c15.3,0,24.8,5,32.3,16.3c2.1,3,2.6,6.8,1.3,10.3
			C4605,375.2,4618.9,391.7,4636.1,387.3z"/>
		<path class="st3" d="M3460.1-882.3c8.5-0.2,16.1-8.5,16.1-17.7c0.6-10.5-8.8-18.7-19.2-16.9c-4.5,1-9.2-0.7-12.2-4.1
			c-10-9.8-20.2-19.5-29.8-29.6c-4.8-5.5-11.8-8.6-19.2-8.4c-103.8,0.7-103.3-2.1-107.6,1.8c-5.6,5-12,5.1-18.9,5.4
			c-17.4-0.7-19.8,25.7-6.3,31.4c11.2,4.3,25-2.4,25.1-16.5c1.6-19.3-4-12.2,104.5-13.8c14.9-0.7,16.9,7.9,40.1,29
			c6.8,6.1,11.4,12.5,10.7,22.5C3443.4-889.9,3450.8-882.4,3460.1-882.3z"/>
		<path class="st3" d="M4989.5-755.7c4.6-7.8,10.3-8.7,18-8.6c76.2,1,78.5-2.6,86.5,4.9c2.7,2.6,7,1.7,10.6,1.6
			c10.2-0.4,14.9-5.5,15-15.7c0-20.6-26.3-22.4-32.1-6.8c-1.6,5-6.6,8.3-12,7.7c-78.8,0-79.5,2-84-5.7c-14.3-23.8-42.9-8.9-42.9,8.8
			C4948.1-747.4,4978.6-736.9,4989.5-755.7z"/>
		<path class="st3" d="M5061.2-747c-8.4,0.3-16-0.2-23.3-6c-16.5-13.1-36.3,13.1-20.7,26.7c6.2,5.2,19.3,5.2,24-2
			c6.7-10.2,13.6-8.3,40.2-8.3v0.1c39.1,0,39-2.3,36.8,14.2c-4.4,34.1,40.3,34.5,45,7.4c1.2-8-5.5-20.6-13.8-22
			c-12.4-2.4-25.7-0.7-36.7-8.7C5095.5-743.8,5078.4-747.6,5061.2-747z"/>
		<path class="st3" d="M3374.5-255.5c20.4,1.5,20.4-33.1-1.6-32.7c-8.4-0.1-17.5,6.5-17,14.8c0.6,10.9-4.9,16.9-11.8,23.6
			c-24.2,23.5-47.5,48-72,71.1c-15.7,14.9-28.7,32.7-48,44.1c-12.4,7.2-7.4,29.1,9.9,30.7c13.3,0.5,21.9-13.9,14.9-25.3
			c-5.2-8.4-2.9-12.2,2.9-17.9C3361.7-254.3,3357.4-256.7,3374.5-255.5z"/>
		<path class="st3" d="M3067-463.9c-8.1,2.8-14.1,12.1-12.4,19.2c2.5,8.6,10.5,14.5,19.6,14.4c2.5-0.1,5.2-2.5,7.4-0.5
			c7.4,6.9,17.1,12.2,16,24.8c-0.7,8.2,0.4,16.5-0.2,24.7c-1.3,9.9,2.8,19.7,10.8,25.8c6,4.9,11,11,16.8,16.2
			c7,6.4,12,12.7,11.5,23.7c-0.5,11.6,11.7,18.3,22,14.1c19.3-7.9,11.5-34.4-6-32.8c-9.9,1.5-14-4.1-22.9-13.1
			c-7.5-7.8-17.2-14.5-22-23.7c-4.9-9.4-1.8-21.3-1.4-32c0.5-11.6-1.6-21.2-11.5-28.6c-3.9-3-8.8-6.5-4.9-12.7
			C3090.5-458,3078.8-468.1,3067-463.9z"/>
		<path class="st3" d="M4368.8-1220.3c11.4,1.1,25.5-6.9,28.3-17.7c3.1-11.9,3.4-22.9-10.9-30.7c-9.5-5.2-10.1-11.6-10-20
			c1-88.8-5-73.9,17.9-77.5c8.1-1.1,13.9-8.2,13.4-16.2c0.8-8.4-9.5-18.4-20.4-14.7c-7.2,2.2-12.1,8.8-11.9,16.3
			c-0.2,3.6,1,7.2-2.2,9.9c-5.6,4.6-5,11-5,17.1c0,21.6-0.3,43.3,0.1,64.9c0.2,9-1.4,15.1-11,19.4
			C4333.3-1257.6,4342-1223.6,4368.8-1220.3z M4372-1266.6c10.6,0.3,20.3,9.8,19.6,20c-1.9,27.5-40.6,23.4-40.4-0.1
			C4350.8-1258.1,4360.5-1267.4,4372-1266.6z"/>
		<path class="st3" d="M3301-876.7c0-13.7-11.1-26.3-24-25.1c-13.6,0.8-24.4,11.6-25.1,24.9c-0.3,12.2,12.8,25,25,25.1
			c0.3,0,0.7,0,1,0C3291.2-852.4,3301.6-863.6,3301-876.7z"/>
	</g>
</g>
</svg>
