<?xml version="1.0" encoding="utf-8"?>
<!-- Generator: Adobe Illustrator 19.0.0, SVG Export Plug-In . SVG Version: 6.00 Build 0)  -->
<svg version="1.1" id="Capa_1" xmlns="http://www.w3.org/2000/svg" xmlns:xlink="http://www.w3.org/1999/xlink" x="0px" y="0px"
	 viewBox="94 -4 800 800" style="enable-background:new 94 -4 800 800;" xml:space="preserve">
<style type="text/css">
	.st0{fill:#FFFFFF;}
</style>
<g>
	<path class="st0" d="M201.7,236.6c-14.1,0-25.6,11.5-25.6,25.6s11.5,25.6,25.6,25.6c14.1,0,25.6-11.5,25.6-25.6
		S215.8,236.6,201.7,236.6z"/>
	<path class="st0" d="M201.7,165.2c-14.1,0-25.6,11.5-25.6,25.6c0,14.1,11.5,25.6,25.6,25.6c14.1,0,25.6-11.5,25.6-25.6
		C227.3,176.7,215.8,165.2,201.7,165.2z"/>
	<path class="st0" d="M729.3,318.7L729.3,318.7c-10.6,0-19.2,8.6-19.2,19.2c0,10.6,8.6,19.2,19.2,19.2c10.6,0,19.2-8.6,19.2-19.2
		C748.6,327.3,740,318.7,729.3,318.7z"/>
	<path class="st0" d="M500.4,38.3V15.2c0-10.6-8.6-19.2-19.2-19.2h-84.6c-10.6,0-19.2,8.6-19.2,19.2v122.2h-74.5V99.8
		c0-10.6-8.6-19.2-19.2-19.2H123.5c-10.6,0-19.2,8.6-19.2,19.2v592.3c0,10.6,8.6,19.2,19.2,19.2h34.7c-7.3,8.9-11.6,20.3-11.6,32.7
		c0,28.6,23.3,51.9,51.9,51.9c28.6,0,51.9-23.3,51.9-51.9c0-12.4-4.4-23.8-11.6-32.7h511.7c-7.3,8.9-11.6,20.3-11.6,32.7
		c0,28.6,23.3,51.9,51.9,51.9c28.6,0,51.9-23.3,51.9-51.9c0-12.4-4.4-23.8-11.6-32.7h33.4c10.6,0,19.2-8.6,19.2-19.2V259.5
		c0-10.6-8.6-19.2-19.2-19.2h-2.6v-98.1c0-10.6-8.6-19.2-19.2-19.2h-84.6c-10.6,0-19.2,8.6-19.2,19.2v23.1h-1.9
		c-24.4,0-44.2-19.8-44.2-44.2c0-45.6-37.1-82.7-82.7-82.7H500.4z M198.5,757.5c-7.4,0-13.5-6-13.5-13.5c0-7.4,6-13.5,13.5-13.5
		s13.5,6,13.5,13.5C212,751.5,205.9,757.5,198.5,757.5z M790.8,757.5c-7.4,0-13.5-6-13.5-13.5c0-7.4,6-13.5,13.5-13.5
		c7.4,0,13.5,6,13.5,13.5C804.3,751.5,798.2,757.5,790.8,757.5z M302.8,239.6h19.4v29.5c0,7.1,5.7,12.8,12.8,12.8h211.5
		c7.1,0,12.8-5.7,12.8-12.8v-29.5h15.4v154.8h-272V239.6z M431.2,203.7h16.7v52.6h-16.7V203.7z M613.3,394.4V278.8h232v115.7H613.3z
		 M777.3,161.4h46.2v78.9h-46.2V161.4z M500.4,76.8H610c24.4,0,44.2,19.8,44.2,44.2c0,45.6,37.1,82.7,82.7,82.7h1.9v36.6H613.3
		v-83.6c0-10.6-8.6-19.2-19.2-19.2h-93.7L500.4,76.8L500.4,76.8z M500.4,184.5v-8.5h74.5v38h-28.3c-7.1,0-12.8,5.7-12.8,12.8v29.5
		h-60.2v-52.6h7.6C491.7,203.7,500.4,195.1,500.4,184.5z M415.7,34.5h46.2v130.8h-46.2L415.7,34.5L415.7,34.5z M377.3,175.9v8.5
		c0,10.6,8.6,19.2,19.2,19.2h9v52.6h-57.7v-29.5c0-7.1-5.7-12.8-12.8-12.8h-32.2v-38H377.3z M264.3,672.9H142.7V119.1h121.6V672.9
		L264.3,672.9z M302.8,435.6h272v237.4h-272V435.6z M613.3,672.9V435.6h232v237.4H613.3z"/>
	<path class="st0" d="M546.6,340.9H335c-7.1,0-12.8,5.7-12.8,12.8s5.7,12.8,12.8,12.8h211.5c7.1,0,12.8-5.7,12.8-12.8
		S553.6,340.9,546.6,340.9z"/>
	<path class="st0" d="M504.3,594.7H377.3c-7.1,0-12.8,5.7-12.8,12.8c0,7.1,5.7,12.8,12.8,12.8h126.9c7.1,0,12.8-5.7,12.8-12.8
		C517.1,600.5,511.3,594.7,504.3,594.7z"/>
	<path class="st0" d="M504.3,552.4H377.3c-7.1,0-12.8,5.7-12.8,12.8s5.7,12.8,12.8,12.8h126.9c7.1,0,12.8-5.7,12.8-12.8
		S511.3,552.4,504.3,552.4z"/>
	<path class="st0" d="M438.9,499.8c10.6,0,19.2-8.6,19.2-19.2c0-10.6-8.6-19.2-19.2-19.2h0c-10.6,0-19.2,8.6-19.2,19.2
		C419.6,491.2,428.2,499.8,438.9,499.8z"/>
</g>
</svg>
