<?xml version="1.0" encoding="utf-8"?>
<!-- Generator: Adobe Illustrator 19.0.0, SVG Export Plug-In . SVG Version: 6.00 Build 0)  -->
<svg version="1.1"
	 id="svg2" xmlns:dc="http://purl.org/dc/elements/1.1/" xmlns:sodipodi="http://sodipodi.sourceforge.net/DTD/sodipodi-0.dtd" xmlns:cc="http://creativecommons.org/ns#" xmlns:inkscape="http://www.inkscape.org/namespaces/inkscape" xmlns:svg="http://www.w3.org/2000/svg" xmlns:rdf="http://www.w3.org/1999/02/22-rdf-syntax-ns#" sodipodi:docname="esp01-cleaned.svg" inkscape:version="0.91 r13725" xmlns:osb="http://www.openswatchbook.org/uri/2009/osb"
	 xmlns="http://www.w3.org/2000/svg" xmlns:xlink="http://www.w3.org/1999/xlink" x="0px" y="0px"
	 viewBox="1428 -619.7 3468.6 2030.7" style="enable-background:new 1428 -619.7 3468.6 2030.7;" xml:space="preserve">
<style type="text/css">
	.st0{fill:#2455A8;}
	.st1{fill:#2C5CCB;}
	.st2{fill:url(#rect7135_1_);stroke:#2C5CCB;stroke-width:10;stroke-linecap:round;stroke-linejoin:round;}
	.st3{fill:none;stroke:#2C5CCB;stroke-width:25;}
	.st4{fill:url(#circle7157_1_);stroke:#2C5CCB;stroke-width:10;stroke-linecap:round;stroke-linejoin:round;}
	.st5{fill:url(#circle7161_1_);stroke:#2C5CCB;stroke-width:10;stroke-linecap:round;stroke-linejoin:round;}
	.st6{fill:none;stroke:#2C5CCB;stroke-width:100;}
	.st7{fill:none;stroke:#B5A739;stroke-width:150;stroke-linecap:round;stroke-linejoin:round;}
	.st8{fill:#113F94;}
	.st9{fill:#D4D4D4;}
	.st10{font-family:'MyriadPro-Regular';}
	.st11{font-size:57.6101px;}
	.st12{fill:url(#circle7165_1_);stroke:#2C5CCB;stroke-width:10;stroke-linecap:round;stroke-linejoin:round;}
	.st13{fill:url(#circle7149_1_);stroke:#2C5CCB;stroke-width:10;stroke-linecap:round;stroke-linejoin:round;}
	.st14{fill:none;stroke:#000000;}
	.st15{fill:#9A9A9A;}
	.st16{fill:#A56600;}
	.st17{fill:none;stroke:#2C5CCB;stroke-width:50;}
	.st18{fill:url(#circle7153_1_);stroke:#2C5CCB;stroke-width:10;stroke-linecap:round;stroke-linejoin:round;}
	.st19{fill:#2C5CCB;fill-opacity:0;}
	.st20{fill:#18316D;stroke:#4274D6;stroke-width:35;stroke-linecap:round;stroke-linejoin:round;}
	.st21{fill:url(#rect4297_1_);stroke:#2C5CCB;stroke-width:10;stroke-linecap:round;stroke-linejoin:round;}
	.st22{fill:url(#rect4317_1_);stroke:#2C5CCB;stroke-width:10;stroke-linecap:round;stroke-linejoin:round;}
	.st23{fill:url(#rect4321_1_);stroke:#2C5CCB;stroke-width:10;stroke-linecap:round;stroke-linejoin:round;}
	.st24{fill:url(#rect4325_1_);stroke:#2C5CCB;stroke-width:10;stroke-linecap:round;stroke-linejoin:round;}
	.st25{fill:url(#rect4329_1_);stroke:#2C5CCB;stroke-width:10;stroke-linecap:round;stroke-linejoin:round;}
	.st26{fill:url(#rect4333_1_);stroke:#2C5CCB;stroke-width:10;stroke-linecap:round;stroke-linejoin:round;}
	.st27{fill:url(#rect4337_1_);stroke:#2C5CCB;stroke-width:10;stroke-linecap:round;stroke-linejoin:round;}
	.st28{fill:url(#rect4341_1_);stroke:#2C5CCB;stroke-width:10;stroke-linecap:round;stroke-linejoin:round;}
	.st29{fill:#5E5862;stroke:#2E2E2E;stroke-width:10;stroke-linecap:round;stroke-linejoin:round;}
	.st30{fill:none;stroke:#D4D4D4;stroke-width:10;stroke-linecap:round;stroke-linejoin:round;}
	.st31{fill:url(#rect4353_1_);}
	.st32{fill:url(#rect4357_1_);}
	.st33{fill:url(#rect4361_1_);}
	.st34{fill:url(#rect4365_1_);}
	.st35{fill:url(#rect4369_1_);}
	.st36{fill:url(#rect4373_1_);}
	.st37{fill:url(#rect4377_1_);}
	.st38{fill:url(#rect4381_1_);}
	.st39{fill:url(#rect7173_1_);}
	.st40{fill:url(#rect7177_1_);}
	.st41{fill:url(#rect4412_1_);}
	.st42{fill:url(#rect4414_1_);}
	.st43{fill:url(#rect4416_1_);}
	.st44{fill:url(#rect4418_1_);}
	.st45{fill:url(#rect4420_1_);}
	.st46{fill:url(#rect4422_1_);}
	.st47{fill:url(#rect4424_1_);}
	.st48{fill:url(#rect4426_1_);}
	.st49{fill:url(#rect4446_1_);}
	.st50{fill:url(#rect4448_1_);}
	.st51{fill:url(#rect4450_1_);}
	.st52{fill:url(#rect4452_1_);}
	.st53{fill:url(#rect4454_1_);}
	.st54{fill:url(#rect4456_1_);}
	.st55{fill:url(#rect4458_1_);}
	.st56{fill:url(#rect4460_1_);}
	.st57{fill:url(#rect4480_1_);}
	.st58{fill:url(#rect4482_1_);}
	.st59{fill:url(#rect4484_1_);}
	.st60{fill:url(#rect4486_1_);}
	.st61{fill:url(#rect4488_1_);}
	.st62{fill:url(#rect4490_1_);}
	.st63{fill:url(#rect4492_1_);}
	.st64{fill:url(#rect4494_1_);}
	.st65{fill:#5E5862;stroke:#434343;stroke-width:5;stroke-linecap:round;stroke-linejoin:round;}
	.st66{font-family:'CourierNewPSMT';}
	.st67{font-size:90px;}
	.st68{fill:url(#rect7099_1_);stroke:#2C5CCB;stroke-width:10;stroke-linecap:round;stroke-linejoin:round;}
	.st69{fill:url(#path7139_1_);stroke:#2C5CCB;stroke-width:10;stroke-linecap:round;stroke-linejoin:round;}
	.st70{fill:#F2F2F2;}
	.st71{fill:#FFD187;}
	.st72{fill:#FE9D00;}
	.st73{fill:#2B2B2B;}
	.st74{fill:#E4E4E4;stroke:#B5A739;stroke-width:5;stroke-linecap:round;stroke-linejoin:round;}
	.st75{fill:#5E5862;}
</style>
<title  id="title7817">ESP01 Wireless Module</title>
<defs>
	
	<inkscape:path-effect  id="path-effect4219" is_visible="true" effect="spiro"></inkscape:path-effect>
</defs>
<sodipodi:namedview  borderopacity="1.0" showgrid="false" inkscape:cx="1863.5343" bordercolor="#666666" inkscape:cy="179.73734" id="base" pagecolor="#ffffff" inkscape:zoom="0.13376157" inkscape:window-width="1600" inkscape:pageshadow="2" inkscape:window-height="1097" inkscape:pageopacity="0.0" inkscape:window-x="3360" inkscape:window-y="62" inkscape:window-maximized="1" inkscape:current-layer="layer1" fit-margin-top="0" fit-margin-left="0" inkscape:document-units="px" fit-margin-right="0" fit-margin-bottom="0">
	</sodipodi:namedview>
<g id="layer1" transform="translate(-1836.5089,2392.1649)" inkscape:label="Ebene 1" inkscape:groupmode="layer">
	<rect id="rect7169" x="3264.5" y="-3011.9" class="st0" width="3468.6" height="2030.7"/>
	<path id="path4344" inkscape:connector-curvature="0" class="st1" d="M5102.7-1103.1h-265.1v45.7l57.7,57.7h300l75.7-131.1v-70.6
		l-39.7-22.9v-50.2h-53.1v51.4H5161v-46.9h-56L5102.7-1103.1z"/>
	<path id="path4334" inkscape:connector-curvature="0" class="st1" d="M5475.3-1112.3c4.6-1.1,60.6,0,60.6,0v-34.3l61.7-61.7v-33.1
		l-18.6-32.3l17.2-17.2l-19.1-33l11.4-6.6l14.9,25.7h54l8.4,8.4l8.8-8.7h261.7l124.5-124.5h206.8l-139.8,139.8h188.3l20.6-20.6
		v-70.7l17.6-17.6h20.8l101.7,101.7h127.8l69.1-69.1h20.6v361.6H5533.1v-37.6h-55.2L5475.3-1112.3z"/>
	
		<radialGradient id="rect7135_1_" cx="8381.4961" cy="967.887" r="148.017" gradientTransform="matrix(0.8 0 0 -0.7857 -530.7053 -682.0404)" gradientUnits="userSpaceOnUse">
		<stop  offset="0" style="stop-color:#E5E8ED"/>
		<stop  offset="1" style="stop-color:#CBCBCB"/>
	</radialGradient>
	<path id="rect7135" class="st2" d="M6076.9-1565.2h203.7c9.1,0,16.6,7.4,16.6,16.6v199.5c0,9.1-7.4,16.6-16.6,16.6h-203.7
		c-9.1,0-16.6-7.4-16.6-16.6v-199.5C6060.3-1557.7,6067.7-1565.2,6076.9-1565.2z"/>
	<path id="path4282" inkscape:connector-curvature="0" class="st3" d="M5414.9-1269.7c0,3.2,0,35.6,0,35.6l33.5,33.5h68.3l29.7-29.7
		v-94.3l45.2-26.1h135.2l9.6-9.6h171.4l98.1-98.1v-105.4l47.1-47.1h312.2l121.1-121.1"/>
	
		<radialGradient id="circle7157_1_" cx="8384.1387" cy="512.5549" r="153.017" gradientTransform="matrix(0.8 0 0 -0.8 -171.2354 -1391.9489)" gradientUnits="userSpaceOnUse">
		<stop  offset="0" style="stop-color:#E5E8ED"/>
		<stop  offset="1" style="stop-color:#CBCBCB"/>
	</radialGradient>
	<circle id="circle7157" class="st4" cx="6536.1" cy="-1802" r="118.4"/>
	
		<radialGradient id="circle7161_1_" cx="8384.1387" cy="512.5549" r="153.017" gradientTransform="matrix(0.8 0 0 -0.8 -171.2354 -1034.5935)" gradientUnits="userSpaceOnUse">
		<stop  offset="0" style="stop-color:#E5E8ED"/>
		<stop  offset="1" style="stop-color:#CBCBCB"/>
	</radialGradient>
	<circle id="circle7161" class="st5" cx="6536.1" cy="-1444.6" r="118.4"/>
	<path id="path4336" inkscape:connector-curvature="0" class="st6" d="M4561.5-1255.1v129.3"/>
	<path id="path4147" inkscape:connector-curvature="0" class="st7" d="M4534.8-1243.8H3372.8v-158.4h533.4v-171.3H3376v-163.2h533.4
		v-171.3h-520.4v-160h531.7v-171.3h-528.5v-547.9"/>
	<path id="path4149" inkscape:connector-curvature="0" class="st7" d="M4213.2-1248.6v-997.2"/>
	<circle id="path4151" class="st8" cx="4215.9" cy="-2238.6" r="9.1"/>
	<text transform="matrix(0 1 -1 0 4528.8667 -2246.0667)" class="st9 st10 st11">T260</text>
	<path id="path4276" inkscape:connector-curvature="0" class="st3" d="M4337.7-2611.1l21-21h63l38.8-38.8v-202l71.1-71.1h964.9
		l67.9,67.9"/>
	<path id="path4278" inkscape:connector-curvature="0" class="st3" d="M4345.6-2879.1h122.3"/>
	<path id="path4280" inkscape:connector-curvature="0" class="st3" d="M4341.7-2470.5l57.4-57.4h169.7"/>
	<path id="path4284" inkscape:connector-curvature="0" class="st3" d="M5661.4-1778.8h456.6"/>
	
		<radialGradient id="circle7165_1_" cx="8384.1387" cy="512.5549" r="153.0171" gradientTransform="matrix(0.8 0 0 -0.8 -528.5908 -1391.9489)" gradientUnits="userSpaceOnUse">
		<stop  offset="0" style="stop-color:#E5E8ED"/>
		<stop  offset="1" style="stop-color:#CBCBCB"/>
	</radialGradient>
	<circle id="circle7165" class="st12" cx="6178.7" cy="-1802" r="118.4"/>
	<path id="path4286" inkscape:connector-curvature="0" class="st3" d="M5660.5-1848.3h193.1l100.2-100.2v-67.1l137.4-137.4"/>
	<path id="path4288" inkscape:connector-curvature="0" class="st3" d="M6497-2089.9l-96.6,96.6h-301"/>
	
		<radialGradient id="circle7149_1_" cx="8384.1387" cy="512.5549" r="153.017" gradientTransform="matrix(0.8 0 0 -0.8 -171.2354 -1759.877)" gradientUnits="userSpaceOnUse">
		<stop  offset="0" style="stop-color:#E5E8ED"/>
		<stop  offset="1" style="stop-color:#CBCBCB"/>
	</radialGradient>
	<circle id="circle7149" class="st13" cx="6536.1" cy="-2169.9" r="118.4"/>
	<path id="path4290" inkscape:connector-curvature="0" class="st14" d="M4167.3-2851.1v77.1"/>
	<path id="path4292" inkscape:connector-curvature="0" class="st3" d="M4638.7-1655.1l138.9,138.9h70.3"/>
	<path id="path4294" inkscape:connector-curvature="0" class="st3" d="M4826.2-1720.3h-91.4l-68-68h-93.1"/>
	<path id="path4296" inkscape:connector-curvature="0" class="st3" d="M4801-1792.3h-73.1l-40.6-40.6v-32.6"/>
	<path id="path4298" inkscape:connector-curvature="0" class="st3" d="M4811.3-1863.1h-15.8l-29.9-29.9v-105.5l-51.5-51.5"/>
	<path id="path4300" inkscape:connector-curvature="0" class="st3" d="M4858.1-1958.6v-145.9"/>
	<path id="path4302" inkscape:connector-curvature="0" class="st3" d="M5060.1-2081v-114.8"/>
	<path id="path4304" inkscape:connector-curvature="0" class="st3" d="M5137.7-2076.2v-127.7"/>
	<path id="path4306" inkscape:connector-curvature="0" class="st3" d="M5204-2079.4v-139"/>
	<path id="path4308" inkscape:connector-curvature="0" class="st3" d="M5281.5-2077.8v-145.5"/>
	<path id="path4310" inkscape:connector-curvature="0" class="st3" d="M5347.8-2077.8v-168.1"/>
	<path id="path4312" inkscape:connector-curvature="0" class="st3" d="M5418.9-2072.9v-35.6l67.1-67.1"/>
	<path id="path4332" inkscape:connector-curvature="0" class="st1" d="M4395.3-1768.3v35.4h-61.7v398.9h141.7v-129.1l47.4-47.4h76
		v-66.9H4529v-158.9h-60.6v-37.7h-72L4395.3-1768.3z"/>
	<path id="path7243" inkscape:connector-curvature="0" class="st3" d="M4583.3-1915.1v112.1"/>
	<path id="path7245" inkscape:connector-curvature="0" class="st3" d="M4399.4-1915.1v112.1"/>
	<g id="g4226" transform="matrix(9.0861947,0,0,9.0861947,5750.5257,1180.0896)" inkscape:label="Ebene 1">
		<rect id="rect4228" x="-150.9" y="-334.4" class="st15" width="24.7" height="10.7"/>
		<rect id="rect4230" x="-146.5" y="-334.4" class="st16" width="16" height="10.7"/>
	</g>
	<path id="path4338" inkscape:connector-curvature="0" class="st6" d="M5041-1184.3h-381.7"/>
	<path id="path4340" inkscape:connector-curvature="0" class="st17" d="M4983.3-1266v65.9"/>
	<path id="path4342" inkscape:connector-curvature="0" class="st17" d="M5028.6-1184h31.5v-101"/>
	
		<path id="path4217" inkscape:connector-curvature="0" inkscape:path-effect="#path-effect4219" inkscape:original-d="m 4824.2858,-611.9236 85.7143,0 20.7143,-20.7143 167.8571,0 18.9286,18.9286 0,46.0714 -52.614,30.3767 0,79.6233 -32.443,32.443 -49.5859,0 -81.9358,-81.9358 c 0,0 9.2141,-39.4668 0,-41.9357 l -82.3499,0 z" sodipodi:nodetypes="cccccccccccccc" class="st1" d="
		M5654.7-1587.7h68.6l16.6-16.6h134.3l15.1,15.1v36.9l-42.1,24.3v63.7l-26,26h-39.7l-65.5-65.5v-33.5h-65.9L5654.7-1587.7z"/>
	<path id="path4221" inkscape:connector-curvature="0" class="st1" d="M5489-1998v-104h31.4l28.3-28.3h194l104.1-104.1V-2694
		l-83.2-83.2h-41.5V-2890h199.4l43.1,43.1h543.1l112.7,112.7v137.9h-156.7v-103.4h-469.1v514.3l-87.7,87.7v147.7l-53,53h-101
		l-39.4-39.4v-53.6h-210.4l-13.1-10.9L5489-1998z"/>
	
		<radialGradient id="circle7153_1_" cx="8384.1387" cy="512.5549" r="153.017" gradientTransform="matrix(0.8 0 0 -0.8 -171.2354 -2117.2324)" gradientUnits="userSpaceOnUse">
		<stop  offset="0" style="stop-color:#E5E8ED"/>
		<stop  offset="1" style="stop-color:#CBCBCB"/>
	</radialGradient>
	<circle id="circle7153" class="st18" cx="6536.1" cy="-2527.3" r="118.4"/>
	<ellipse id="path4225" class="st19" cx="4617.3" cy="-2625.4" rx="27.7" ry="17.1"/>
	<circle id="path4227" class="st20" cx="4579.2" cy="-2552.5" r="24"/>
	<circle id="path4227-1" class="st20" cx="4379" cy="-2739.8" r="24"/>
	<circle id="circle4244" class="st20" cx="4854.5" cy="-2119.3" r="24"/>
	<circle id="circle4246" class="st20" cx="4709.4" cy="-2050.5" r="24"/>
	<circle id="circle4248" class="st20" cx="4694.5" cy="-1874.1" r="24"/>
	<circle id="circle4250" class="st20" cx="4754.3" cy="-1640.8" r="24"/>
	<circle id="circle4253" class="st20" cx="4690" cy="-1500.3" r="24"/>
	<circle id="circle4255" class="st20" cx="4803.6" cy="-1329.8" r="24"/>
	<circle id="circle4257" class="st20" cx="4903.8" cy="-1295.4" r="24"/>
	<circle id="circle4259" class="st20" cx="4872.4" cy="-1093.6" r="24"/>
	<circle id="circle4261" class="st20" cx="4975.6" cy="-1095.1" r="24"/>
	<circle id="circle4263" class="st20" cx="5134.1" cy="-1093.6" r="24"/>
	<circle id="circle4265" class="st20" cx="5134.1" cy="-1196.8" r="24"/>
	<circle id="circle4267" class="st20" cx="5228.3" cy="-1180.3" r="24"/>
	<circle id="circle4269" class="st20" cx="5643.9" cy="-1186.3" r="24"/>
	<circle id="circle4271" class="st20" cx="5632" cy="-1279" r="24"/>
	<circle id="circle4273" class="st20" cx="5706.7" cy="-1277.5" r="24"/>
	<circle id="circle4275" class="st20" cx="5787.5" cy="-1470.4" r="24"/>
	<circle id="circle4277" class="st20" cx="5769.5" cy="-1566.1" r="24"/>
	<circle id="circle4279" class="st20" cx="5851.8" cy="-1566.1" r="24"/>
	<circle id="circle4281" class="st20" cx="6180.7" cy="-1087.6" r="24"/>
	<circle id="circle4283" class="st20" cx="6298.8" cy="-1110" r="24"/>
	<circle id="circle4285" class="st20" cx="5777" cy="-1954.8" r="24"/>
	<circle id="circle4287" class="st20" cx="5850.3" cy="-1944.4" r="24"/>
	<circle id="circle4289" class="st20" cx="5869.7" cy="-2035.6" r="24"/>
	<circle id="circle4291" class="st20" cx="6070.1" cy="-1984.7" r="24"/>
	<circle id="circle4293" class="st20" cx="4402.9" cy="-2340.6" r="24"/>
	<path id="path4295" inkscape:connector-curvature="0" class="st1" d="M4954.4-2237.6l-92.6,53.5h-235.2l-101.3-101.3v-42.1
		l25.8-25.8h32.1v-39.8h28.5v38.1l22.7,22.7h263.8L4954.4-2237.6z"/>
	
		<linearGradient id="rect4297_1_" gradientUnits="userSpaceOnUse" x1="6719.3286" y1="1412.6938" x2="6719.3286" y2="1338.6758" gradientTransform="matrix(0.8 0 0 -0.8 -530.7053 -1759.877)">
		<stop  offset="0" style="stop-color:#6A758D"/>
		<stop  offset="1" style="stop-color:#D0D7E3"/>
	</linearGradient>
	<rect id="rect4297" x="4710.9" y="-2898.3" class="st21" width="267.6" height="127.1"/>
	
		<linearGradient id="rect4317_1_" gradientUnits="userSpaceOnUse" x1="6719.3286" y1="1412.6938" x2="6719.3286" y2="1338.6758" gradientTransform="matrix(0.8 0 0 -0.8 -530.7053 -1580.142)">
		<stop  offset="0" style="stop-color:#6A758D"/>
		<stop  offset="1" style="stop-color:#D0D7E3"/>
	</linearGradient>
	<rect id="rect4317" x="4710.9" y="-2718.6" class="st22" width="267.6" height="127.1"/>
	
		<linearGradient id="rect4321_1_" gradientUnits="userSpaceOnUse" x1="6719.3286" y1="1412.6938" x2="6719.3286" y2="1338.6758" gradientTransform="matrix(0.8 0 0 -0.8 -530.7053 -1396.178)">
		<stop  offset="0" style="stop-color:#6A758D"/>
		<stop  offset="1" style="stop-color:#D0D7E3"/>
	</linearGradient>
	<rect id="rect4321" x="4710.9" y="-2534.6" class="st23" width="267.6" height="127.1"/>
	
		<linearGradient id="rect4325_1_" gradientUnits="userSpaceOnUse" x1="6719.3286" y1="1412.6938" x2="6719.3286" y2="1338.6758" gradientTransform="matrix(0.8 0 0 -0.8 -530.7053 -1214.3285)">
		<stop  offset="0" style="stop-color:#6A758D"/>
		<stop  offset="1" style="stop-color:#D0D7E3"/>
	</linearGradient>
	<rect id="rect4325" x="4710.9" y="-2352.7" class="st24" width="267.6" height="127.1"/>
	
		<linearGradient id="rect4329_1_" gradientUnits="userSpaceOnUse" x1="6719.3286" y1="1412.6938" x2="6719.3286" y2="1338.6758" gradientTransform="matrix(0.8 0 0 -0.8 264.3575 -1214.3285)">
		<stop  offset="0" style="stop-color:#6A758D"/>
		<stop  offset="1" style="stop-color:#D0D7E3"/>
	</linearGradient>
	<rect id="rect4329" x="5506" y="-2352.7" class="st25" width="267.6" height="127.1"/>
	
		<linearGradient id="rect4333_1_" gradientUnits="userSpaceOnUse" x1="6719.3286" y1="1412.6938" x2="6719.3286" y2="1338.6758" gradientTransform="matrix(0.8 0 0 -0.8 264.3575 -1400.407)">
		<stop  offset="0" style="stop-color:#6A758D"/>
		<stop  offset="1" style="stop-color:#D0D7E3"/>
	</linearGradient>
	<rect id="rect4333" x="5506" y="-2538.8" class="st26" width="267.6" height="127.1"/>
	
		<linearGradient id="rect4337_1_" gradientUnits="userSpaceOnUse" x1="6719.3286" y1="1412.6938" x2="6719.3286" y2="1338.6758" gradientTransform="matrix(0.8 0 0 -0.8 264.3575 -1582.2565)">
		<stop  offset="0" style="stop-color:#6A758D"/>
		<stop  offset="1" style="stop-color:#D0D7E3"/>
	</linearGradient>
	<rect id="rect4337" x="5506" y="-2720.7" class="st27" width="267.6" height="127.1"/>
	
		<linearGradient id="rect4341_1_" gradientUnits="userSpaceOnUse" x1="6719.3286" y1="1412.6938" x2="6719.3286" y2="1338.6758" gradientTransform="matrix(0.8 0 0 -0.8 264.3575 -1759.877)">
		<stop  offset="0" style="stop-color:#6A758D"/>
		<stop  offset="1" style="stop-color:#D0D7E3"/>
	</linearGradient>
	<rect id="rect4341" x="5506" y="-2898.3" class="st28" width="267.6" height="127.1"/>
	<g id="g4345">
		<rect id="rect4314" x="4964.3" y="-2907.7" class="st29" width="560" height="706.3"/>
		<path id="path4322" inkscape:connector-curvature="0" sodipodi:nodetypes="cszsssc" class="st30" d="M5457-2678c0,0,9-49,0-70.9
			c-13-31.4-47.3-68.7-72-72c-24.7-3.3-33.5,10.1-41.5,24c-9.7,16.8-7.4,40.4,0,58.3c9.8,23.7,30.7,64.3,54.5,54.5
			c25.2-10.4,0-81.9,0-81.9"/>
	</g>
	
		<linearGradient id="rect4353_1_" gradientUnits="userSpaceOnUse" x1="6279.0063" y1="-2687.4177" x2="6279.0063" y2="-2761.4358" gradientTransform="matrix(0 0.2782 0.4293 0 6163.4609 -3803.9272)">
		<stop  offset="0" style="stop-color:#6A758D"/>
		<stop  offset="1" style="stop-color:#D0D7E3"/>
	</linearGradient>
	<rect id="rect4353" x="4946" y="-2103.9" class="st31" width="68.2" height="93.1"/>
	
		<linearGradient id="rect4357_1_" gradientUnits="userSpaceOnUse" x1="6279.0063" y1="-2687.4177" x2="6279.0063" y2="-2761.4358" gradientTransform="matrix(0 0.2782 0.4293 0 6236.563 -3803.9272)">
		<stop  offset="0" style="stop-color:#6A758D"/>
		<stop  offset="1" style="stop-color:#D0D7E3"/>
	</linearGradient>
	<rect id="rect4357" x="5019.1" y="-2103.9" class="st32" width="68.2" height="93.1"/>
	
		<linearGradient id="rect4361_1_" gradientUnits="userSpaceOnUse" x1="6279.0063" y1="-2687.4177" x2="6279.0063" y2="-2761.4358" gradientTransform="matrix(0 0.2782 0.4293 0 6309.665 -3803.9272)">
		<stop  offset="0" style="stop-color:#6A758D"/>
		<stop  offset="1" style="stop-color:#D0D7E3"/>
	</linearGradient>
	<rect id="rect4361" x="5092.2" y="-2103.9" class="st33" width="68.2" height="93.1"/>
	
		<linearGradient id="rect4365_1_" gradientUnits="userSpaceOnUse" x1="6279.0063" y1="-2687.4177" x2="6279.0063" y2="-2761.4358" gradientTransform="matrix(0 0.2782 0.4293 0 6382.7676 -3803.9272)">
		<stop  offset="0" style="stop-color:#6A758D"/>
		<stop  offset="1" style="stop-color:#D0D7E3"/>
	</linearGradient>
	<rect id="rect4365" x="5165.3" y="-2103.9" class="st34" width="68.2" height="93.1"/>
	
		<linearGradient id="rect4369_1_" gradientUnits="userSpaceOnUse" x1="6279.0063" y1="-2687.4177" x2="6279.0063" y2="-2761.4358" gradientTransform="matrix(0 0.2782 0.4293 0 6455.8696 -3803.9272)">
		<stop  offset="0" style="stop-color:#6A758D"/>
		<stop  offset="1" style="stop-color:#D0D7E3"/>
	</linearGradient>
	<rect id="rect4369" x="5238.4" y="-2103.9" class="st35" width="68.2" height="93.1"/>
	
		<linearGradient id="rect4373_1_" gradientUnits="userSpaceOnUse" x1="6279.0063" y1="-2687.4177" x2="6279.0063" y2="-2761.4358" gradientTransform="matrix(0 0.2782 0.4293 0 6528.9722 -3803.9272)">
		<stop  offset="0" style="stop-color:#6A758D"/>
		<stop  offset="1" style="stop-color:#D0D7E3"/>
	</linearGradient>
	<rect id="rect4373" x="5311.5" y="-2103.9" class="st36" width="68.2" height="93.1"/>
	
		<linearGradient id="rect4377_1_" gradientUnits="userSpaceOnUse" x1="6279.0063" y1="-2687.4177" x2="6279.0063" y2="-2761.4358" gradientTransform="matrix(0 0.2782 0.4293 0 6602.0742 -3803.9272)">
		<stop  offset="0" style="stop-color:#6A758D"/>
		<stop  offset="1" style="stop-color:#D0D7E3"/>
	</linearGradient>
	<rect id="rect4377" x="5384.6" y="-2103.9" class="st37" width="68.2" height="93.1"/>
	
		<linearGradient id="rect4381_1_" gradientUnits="userSpaceOnUse" x1="6279.0063" y1="-2687.4177" x2="6279.0063" y2="-2761.4358" gradientTransform="matrix(0 0.2782 0.4293 0 6675.1768 -3803.9272)">
		<stop  offset="0" style="stop-color:#6A758D"/>
		<stop  offset="1" style="stop-color:#D0D7E3"/>
	</linearGradient>
	<rect id="rect4381" x="5457.7" y="-2103.9" class="st38" width="68.2" height="93.1"/>
	
		<linearGradient id="rect7173_1_" gradientUnits="userSpaceOnUse" x1="8027.7803" y1="-2687.4177" x2="8027.7803" y2="-2761.4358" gradientTransform="matrix(0 1.2989 0.4293 0 5589.3662 -12539.2725)">
		<stop  offset="0" style="stop-color:#6A758D"/>
		<stop  offset="1" style="stop-color:#D0D7E3"/>
	</linearGradient>
	<rect id="rect7173" x="4371.9" y="-2329.1" class="st39" width="68.2" height="434.6"/>
	
		<linearGradient id="rect7177_1_" gradientUnits="userSpaceOnUse" x1="8027.7803" y1="-2687.4177" x2="8027.7803" y2="-2761.4358" gradientTransform="matrix(0 1.2989 0.4293 0 5764.8721 -12539.2725)">
		<stop  offset="0" style="stop-color:#6A758D"/>
		<stop  offset="1" style="stop-color:#D0D7E3"/>
	</linearGradient>
	<rect id="rect7177" x="4547.4" y="-2329.1" class="st40" width="68.2" height="434.6"/>
	<g id="g4410" transform="translate(0,958.79554)">
		
			<linearGradient id="rect4412_1_" gradientUnits="userSpaceOnUse" x1="6279.0063" y1="-3646.2134" x2="6279.0063" y2="-3720.2314" gradientTransform="matrix(0 0.2782 0.4293 0 6575.0698 -3995.6863)">
			<stop  offset="0" style="stop-color:#6A758D"/>
			<stop  offset="1" style="stop-color:#D0D7E3"/>
		</linearGradient>
		<rect id="rect4412" x="4946" y="-2295.6" class="st41" width="68.2" height="93.1"/>
		
			<linearGradient id="rect4414_1_" gradientUnits="userSpaceOnUse" x1="6279.0063" y1="-3646.2134" x2="6279.0063" y2="-3720.2314" gradientTransform="matrix(0 0.2782 0.4293 0 6648.1719 -3995.6863)">
			<stop  offset="0" style="stop-color:#6A758D"/>
			<stop  offset="1" style="stop-color:#D0D7E3"/>
		</linearGradient>
		<rect id="rect4414" x="5019.1" y="-2295.6" class="st42" width="68.2" height="93.1"/>
		
			<linearGradient id="rect4416_1_" gradientUnits="userSpaceOnUse" x1="6279.0063" y1="-3646.2134" x2="6279.0063" y2="-3720.2314" gradientTransform="matrix(0 0.2782 0.4293 0 6721.2739 -3995.6863)">
			<stop  offset="0" style="stop-color:#6A758D"/>
			<stop  offset="1" style="stop-color:#D0D7E3"/>
		</linearGradient>
		<rect id="rect4416" x="5092.2" y="-2295.6" class="st43" width="68.2" height="93.1"/>
		
			<linearGradient id="rect4418_1_" gradientUnits="userSpaceOnUse" x1="6279.0063" y1="-3646.2134" x2="6279.0063" y2="-3720.2314" gradientTransform="matrix(0 0.2782 0.4293 0 6794.3765 -3995.6863)">
			<stop  offset="0" style="stop-color:#6A758D"/>
			<stop  offset="1" style="stop-color:#D0D7E3"/>
		</linearGradient>
		<rect id="rect4418" x="5165.3" y="-2295.6" class="st44" width="68.2" height="93.1"/>
		
			<linearGradient id="rect4420_1_" gradientUnits="userSpaceOnUse" x1="6279.0063" y1="-3646.2134" x2="6279.0063" y2="-3720.2314" gradientTransform="matrix(0 0.2782 0.4293 0 6867.4785 -3995.6863)">
			<stop  offset="0" style="stop-color:#6A758D"/>
			<stop  offset="1" style="stop-color:#D0D7E3"/>
		</linearGradient>
		<rect id="rect4420" x="5238.4" y="-2295.6" class="st45" width="68.2" height="93.1"/>
		
			<linearGradient id="rect4422_1_" gradientUnits="userSpaceOnUse" x1="6279.0063" y1="-3646.2134" x2="6279.0063" y2="-3720.2314" gradientTransform="matrix(0 0.2782 0.4293 0 6940.5811 -3995.6863)">
			<stop  offset="0" style="stop-color:#6A758D"/>
			<stop  offset="1" style="stop-color:#D0D7E3"/>
		</linearGradient>
		<rect id="rect4422" x="5311.5" y="-2295.6" class="st46" width="68.2" height="93.1"/>
		
			<linearGradient id="rect4424_1_" gradientUnits="userSpaceOnUse" x1="6279.0063" y1="-3646.2134" x2="6279.0063" y2="-3720.2314" gradientTransform="matrix(0 0.2782 0.4293 0 7013.6831 -3995.6863)">
			<stop  offset="0" style="stop-color:#6A758D"/>
			<stop  offset="1" style="stop-color:#D0D7E3"/>
		</linearGradient>
		<rect id="rect4424" x="5384.6" y="-2295.6" class="st47" width="68.2" height="93.1"/>
		
			<linearGradient id="rect4426_1_" gradientUnits="userSpaceOnUse" x1="6279.0063" y1="-3646.2134" x2="6279.0063" y2="-3720.2314" gradientTransform="matrix(0 0.2782 0.4293 0 7086.7856 -3995.6863)">
			<stop  offset="0" style="stop-color:#6A758D"/>
			<stop  offset="1" style="stop-color:#D0D7E3"/>
		</linearGradient>
		<rect id="rect4426" x="5457.7" y="-2295.6" class="st48" width="68.2" height="93.1"/>
	</g>
	<g id="g4444" transform="matrix(0,-1,1,0,5011.9771,3574.6799)">
		
			<linearGradient id="rect4446_1_" gradientUnits="userSpaceOnUse" x1="1493.8468" y1="-1641.3483" x2="1493.8468" y2="-1567.3302" gradientTransform="matrix(-0.4293 0 0 0.2782 5668.8594 290.2825)">
			<stop  offset="0" style="stop-color:#6A758D"/>
			<stop  offset="1" style="stop-color:#D0D7E3"/>
		</linearGradient>
		
			<rect id="rect4446" x="4951.4" y="-200.4" transform="matrix(-2.535182e-006 -1 1 -2.535182e-006 5164.1738 4831.6045)" class="st49" width="93.1" height="68.2"/>
		
			<linearGradient id="rect4448_1_" gradientUnits="userSpaceOnUse" x1="1493.8468" y1="-1641.3483" x2="1493.8468" y2="-1567.3302" gradientTransform="matrix(-0.4293 0 0 0.2782 5741.9614 290.2825)">
			<stop  offset="0" style="stop-color:#6A758D"/>
			<stop  offset="1" style="stop-color:#D0D7E3"/>
		</linearGradient>
		
			<rect id="rect4448" x="5024.5" y="-200.4" transform="matrix(-2.535182e-006 -1 1 -2.535182e-006 5237.2764 4904.707)" class="st50" width="93.1" height="68.2"/>
		
			<linearGradient id="rect4450_1_" gradientUnits="userSpaceOnUse" x1="1493.8468" y1="-1641.3483" x2="1493.8468" y2="-1567.3302" gradientTransform="matrix(-0.4293 0 0 0.2782 5815.0635 290.2825)">
			<stop  offset="0" style="stop-color:#6A758D"/>
			<stop  offset="1" style="stop-color:#D0D7E3"/>
		</linearGradient>
		
			<rect id="rect4450" x="5097.6" y="-200.4" transform="matrix(-2.535182e-006 -1 1 -2.535182e-006 5310.3789 4977.8096)" class="st51" width="93.1" height="68.2"/>
		
			<linearGradient id="rect4452_1_" gradientUnits="userSpaceOnUse" x1="1493.8468" y1="-1641.3483" x2="1493.8468" y2="-1567.3302" gradientTransform="matrix(-0.4293 0 0 0.2782 5888.166 290.2825)">
			<stop  offset="0" style="stop-color:#6A758D"/>
			<stop  offset="1" style="stop-color:#D0D7E3"/>
		</linearGradient>
		
			<rect id="rect4452" x="5170.7" y="-200.4" transform="matrix(-2.535182e-006 -1 1 -2.535182e-006 5383.4814 5050.9116)" class="st52" width="93.1" height="68.2"/>
		
			<linearGradient id="rect4454_1_" gradientUnits="userSpaceOnUse" x1="1493.8468" y1="-1641.3483" x2="1493.8468" y2="-1567.3302" gradientTransform="matrix(-0.4293 0 0 0.2782 5961.2686 290.2825)">
			<stop  offset="0" style="stop-color:#6A758D"/>
			<stop  offset="1" style="stop-color:#D0D7E3"/>
		</linearGradient>
		
			<rect id="rect4454" x="5243.8" y="-200.4" transform="matrix(-2.535182e-006 -1 1 -2.535182e-006 5456.584 5124.0142)" class="st53" width="93.1" height="68.2"/>
		
			<linearGradient id="rect4456_1_" gradientUnits="userSpaceOnUse" x1="1493.8468" y1="-1641.3483" x2="1493.8468" y2="-1567.3302" gradientTransform="matrix(-0.4293 0 0 0.2782 6034.3706 290.2825)">
			<stop  offset="0" style="stop-color:#6A758D"/>
			<stop  offset="1" style="stop-color:#D0D7E3"/>
		</linearGradient>
		
			<rect id="rect4456" x="5316.9" y="-200.4" transform="matrix(-2.535182e-006 -1 1 -2.535182e-006 5529.6865 5197.1162)" class="st54" width="93.1" height="68.2"/>
		
			<linearGradient id="rect4458_1_" gradientUnits="userSpaceOnUse" x1="1493.8468" y1="-1641.3483" x2="1493.8468" y2="-1567.3302" gradientTransform="matrix(-0.4293 0 0 0.2782 6107.4727 290.2825)">
			<stop  offset="0" style="stop-color:#6A758D"/>
			<stop  offset="1" style="stop-color:#D0D7E3"/>
		</linearGradient>
		
			<rect id="rect4458" x="5390" y="-200.4" transform="matrix(-2.535182e-006 -1 1 -2.535182e-006 5602.7891 5270.2188)" class="st55" width="93.1" height="68.2"/>
		
			<linearGradient id="rect4460_1_" gradientUnits="userSpaceOnUse" x1="1493.8468" y1="-1641.3483" x2="1493.8468" y2="-1567.3302" gradientTransform="matrix(-0.4293 0 0 0.2782 6180.5752 290.2825)">
			<stop  offset="0" style="stop-color:#6A758D"/>
			<stop  offset="1" style="stop-color:#D0D7E3"/>
		</linearGradient>
		
			<rect id="rect4460" x="5463.1" y="-200.4" transform="matrix(-2.535182e-006 -1 1 -2.535182e-006 5675.8916 5343.3213)" class="st56" width="93.1" height="68.2"/>
	</g>
	<g id="g4478" transform="matrix(0,-1,1,0,5974.5106,3574.6799)">
		
			<linearGradient id="rect4480_1_" gradientUnits="userSpaceOnUse" x1="1493.8468" y1="-2603.8818" x2="1493.8468" y2="-2529.8638" gradientTransform="matrix(-0.4293 0 0 0.2782 5668.8594 365.516)">
			<stop  offset="0" style="stop-color:#6A758D"/>
			<stop  offset="1" style="stop-color:#D0D7E3"/>
		</linearGradient>
		
			<rect id="rect4480" x="4951.4" y="-392.9" transform="matrix(-2.535182e-006 -1 1 -2.535182e-006 5356.6807 4639.0977)" class="st57" width="93.1" height="68.2"/>
		
			<linearGradient id="rect4482_1_" gradientUnits="userSpaceOnUse" x1="1493.8468" y1="-2603.8818" x2="1493.8468" y2="-2529.8638" gradientTransform="matrix(-0.4293 0 0 0.2782 5741.9614 365.516)">
			<stop  offset="0" style="stop-color:#6A758D"/>
			<stop  offset="1" style="stop-color:#D0D7E3"/>
		</linearGradient>
		
			<rect id="rect4482" x="5024.5" y="-392.9" transform="matrix(-2.535182e-006 -1 1 -2.535182e-006 5429.7832 4712.1997)" class="st58" width="93.1" height="68.2"/>
		
			<linearGradient id="rect4484_1_" gradientUnits="userSpaceOnUse" x1="1493.8468" y1="-2603.8818" x2="1493.8468" y2="-2529.8638" gradientTransform="matrix(-0.4293 0 0 0.2782 5815.0635 365.516)">
			<stop  offset="0" style="stop-color:#6A758D"/>
			<stop  offset="1" style="stop-color:#D0D7E3"/>
		</linearGradient>
		
			<rect id="rect4484" x="5097.6" y="-392.9" transform="matrix(-2.535182e-006 -1 1 -2.535182e-006 5502.8857 4785.3022)" class="st59" width="93.1" height="68.2"/>
		
			<linearGradient id="rect4486_1_" gradientUnits="userSpaceOnUse" x1="1493.8468" y1="-2603.8818" x2="1493.8468" y2="-2529.8638" gradientTransform="matrix(-0.4293 0 0 0.2782 5888.166 365.516)">
			<stop  offset="0" style="stop-color:#6A758D"/>
			<stop  offset="1" style="stop-color:#D0D7E3"/>
		</linearGradient>
		
			<rect id="rect4486" x="5170.7" y="-392.9" transform="matrix(-2.535182e-006 -1 1 -2.535182e-006 5575.9883 4858.4043)" class="st60" width="93.1" height="68.2"/>
		
			<linearGradient id="rect4488_1_" gradientUnits="userSpaceOnUse" x1="1493.8468" y1="-2603.8818" x2="1493.8468" y2="-2529.8638" gradientTransform="matrix(-0.4293 0 0 0.2782 5961.2686 365.516)">
			<stop  offset="0" style="stop-color:#6A758D"/>
			<stop  offset="1" style="stop-color:#D0D7E3"/>
		</linearGradient>
		
			<rect id="rect4488" x="5243.8" y="-392.9" transform="matrix(-2.535182e-006 -1 1 -2.535182e-006 5649.0908 4931.5068)" class="st61" width="93.1" height="68.2"/>
		
			<linearGradient id="rect4490_1_" gradientUnits="userSpaceOnUse" x1="1493.8468" y1="-2603.8818" x2="1493.8468" y2="-2529.8638" gradientTransform="matrix(-0.4293 0 0 0.2782 6034.3706 365.516)">
			<stop  offset="0" style="stop-color:#6A758D"/>
			<stop  offset="1" style="stop-color:#D0D7E3"/>
		</linearGradient>
		
			<rect id="rect4490" x="5316.9" y="-392.9" transform="matrix(-2.535182e-006 -1 1 -2.535182e-006 5722.1934 5004.6094)" class="st62" width="93.1" height="68.2"/>
		
			<linearGradient id="rect4492_1_" gradientUnits="userSpaceOnUse" x1="1493.8468" y1="-2603.8818" x2="1493.8468" y2="-2529.8638" gradientTransform="matrix(-0.4293 0 0 0.2782 6107.4727 365.516)">
			<stop  offset="0" style="stop-color:#6A758D"/>
			<stop  offset="1" style="stop-color:#D0D7E3"/>
		</linearGradient>
		
			<rect id="rect4492" x="5390" y="-392.9" transform="matrix(-2.535182e-006 -1 1 -2.535182e-006 5795.2959 5077.7114)" class="st63" width="93.1" height="68.2"/>
		
			<linearGradient id="rect4494_1_" gradientUnits="userSpaceOnUse" x1="1493.8468" y1="-2603.8818" x2="1493.8468" y2="-2529.8638" gradientTransform="matrix(-0.4293 0 0 0.2782 6180.5752 365.516)">
			<stop  offset="0" style="stop-color:#6A758D"/>
			<stop  offset="1" style="stop-color:#D0D7E3"/>
		</linearGradient>
		
			<rect id="rect4494" x="5463.1" y="-392.9" transform="matrix(-2.535182e-006 -1 1 -2.535182e-006 5868.3984 5150.814)" class="st64" width="93.1" height="68.2"/>
	</g>
	<path id="rect4260" class="st65" d="M4899.7-2023.1h675.4c9.1,0,16.6,7.4,16.6,16.6v675.4c0,9.1-7.4,16.6-16.6,16.6h-675.4
		c-9.1,0-16.6-7.4-16.6-16.6v-675.4C4883.1-2015.7,4890.5-2023.1,4899.7-2023.1z"/>
	<text transform="matrix(0 -1 1 0 5375.8745 -1596.0638)" class="st9 st66 st67">ESP</text>
	<circle id="path4246" class="st9" cx="4985.8" cy="-1436.1" r="22.6"/>
	<circle id="circle7615" class="st9" cx="5024.6" cy="-2844.6" r="22.6"/>
	
		<radialGradient id="rect7099_1_" cx="8381.4961" cy="967.887" r="148.017" gradientTransform="matrix(0.8 0 0 -0.7857 -530.7053 -1762.5647)" gradientUnits="userSpaceOnUse">
		<stop  offset="0" style="stop-color:#E5E8ED"/>
		<stop  offset="1" style="stop-color:#CBCBCB"/>
	</radialGradient>
	<path id="rect7099" class="st68" d="M6076.9-2645.7h203.7c9.1,0,16.6,7.4,16.6,16.6v199.5c0,9.1-7.4,16.6-16.6,16.6h-203.7
		c-9.1,0-16.6-7.4-16.6-16.6v-199.5C6060.3-2638.3,6067.7-2645.7,6076.9-2645.7z"/>
	
		<radialGradient id="path7139_1_" cx="8384.1387" cy="512.5549" r="153.017" gradientTransform="matrix(0.8 0 0 -0.8 -530.7053 -1759.877)" gradientUnits="userSpaceOnUse">
		<stop  offset="0" style="stop-color:#E5E8ED"/>
		<stop  offset="1" style="stop-color:#CBCBCB"/>
	</radialGradient>
	<circle id="path7139" class="st69" cx="6176.6" cy="-2169.9" r="118.4"/>
	<rect id="rect7109" x="6140.7" y="-2210.1" class="st70" width="80.4" height="76.1"/>
	<rect id="rect7111" x="6140.7" y="-2573.8" class="st70" width="80.4" height="76.1"/>
	<rect id="rect7113" x="6140.7" y="-1846.4" class="st70" width="80.4" height="76.1"/>
	<rect id="rect7115" x="6140.7" y="-1484.8" class="st70" width="80.4" height="76.1"/>
	<rect id="rect7117" x="6502.2" y="-1484.8" class="st70" width="80.4" height="76.1"/>
	<rect id="rect7119" x="6502.2" y="-1840.1" class="st70" width="80.4" height="76.1"/>
	<rect id="rect7121" x="6502.2" y="-2210.1" class="st70" width="80.4" height="76.1"/>
	<rect id="rect7123" x="6502.2" y="-2575.9" class="st70" width="80.4" height="76.1"/>
	<g id="layer1-5" transform="matrix(9.0861947,0,0,9.0861947,5750.5257,416.4143)" inkscape:label="Ebene 1">
		<rect id="rect10268" x="-150.9" y="-317.6" class="st15" width="24.7" height="10.7"/>
		<rect id="rect10270" x="-146.5" y="-317.6" class="st16" width="16" height="10.7"/>
	</g>
	<g id="g4198" transform="matrix(9.1387359,0,0,9.1387359,5172.7822,548.46797)" inkscape:label="Ebene 1">
		<rect id="rect4200" x="-114.8" y="-333" class="st15" width="24.7" height="10.7"/>
		<rect id="rect4202" x="-110.5" y="-333" class="st71" width="16" height="10.7"/>
		<rect id="rect4204" x="-107.8" y="-329.5" class="st72" width="3.7" height="3.7"/>
	</g>
	<g id="layer1-9" transform="matrix(9.1387359,0,0,9.1387359,5172.7822,2.7536863)" inkscape:label="Ebene 1">
		<rect id="rect10268-45" x="-114.8" y="-321.1" class="st15" width="24.7" height="10.7"/>
		<rect id="rect10270-5" x="-110.5" y="-321" class="st71" width="16" height="10.7"/>
		<rect id="rect10310" x="-107.8" y="-317.5" class="st72" width="3.7" height="3.7"/>
	</g>
	<g id="layer1-7" transform="matrix(9.1553948,0,0,9.1553948,5449.7198,32.641953)" inkscape:label="Ebene 1">
		<g id="g11082" transform="translate(-342.261,-541.74316)">
			<rect id="rect10268-4" x="197.4" y="233.5" class="st15" width="24.7" height="10.7"/>
			<rect id="rect10270-7" x="201.8" y="233.5" class="st73" width="16" height="10.7"/>
		</g>
	</g>
	<g id="g4190" transform="matrix(9.1553948,0,0,9.1553948,5449.7198,232.64195)" inkscape:label="Ebene 1">
		<g id="g4192" transform="translate(-342.261,-541.74316)">
			<rect id="rect4194" x="197.4" y="229.1" class="st15" width="24.7" height="10.7"/>
			<rect id="rect4196" x="201.8" y="229.1" class="st73" width="16" height="10.7"/>
		</g>
	</g>
	<path id="rect4232" class="st74" d="M4374.4-2290.3h245.7c9.1,0,16.6,7.4,16.6,16.6v315.2c0,9.1-7.4,16.6-16.6,16.6h-245.7
		c-9.1,0-16.6-7.4-16.6-16.6v-315.2C4357.9-2282.9,4365.3-2290.3,4374.4-2290.3z"/>
	
		<g id="g4206" transform="matrix(0,9.1553948,-9.1553948,0,1437.2359,1762.4546)" inkscape:label="Ebene 1" inkscape:transform-center-x="-62.857143" inkscape:transform-center-y="5.7142107">
		<g id="g4208" transform="translate(-342.261,-541.74316)">
			
				<rect id="rect4210" x="-31.1" y="182.5" transform="matrix(2.535182e-006 1 -1 2.535182e-006 169.0556 220.5549)" class="st15" width="10.7" height="24.7"/>
			
				<rect id="rect4212" x="-31.1" y="186.8" transform="matrix(2.535182e-006 1 -1 2.535182e-006 169.0555 220.5549)" class="st73" width="10.7" height="16"/>
		</g>
	</g>
	<g id="g4214" transform="matrix(9.0861947,0,0,9.0861947,5921.9543,2073.5572)" inkscape:label="Ebene 1">
		<rect id="rect4216" x="-154.7" y="-354.1" class="st15" width="24.7" height="10.7"/>
		<rect id="rect4218" x="-150.3" y="-354.1" class="st16" width="16" height="10.7"/>
	</g>
	<g id="g4220" transform="matrix(12.793192,0,0,12.793192,7773.0165,2942.8657)" inkscape:label="Ebene 1">
		<rect id="rect4222" x="-203.1" y="-319.5" class="st15" width="24.7" height="10.7"/>
		<rect id="rect4224" x="-198.7" y="-319.4" class="st16" width="16" height="10.7"/>
	</g>
	<circle id="path7809" class="st9" cx="5104.1" cy="-1732.9" r="169.2"/>
	<path id="path7815" inkscape:connector-curvature="0" sodipodi:nodetypes="cscsc" class="st75" d="M5042.8-1515.1
		c0,0,10.3-128.8,47.5-177.4c49.4-64.4,211-121.8,211-121.8s-129.6,87.1-175.3,140.4C5085.8-1626.8,5042.8-1515.1,5042.8-1515.1
		L5042.8-1515.1z"/>
</g>
</svg>
