<?xml version="1.0" encoding="utf-8"?>
<!-- Generator: Adobe Illustrator 19.0.0, SVG Export Plug-In . SVG Version: 6.00 Build 0)  -->
<svg version="1.1" id="Layer_1" xmlns="http://www.w3.org/2000/svg" xmlns:xlink="http://www.w3.org/1999/xlink" x="0px" y="0px"
	 viewBox="974 347 2560 100" style="enable-background:new 974 347 2560 100;" xml:space="preserve">
<style type="text/css">
	.st0{opacity:0.49;fill:#3181C4;enable-background:new    ;}
	.st1{fill:#3181C4;}
</style>
<path id="XMLID_3_" class="st0" d="M974,361.6l106.7,3.8c106.7,3.7,320,11.5,533.3,9.4c213.3-1.9,426.7-13.2,640-18.9
	c213.3-5.7,426.7-5.7,640-3.8c213.3,2,426.7,5.6,533.3,7.6l106.7,1.9v79.5h-106.7c-106.7,0-320,0-533.3,0s-426.7,0-640,0
	s-426.7,0-640,0s-426.7,0-533.3,0H974V361.6z"/>
<path id="XMLID_4_" class="st0" d="M974,391.5l106.7,3.8c106.7,3.7,320,11.5,533.3,9.4c213.3-1.9,426.7-13.2,640-18.9
	c213.3-5.7,426.7-5.7,640-3.8c213.3,2,426.7,5.6,533.3,7.6l106.7,1.9V471h-106.7c-106.7,0-320,0-533.3,0s-426.7,0-640,0
	s-426.7,0-640,0s-426.7,0-533.3,0H974V391.5z"/>
<path id="XMLID_5_" class="st1" d="M974,422.5l106.7,3.8c106.7,3.7,320,11.5,533.3,9.4c213.3-1.9,426.7-13.2,640-18.9
	c213.3-5.7,426.7-5.7,640-3.8c213.3,2,426.7,5.6,533.3,7.6l106.7,1.9V502h-106.7c-106.7,0-320,0-533.3,0s-426.7,0-640,0
	s-426.7,0-640,0s-426.7,0-533.3,0H974V422.5z"/>
</svg>
